<svg width="174" height="122" viewBox="0 0 174 122" fill="none" xmlns="http://www.w3.org/2000/svg">
<path d="M24.1304 58.7916C24.2242 58.26 24.4845 57.7578 24.7843 57.1941C24.8745 57.0134 25.0329 56.8549 25.2479 56.73C25.463 56.605 25.7295 56.5167 26.0282 56.4714C28.9247 56.2799 31.5903 56.099 34.3918 55.9593C36.125 55.8709 37.9181 55.9302 39.6046 55.7822C43.4584 55.5793 47.3933 55.5856 51.3671 55.8009L54.6538 55.8323C58.5965 55.8767 62.57 55.9093 66.5726 56.1012C67.4538 56.1367 68.3569 56.2103 69.2191 56.1911C75.126 56.1364 81.1131 56.4385 87.074 56.5646C90.1545 56.6282 93.2599 56.7133 96.3565 56.8483C100.573 57.1161 104.763 57.2141 108.901 57.1418C111.771 57.2133 114.664 57.3974 117.564 57.693C119.59 58.0504 121.55 57.8136 123.542 58.0449C125.546 58.3332 127.555 58.5444 129.557 58.6773C132.217 58.7888 134.901 59.067 137.569 59.5077C139.579 59.812 141.597 60.0015 143.596 60.0736C144.932 60.1695 146.273 60.3201 147.61 60.5245C148.054 60.6028 148.498 60.6812 148.942 60.7595C149.26 60.8402 149.551 60.97 149.784 61.1349C150.017 61.2998 150.184 61.4936 150.266 61.6952C150.317 61.8316 150.317 61.9678 150.265 62.0926C150.213 62.2175 150.111 62.3273 149.968 62.4133C148.814 62.9164 147.833 63.5471 147.062 64.2817C146.819 64.485 146.488 64.6393 146.098 64.7316C145.708 64.8238 145.27 64.8513 144.821 64.8116C144.383 64.812 143.938 64.7793 143.493 64.7144C141.05 64.2836 138.583 63.9856 136.162 63.5929C134.164 63.22 132.144 63.0018 130.15 62.944C129.263 62.9269 128.365 62.8546 127.468 62.7281C125.017 62.3751 122.559 62.1422 120.119 62.0317C117.926 61.9704 115.687 61.6784 113.457 61.662C111.475 61.6202 109.478 61.5082 107.476 61.3267C105.469 61.1785 103.453 60.9257 101.468 60.8155C99.4921 60.8082 97.491 60.7016 95.4841 60.4969C90.8254 60.292 86.1593 59.966 81.5166 59.8325C77.719 59.7224 73.9283 59.5735 70.1444 59.3859C66.1695 59.1989 62.218 59.2044 58.2635 59.2264L50.3823 59.2755C50.285 59.2864 50.1972 59.3118 50.1259 59.3497C50.0546 59.3877 50.0018 59.4372 49.9716 59.4943C49.9277 59.7435 50.1453 59.9703 50.6758 60.0467C54.4803 60.4487 58.2748 60.6537 62.0187 60.6593C65.7763 60.7716 69.5574 61.0039 73.347 61.3551C76.9257 61.6778 80.4462 61.682 84.0074 62.1044C87.0588 62.0087 90.2399 62.6381 93.3161 62.5639C94.4287 62.631 95.5466 62.748 96.6611 62.9139C98.4425 63.0396 100.189 63.0392 101.964 63.1982C103.74 63.3571 105.578 63.647 107.355 63.9603C108.021 64.0122 108.684 64.0435 109.342 64.0538C110.221 64.1059 111.105 64.1248 112.005 64.215C114.675 64.6508 117.36 64.9235 120.02 65.0288C122.432 64.9915 124.938 65.5533 127.33 65.4613C127.989 65.4494 128.665 65.4994 129.336 65.6095C134.017 66.2072 138.699 66.5221 143.313 66.5495C143.527 66.5429 143.752 66.5826 143.951 66.6621C144.308 66.848 144.637 67.0553 144.93 67.28C145.231 67.5215 144.775 68.1605 144.406 68.301C143.836 68.4409 143.233 68.5412 142.607 68.6004C142.173 68.6173 141.723 68.5844 141.279 68.5032L135.261 67.5621C134.332 67.3819 133.391 67.2678 132.459 67.222C130.46 67.1949 128.455 66.8757 126.445 66.7441C122.898 66.5746 119.329 66.2544 115.764 65.7857C115.097 65.7176 114.432 65.6863 113.777 65.6921C113.347 65.7088 112.907 65.7001 112.465 65.6663C108.449 65.061 104.449 64.8525 100.451 64.4729C98.2263 64.1469 95.9943 63.9893 93.8066 64.0035C91.3515 63.6869 88.8958 63.5236 86.478 63.5163C80.2557 63.0871 74.0406 62.7791 67.8678 62.7184C65.6684 62.6903 63.4326 62.3817 61.2172 62.2822C58.5737 62.1758 55.9023 62.0644 53.2777 62.0127C50.6531 61.961 47.9628 61.7949 45.3104 61.7383C39.7857 61.5617 34.3014 61.5608 28.8788 61.7356C27.873 61.7737 26.8197 61.6411 25.8261 61.3515C25.2839 61.1627 24.8131 60.8899 24.4696 60.5652C24.126 60.2406 23.9241 59.8777 23.8876 59.5196C23.9534 59.3085 24.0558 59.0525 24.1304 58.7916ZM45.0978 59.6969L43.3253 59.5213C42.7977 59.4283 42.3827 59.5093 42.4484 59.6236C42.5141 59.738 43.0489 59.9522 43.5019 59.9807C43.8156 60.0088 44.1232 59.9956 44.4042 59.9417C44.6852 59.8879 44.9332 59.7948 45.1315 59.6685C45.659 59.7615 46.2698 59.8692 46.6835 59.6339C46.5169 59.6045 46.343 59.454 46.2013 59.4461C45.9866 59.43 45.7778 59.4446 45.5913 59.489C45.4047 59.5333 45.2453 59.6061 45.1256 59.7018L45.0978 59.6969ZM143.83 62.1532C143.848 62.0535 143.871 61.9207 143.63 61.8268C143.366 61.6708 143.064 61.5443 142.74 61.4548C142.416 61.3654 142.078 61.3148 141.746 61.3062C139.081 61.1554 136.402 60.889 133.728 60.509C130.624 59.9625 127.492 59.6344 124.396 59.5315C123.734 59.5146 123.064 59.4481 122.399 59.3335C120.18 58.9636 117.944 58.7651 115.747 58.7429C113.569 58.7529 111.317 58.373 109.109 58.3947C106.901 58.4164 104.735 58.36 102.536 58.3318C100.366 58.405 98.143 58.3176 95.9118 58.0716C94.3557 57.9632 92.8175 57.9679 91.3289 58.0856C90.6421 58.0844 90.5543 58.2574 91.0307 58.4784C91.2354 58.5451 91.454 58.5837 91.6692 58.591C94.7862 58.9351 97.8668 58.9987 100.957 59.1668C104.726 59.386 108.483 59.6717 112.277 59.9124C116.071 60.1531 119.394 60.465 122.943 60.6284C124.924 60.7113 126.921 60.9029 128.911 61.2012C129.841 61.3587 130.775 61.4833 131.708 61.5745C133.487 61.7168 135.249 61.7877 137.025 61.9466C138.8 62.1056 140.58 62.4023 142.377 62.5993C142.812 62.616 143.23 62.5727 143.602 62.4727C143.669 62.416 143.726 62.2548 143.858 62.1581L143.83 62.1532ZM73.4447 57.8782C73.9445 57.9663 74.2777 58.0251 74.3128 57.8257C74.348 57.6264 74.0279 57.6556 73.8365 57.6047C73.6451 57.5538 73.0036 57.4579 72.9684 57.6572C72.9333 57.8565 73.2869 57.799 73.4447 57.8782ZM85.6207 58.3124C85.9988 58.4084 86.3961 58.4173 86.7328 58.3372C86.6552 58.2208 86.5242 58.1161 86.3583 58.0377C86.1924 57.9593 85.9999 57.9111 85.8079 57.9C85.2804 57.807 85.0349 57.9008 85.1722 58.0962C85.3095 58.2917 85.4366 58.3827 85.6032 58.412L85.6207 58.3124ZM37.9605 59.5859L38.3536 59.7923L38.3829 59.6261L37.9605 59.5859ZM48.4146 57.2843L47.8695 57.2909L48.3795 57.4836L48.4146 57.2843ZM53.8918 57.3937L53.2882 57.4071L53.8259 57.6047L53.8918 57.3937ZM68.9101 57.7809L68.9424 57.5982L68.4148 57.5051L68.9101 57.7809Z" fill="#5C7EE6"/>
</svg>
