<svg width="12" height="12" viewBox="0 0 12 12" fill="none" xmlns="http://www.w3.org/2000/svg">
<g clip-path="url(#clip0_319_2329)">
<path d="M6.0061 12C2.6977 12 0.00610352 9.3084 0.00610352 6C0.00610352 2.6916 2.6977 0 6.0061 0C9.3145 0 12.0061 2.6916 12.0061 6C12.0061 9.3084 9.3145 12 6.0061 12ZM6.0061 0.4C2.9183 0.4 0.406104 2.9122 0.406104 6C0.406104 9.0878 2.9183 11.6 6.0061 11.6C9.0939 11.6 11.6061 9.0878 11.6061 6C11.6061 2.9122 9.0939 0.4 6.0061 0.4Z" fill="#505083"/>
<path d="M6.68521 10.2812C6.41341 10.2812 6.15761 10.1176 6.05161 9.8524L5.83241 9.3044C5.82101 9.2762 5.81161 9.2468 5.80401 9.2168L5.42481 7.6998C5.41981 7.6798 5.41261 7.6606 5.40341 7.6422L5.19981 7.2352C5.14041 7.1162 5.00901 7.0566 4.87961 7.0878L4.68601 7.1362C4.48061 7.1874 4.25961 7.1394 4.09461 7.0072L3.46161 6.501C3.29901 6.3706 3.20581 6.1766 3.20581 5.9686V5.7544C3.20581 5.6114 3.24981 5.4746 3.33281 5.3584L4.09901 4.2858C4.22681 4.1068 4.43421 4.0002 4.65381 4.0002H5.07241C5.19641 4.0002 5.31781 4.034 5.42341 4.0976L6.14881 4.5328C6.20901 4.5692 6.28021 4.5816 6.34901 4.5676L6.78281 4.4806C7.09741 4.4176 7.41701 4.586 7.54321 4.8808L7.92781 5.7782C7.95101 5.8322 7.99141 5.8786 8.04161 5.9084L8.43561 6.145C8.60421 6.2462 8.72101 6.4154 8.75581 6.6088C8.79061 6.8026 8.74001 7.0018 8.61721 7.1554L8.26721 7.593C8.22741 7.6428 8.20541 7.7054 8.20541 7.769V8.4004C8.20541 8.58 8.13261 8.7558 8.00561 8.8826L7.78881 9.0994C7.77241 9.1158 7.75821 9.134 7.74641 9.1536L7.26861 9.95C7.18501 10.0892 7.05401 10.1944 6.89981 10.2458C6.82921 10.27 6.75661 10.2812 6.68521 10.2812ZM4.95081 6.679C5.20401 6.679 5.43961 6.82 5.55781 7.0564L5.76141 7.4634C5.78361 7.5078 5.80101 7.5548 5.81301 7.603L6.19221 9.12C6.19521 9.1322 6.19921 9.144 6.20381 9.1556L6.42321 9.7042C6.47861 9.8422 6.63221 9.9136 6.77401 9.8668C6.83761 9.8454 6.89181 9.802 6.92661 9.7442L7.40421 8.948C7.43281 8.9006 7.46721 8.8564 7.50661 8.817L7.72361 8.5998C7.77621 8.5474 7.80621 8.4748 7.80621 8.4006V7.7692C7.80621 7.615 7.85921 7.464 7.95561 7.3434L8.30581 6.9058C8.35741 6.8414 8.37761 6.7612 8.36321 6.68C8.34861 6.5988 8.30161 6.5306 8.23081 6.4882L7.83701 6.2518C7.71361 6.178 7.61821 6.0688 7.56121 5.936L7.17641 5.0384C7.12421 4.9166 6.99221 4.8474 6.86221 4.873L6.42821 4.96C6.26141 4.9938 6.08941 4.9634 5.94361 4.876L5.21781 4.4406C5.17401 4.4142 5.12401 4.4004 5.07281 4.4004H4.65421C4.56341 4.4004 4.47781 4.4446 4.42501 4.5184L3.65881 5.591C3.62441 5.639 3.60621 5.6956 3.60621 5.7546V5.9688C3.60621 6.0548 3.64481 6.135 3.71201 6.189L4.34481 6.695C4.41301 6.7496 4.50461 6.77 4.58941 6.7484L4.78281 6.7002C4.83881 6.6858 4.89521 6.679 4.95081 6.679Z" fill="#505083"/>
<path d="M9.00617 10C8.95337 10 8.90257 9.97921 8.86477 9.94141L8.46477 9.54141C8.41757 9.49421 8.39697 9.42641 8.41017 9.36081L8.61017 8.36081C8.61797 8.32221 8.63697 8.28661 8.66477 8.25861L9.26477 7.65861C9.31697 7.60641 9.39377 7.58701 9.46417 7.60861C9.53477 7.62981 9.58777 7.68841 9.60217 7.76081L9.80217 8.76081C9.81197 8.80961 9.80317 8.86021 9.77757 8.90301L9.17757 9.90301C9.14597 9.95581 9.09157 9.99101 9.03057 9.99861C9.02237 9.99941 9.01417 10 9.00617 10ZM8.82317 9.33421L8.96637 9.47761L9.39477 8.76361L9.28317 8.20581L8.99017 8.49881L8.82317 9.33421Z" fill="#505083"/>
<path d="M11.2052 5.5564C10.891 5.5564 10.6098 5.3408 10.5302 5.0254C10.4832 4.839 10.4244 4.6792 10.3558 4.55C10.3122 4.468 10.2338 4.4156 10.1404 4.406C10.0382 4.3958 9.9386 4.4374 9.8724 4.5174C9.4698 5.004 9.0776 5.229 8.7056 5.187C8.2548 5.1354 8.036 4.7078 8.0268 4.6896C7.1 2.8358 5.4442 2.996 5.4278 2.999C5.4204 2.9998 5.4132 3.0002 5.4058 3.0002C5.2946 3.0002 5.1712 3.027 5.0394 3.0796C4.5974 3.2564 4.109 3.1238 3.824 2.7498C3.5448 2.383 3.5464 1.9062 3.8282 1.5354L3.8514 1.5052C3.9918 1.3248 4.2066 1.21 4.4402 1.191C5.1942 1.1298 5.7548 0.767001 6.1066 0.112601C6.143 0.044801 6.2154 0.00340099 6.2922 0.00760099C9.2118 0.144801 11.5944 2.3488 11.9574 5.2482C11.9704 5.3526 11.9004 5.4494 11.797 5.4692C11.6352 5.5006 11.4668 5.528 11.2964 5.5506C11.2658 5.5544 11.2352 5.5564 11.2052 5.5564ZM10.1096 4.0044C10.1334 4.0044 10.1572 4.0058 10.181 4.0082C10.4094 4.0314 10.6018 4.1606 10.709 4.3622C10.7928 4.5198 10.8632 4.71 10.918 4.9274C10.9556 5.0762 11.0954 5.1738 11.2434 5.154C11.3412 5.141 11.4384 5.1262 11.5338 5.1102C11.1246 2.5372 9.0014 0.592201 6.3954 0.414001C6.0882 0.926801 5.5144 1.5048 4.4728 1.5896C4.3506 1.5996 4.2392 1.6584 4.167 1.7512L4.1472 1.7768C3.9404 2.0488 4.0094 2.3324 4.1424 2.5074C4.2772 2.6844 4.554 2.8434 4.891 2.7082C5.0666 2.638 5.2364 2.6018 5.3958 2.6002C5.4766 2.5928 5.9312 2.5646 6.4964 2.7614C7.056 2.9562 7.838 3.4176 8.3846 4.5108C8.3852 4.5122 8.5184 4.7648 8.7534 4.79C8.9792 4.8182 9.2588 4.632 9.5642 4.2626C9.7004 4.098 9.9002 4.0044 10.1096 4.0044Z" fill="#505083"/>
<path d="M0.72416 5.60001H0.23696C0.18036 5.60001 0.12636 5.57601 0.0885604 5.53401C0.0507604 5.49201 0.0323603 5.43601 0.0381603 5.37961C0.15376 4.25541 0.58576 3.18921 1.28796 2.29601C1.34656 2.22141 1.44956 2.19821 1.53456 2.24081L2.28536 2.61621C2.59916 2.77321 2.82116 3.07361 2.87876 3.41981L2.89416 3.51121C2.97396 3.99081 2.73556 4.45921 2.30076 4.67661L1.90956 4.87221C1.80076 4.92661 1.70756 5.00901 1.63996 5.11021C1.43536 5.41681 1.09316 5.60001 0.72416 5.60001ZM0.46296 5.20001H0.72416C0.95896 5.20001 1.17696 5.08341 1.30716 4.88801C1.41316 4.72881 1.55976 4.59961 1.73076 4.51401L2.12196 4.31841C2.39876 4.18021 2.55056 3.88181 2.49976 3.57661L2.48436 3.48521V3.48501C2.44756 3.26461 2.30636 3.07361 2.10656 2.97361L1.50376 2.67221C0.95076 3.41901 0.59396 4.28581 0.46296 5.20001Z" fill="#505083"/>
<path d="M2.4525 10.7822C2.4087 10.7822 2.3655 10.768 2.3297 10.7402C1.0193 9.72221 0.181704 8.19501 0.0321044 6.55021C0.0241044 6.46381 0.0729044 6.38241 0.152504 6.34821L0.361904 6.25841C0.780904 6.07881 1.2599 6.17121 1.5823 6.49361L1.9529 6.86421C2.0521 6.96341 2.1773 7.03041 2.3149 7.05801C2.8313 7.16141 3.2059 7.61841 3.2059 8.14501V8.20041C3.2059 8.50181 3.1177 8.79341 2.9505 9.04381C2.8515 9.19221 2.7889 9.36461 2.7691 9.54161L2.6511 10.6044C2.6431 10.6762 2.5969 10.7384 2.5303 10.7666C2.5053 10.777 2.4789 10.7822 2.4525 10.7822ZM0.445504 6.65781C0.605504 8.01761 1.2689 9.28121 2.2947 10.1914L2.3717 9.49721C2.3985 9.25681 2.4835 9.02321 2.6177 8.82161C2.7409 8.63701 2.8059 8.42221 2.8059 8.20021V8.14481C2.8059 7.80821 2.5665 7.51601 2.2363 7.45001C2.0209 7.40701 1.8249 7.30221 1.6699 7.14681L1.2993 6.77621C1.0931 6.57041 0.787104 6.51121 0.519304 6.62581L0.445504 6.65781Z" fill="#505083"/>
</g>
<defs>
<clipPath id="clip0_319_2329">
<rect width="12" height="12" fill="white"/>
</clipPath>
</defs>
</svg>
