<svg width="27" height="27" viewBox="0 0 27 27" fill="none" xmlns="http://www.w3.org/2000/svg">
<g clip-path="url(#clip0_888_9500)">
<path d="M26 13.5C26 20.4043 20.4043 26 13.5 26C6.5957 26 1 20.4043 1 13.5C1 6.5957 6.5957 1 13.5 1C20.4043 1 26 6.5957 26 13.5Z" fill="#1B1C30"/>
<path d="M9.42773 19.1836H7.92383V8.72461H9.42773V13.4512V19.1836Z" fill="#FEEECD"/>
<path d="M11.6348 8.72461H15.6973C19.5645 8.72461 21.2637 11.4883 21.2637 13.959C21.2637 16.6445 19.1641 19.1934 15.7168 19.1934H11.6348V8.72461ZM13.1387 17.8359H15.5313C18.9395 17.8359 19.7207 15.248 19.7207 13.959C19.7207 11.8594 18.3828 10.082 15.4531 10.082H13.1387V17.8359Z" fill="#FEEECD"/>
<path d="M9.66211 6.54687C9.66211 7.08398 9.22266 7.5332 8.67578 7.5332C8.12891 7.5332 7.68945 7.08398 7.68945 6.54687C7.68945 6 8.12891 5.56055 8.67578 5.56055C9.22266 5.56055 9.66211 6.00977 9.66211 6.54687Z" fill="#FEEECD"/>
</g>
<defs>
<clipPath id="clip0_888_9500">
<rect width="25" height="25" fill="white" transform="translate(1 1)"/>
</clipPath>
</defs>
</svg>
