<svg width="2" height="3" viewBox="0 0 2 3" fill="none" xmlns="http://www.w3.org/2000/svg">
<path d="M1.82031 1.54556C1.76413 1.48548 1.69671 1.43087 1.62367 1.39264C1.54502 1.35441 1.46636 1.33256 1.37647 1.3271V1.32164C1.52254 1.27249 1.64053 1.20149 1.73604 1.09773C1.82593 0.993963 1.87649 0.86289 1.87649 0.704511C1.87649 0.584362 1.85402 0.480597 1.80907 0.393216C1.76413 0.305834 1.70233 0.229376 1.62367 0.174763C1.54502 0.120149 1.45512 0.0764586 1.34838 0.0436906C1.24163 0.016384 1.12365 0 1.00005 0H0V2.80166H0.98881C1.12927 2.80166 1.2641 2.78528 1.38209 2.75251C1.50569 2.71974 1.61244 2.67059 1.70233 2.59959C1.79222 2.53406 1.86526 2.45214 1.92144 2.35383C1.972 2.25553 2.00009 2.1463 2.00009 2.02069C2.00009 1.92785 1.98324 1.83501 1.94953 1.75309C1.92144 1.67663 1.87649 1.60563 1.82031 1.54556ZM0.387659 0.333141H1.00005C1.15736 0.333141 1.27534 0.376831 1.34838 0.458751C1.42141 0.540671 1.46074 0.638976 1.46074 0.748203C1.46074 0.824662 1.44389 0.890196 1.4158 0.944809C1.38771 0.999423 1.34838 1.04311 1.29781 1.07588C1.24725 1.10865 1.19107 1.13596 1.12927 1.14688C1.06185 1.16326 0.994429 1.16872 0.921392 1.16872H0.387659V0.333141ZM1.52254 2.23915C1.4776 2.29922 1.42703 2.34837 1.36523 2.38114C1.30343 2.41937 1.23601 2.44122 1.16298 2.45214C1.08994 2.46306 1.02252 2.46852 0.966338 2.46852H0.393277V1.49641H0.971955C1.16298 1.49641 1.31467 1.5401 1.42703 1.62202C1.5394 1.70394 1.59558 1.82955 1.59558 1.99885C1.58434 2.09715 1.56187 2.17907 1.52254 2.23915Z" fill="#7474B8"/>
</svg>
