<svg width="107" height="117" viewBox="0 0 107 117" fill="none" xmlns="http://www.w3.org/2000/svg">
<path d="M43.086 81.1286C39.7775 82.4815 37.0076 84.1168 32.3985 87.4684L28.3686 90.6359C27.3762 91.2531 26.3572 91.8971 26.814 93.1104C26.5462 94.0254 27.6293 94.7953 28.1471 95.3103C29.0168 96.0904 30.5301 98.1003 33.0586 101.372C35.0688 104.13 36.7683 106.156 38.3422 107.467C40.289 108.811 42.064 105.68 40.5303 103.904C39.1424 102.609 37.4229 100.816 35.3918 98.291L33.8787 96.2812C34.2307 96.5466 35.1618 96.6281 36.4657 96.7421L39.4454 97.0028C43.8944 97.6269 47.6185 97.9527 50.6188 97.9804C59.8251 97.8473 66.628 95.1569 71.1936 90.1589C83.3828 77.3795 81.0587 56.7589 73.6917 40.1563C69.7494 31.5976 64.7537 24.3549 58.7043 18.428C52.4692 12.4848 46.1755 9.3527 39.9894 9.28096C37.7346 9.3183 37.7401 13.5431 39.995 13.5058C45.4362 13.5123 50.819 16.3302 56.5366 21.7586C62.2541 27.187 67.0839 34.1805 70.6946 42.2409C73.2055 47.8583 74.9919 53.1774 75.8269 58.6481C77.331 69.3401 75.6284 80.2213 69.2035 87.1689C65.2577 91.517 59.0541 93.7906 50.613 93.7562C47.7994 93.7451 44.2611 93.4355 39.9983 92.8275C38.3224 92.6809 34.432 92.1057 32.9424 91.9754C37.9645 88.1907 41.5409 85.922 43.8774 84.9531C46.1938 84.2166 45.2364 80.1434 43.086 81.1286Z" fill="#5C7EE6"/>
</svg>
