<svg width="27" height="27" viewBox="0 0 27 27" fill="none" xmlns="http://www.w3.org/2000/svg">
<path d="M21.0972 7.75949L16.8522 3.55826C16.8083 3.51444 16.7481 3.50349 16.6878 3.50896C16.6769 3.50896 16.6714 3.49801 16.6659 3.49801H7.08033C6.40112 3.49801 5.84789 4.05124 5.84789 4.73044V22.2694C5.84789 22.9486 6.40112 23.5018 7.08033 23.5018H19.9305C20.6097 23.5018 21.163 22.9486 21.163 22.2694V7.91286C21.163 7.90739 21.1575 7.90191 21.1575 7.89643C21.1465 7.84713 21.1301 7.80331 21.0972 7.75949C21.0972 7.76497 21.0972 7.76497 21.0972 7.75949ZM16.9069 4.21008L20.429 7.69924H17.1808C17.0987 7.69924 17.022 7.66638 16.9617 7.60612C16.9015 7.54587 16.8741 7.46919 16.8741 7.38703L16.9069 4.21008ZM20.7357 22.2694C20.7357 22.713 20.3742 23.08 19.925 23.08H7.07485C6.6257 23.08 6.26418 22.7185 6.26418 22.2694V4.73044C6.26418 4.28129 6.6257 3.91978 7.07485 3.91978H16.4907L16.4578 7.38703C16.4578 7.58422 16.529 7.77045 16.6714 7.90739C16.8083 8.04432 16.9946 8.12101 17.1918 8.12101H20.7412V22.2694H20.7357Z" fill="#7474B8"/>
<path d="M12.3443 17.8928C12.2128 17.7614 12.0594 17.6573 11.8842 17.5806C11.7034 17.5039 11.5062 17.4656 11.2926 17.4656C11.079 17.4656 10.8818 17.5039 10.701 17.5806C10.5203 17.6573 10.3669 17.7614 10.2409 17.8928C10.1149 18.0243 10.0109 18.1832 9.93965 18.3639C9.86844 18.5447 9.8301 18.7364 9.8301 18.95C9.8301 19.1581 9.86844 19.3553 9.93965 19.5361C10.0109 19.7169 10.1149 19.8702 10.2409 20.0072C10.3669 20.1386 10.5257 20.2427 10.701 20.3194C10.8818 20.3961 11.079 20.4344 11.2926 20.4344C11.5062 20.4344 11.7034 20.3961 11.8842 20.3194C12.0649 20.2427 12.2183 20.1386 12.3443 20.0072C12.4702 19.8757 12.5743 19.7169 12.6455 19.5361C12.7167 19.3553 12.7551 19.1636 12.7551 18.95C12.7551 18.7419 12.7167 18.5447 12.6455 18.3639C12.5743 18.1832 12.4757 18.0243 12.3443 17.8928ZM12.2785 19.3772C12.2292 19.5142 12.158 19.6347 12.0649 19.7333C11.9718 19.8319 11.8622 19.914 11.7308 19.9743C11.5993 20.0345 11.4569 20.0619 11.2926 20.0619C11.1337 20.0619 10.9858 20.0345 10.8544 19.9743C10.7229 19.914 10.6134 19.8319 10.5203 19.7333C10.4271 19.6347 10.3559 19.5142 10.3066 19.3772C10.2573 19.2403 10.23 19.0979 10.23 18.9445C10.23 18.7912 10.2573 18.6487 10.3066 18.5118C10.3559 18.3749 10.4271 18.2544 10.5203 18.1558C10.6134 18.0572 10.7229 17.975 10.8544 17.9148C10.9858 17.8545 11.1283 17.8271 11.2926 17.8271C11.4569 17.8271 11.5993 17.8545 11.7308 17.9148C11.8622 17.975 11.9718 18.0572 12.0649 18.1558C12.158 18.2544 12.2292 18.3749 12.2785 18.5118C12.3278 18.6487 12.3552 18.7912 12.3552 18.9445C12.3497 19.0979 12.3278 19.2403 12.2785 19.3772Z" fill="#7474B8"/>
<path d="M15.0829 19.0869C15.0281 19.0267 14.9624 18.9719 14.8912 18.9336C14.8145 18.8952 14.7378 18.8733 14.6502 18.8678V18.8624C14.7926 18.8131 14.9076 18.7418 15.0007 18.6378C15.0884 18.5337 15.1377 18.4022 15.1377 18.2434C15.1377 18.1229 15.1157 18.0188 15.0719 17.9312C15.0281 17.8435 14.9679 17.7669 14.8912 17.7121C14.8145 17.6573 14.7268 17.6135 14.6228 17.5806C14.5187 17.5532 14.4037 17.5368 14.2832 17.5368H13.3082V20.3467H14.2722C14.4091 20.3467 14.5406 20.3303 14.6556 20.2975C14.7761 20.2646 14.8802 20.2153 14.9679 20.1441C15.0555 20.0784 15.1267 19.9962 15.1815 19.8976C15.2308 19.799 15.2582 19.6895 15.2582 19.5635C15.2582 19.4704 15.2417 19.3772 15.2089 19.2951C15.1815 19.2184 15.1377 19.1472 15.0829 19.0869ZM13.6861 17.8709H14.2832C14.4365 17.8709 14.5516 17.9147 14.6228 17.9969C14.694 18.0791 14.7323 18.1777 14.7323 18.2872C14.7323 18.3639 14.7159 18.4296 14.6885 18.4844C14.6611 18.5392 14.6228 18.583 14.5735 18.6159C14.5242 18.6487 14.4694 18.6761 14.4091 18.6871C14.3434 18.7035 14.2777 18.709 14.2065 18.709H13.6861V17.8709ZM14.7926 19.7826C14.7488 19.8428 14.6995 19.8921 14.6392 19.925C14.579 19.9633 14.5132 19.9852 14.442 19.9962C14.3708 20.0071 14.3051 20.0126 14.2503 20.0126H13.6916V19.0376H14.2558C14.442 19.0376 14.5899 19.0814 14.6995 19.1636C14.809 19.2458 14.8638 19.3718 14.8638 19.5416C14.8528 19.6402 14.8309 19.7223 14.7926 19.7826Z" fill="#7474B8"/>
<path d="M16.6823 19.4265C16.6823 19.5032 16.6768 19.5854 16.6659 19.6621C16.6549 19.7388 16.633 19.8045 16.6002 19.8647C16.5673 19.925 16.5235 19.9743 16.4687 20.0126C16.4139 20.051 16.3372 20.0674 16.2386 20.0674C16.1346 20.0674 16.0469 20.0345 15.9812 19.9743C15.9155 19.914 15.8717 19.8319 15.8497 19.7223L15.4773 19.8045C15.5156 20.0126 15.6033 20.166 15.7347 20.2646C15.8717 20.3687 16.036 20.418 16.2386 20.418C16.3153 20.418 16.403 20.407 16.5016 20.3796C16.5947 20.3522 16.6878 20.3084 16.77 20.2427C16.8521 20.177 16.9233 20.0893 16.9781 19.9743C17.0329 19.8593 17.0603 19.7169 17.0603 19.5416V17.5313H16.6768V19.4265H16.6823Z" fill="#7474B8"/>
<path d="M16.5838 14.5845C16.6002 14.568 16.6057 14.5516 16.6167 14.5297C16.6276 14.5078 16.6386 14.4913 16.6386 14.4694C16.6386 14.464 16.6441 14.464 16.6441 14.4585V9.76975C16.6441 9.74784 16.6276 9.73688 16.6222 9.72045C16.6167 9.70402 16.6222 9.68211 16.6112 9.67115C16.6112 9.66567 16.6057 9.66567 16.6057 9.6602C16.5893 9.64376 16.5729 9.63829 16.551 9.62733C16.529 9.61638 16.5126 9.60542 16.4907 9.60542C16.4852 9.60542 16.4852 9.59994 16.4797 9.59994H11.791C11.7691 9.59994 11.7581 9.61638 11.7417 9.62185C11.7253 9.62733 11.7034 9.62185 11.6924 9.63281L10.4271 10.5585C10.4216 10.564 10.4216 10.5695 10.4216 10.5695C10.4052 10.5859 10.3997 10.6023 10.3888 10.6242C10.3778 10.6461 10.3669 10.6626 10.3669 10.6845C10.3669 10.69 10.3614 10.69 10.3614 10.6954V15.3842C10.3614 15.4061 10.3778 15.417 10.3833 15.4335C10.3888 15.4499 10.3833 15.4718 10.3943 15.4828C10.3997 15.4882 10.4052 15.4882 10.4107 15.4937C10.4162 15.4992 10.4216 15.5047 10.4271 15.5102C10.46 15.5375 10.4983 15.554 10.5367 15.554H15.2254C15.2583 15.554 15.2966 15.543 15.324 15.5211L16.5783 14.5954C16.5838 14.5954 16.5783 14.5899 16.5838 14.5845ZM11.6157 10.1094V10.5256H11.0516L11.6157 10.1094ZM10.6955 10.8652H11.6157V14.3708L10.6955 15.0446V10.8652ZM15.0392 15.2089H11.0516L11.8458 14.6283H15.0446V15.2089H15.0392ZM15.0392 14.2887H11.9608V10.8707H15.0392V14.2887ZM15.1542 10.5202H11.9553V9.93955H15.9429L15.1542 10.5202ZM15.3842 15.0446V14.6338H15.9484L15.3842 15.0446ZM16.3045 14.2887H15.3842V10.7831L16.3045 10.1094V14.2887Z" fill="#7474B8"/>
<rect x="0.179029" y="0.178936" width="26.6419" height="26.6419" rx="3.175" stroke="#7474B8" stroke-width="0.35" stroke-linejoin="round"/>
</svg>
