<svg width="5" height="5" viewBox="0 0 5 5" fill="none" xmlns="http://www.w3.org/2000/svg">
<path d="M4.95202 3.85606C4.96509 3.84335 4.96945 3.83064 4.97817 3.81369C4.98689 3.79674 4.99561 3.78402 4.99561 3.76707C4.99561 3.76284 4.99997 3.76284 4.99997 3.7586V0.131361C4.99997 0.114411 4.98689 0.105936 4.98253 0.0932239C4.97817 0.0805116 4.98253 0.0635619 4.97381 0.055087C4.97381 0.0508496 4.96945 0.0508494 4.96945 0.046612C4.95638 0.0338997 4.9433 0.0296625 4.92586 0.0211876C4.90843 0.0127128 4.89535 0.00423752 4.87791 0.00423752C4.87355 0.00423752 4.87355 0 4.86919 0H1.13774C1.12031 0 1.11159 0.0127127 1.09851 0.0169501C1.08543 0.0211875 1.068 0.0169503 1.05928 0.0254252L0.0523096 0.74155C0.0479504 0.745787 0.0479503 0.750025 0.0479503 0.750025C0.0348728 0.762737 0.0305139 0.77545 0.0217955 0.792399C0.0130772 0.809349 0.00435927 0.822062 0.00435927 0.839011C0.00435927 0.843249 0 0.843248 0 0.847486V4.47472C0 4.49167 0.0130771 4.50015 0.0174363 4.51286C0.0217954 4.52557 0.0174364 4.54252 0.0261548 4.551C0.030514 4.55524 0.0348734 4.55524 0.0392326 4.55947C0.0435918 4.56371 0.0479504 4.56795 0.0523096 4.57219C0.0784646 4.59337 0.108979 4.60608 0.139493 4.60608H3.87094C3.8971 4.60608 3.92761 4.59761 3.94941 4.58066L4.94766 3.86453C4.95202 3.86453 4.94766 3.8603 4.95202 3.85606ZM0.99825 0.394081V0.716126H0.549256L0.99825 0.394081ZM0.265909 0.978846H0.99825V3.6908L0.265909 4.212V0.978846ZM3.72273 4.33913H0.549256L1.18133 3.88996H3.72709V4.33913H3.72273ZM3.72273 3.62724H1.27288V0.983084H3.72273V3.62724ZM3.81427 0.711888H1.26852V0.262721H4.44199L3.81427 0.711888ZM3.99736 4.212V3.8942H4.44635L3.99736 4.212ZM4.7297 3.62724H3.99736V0.915285L4.7297 0.394081V3.62724Z" fill="#7474B8"/>
</svg>
