<svg width="28" height="27" viewBox="0 0 28 27" fill="none" xmlns="http://www.w3.org/2000/svg">
<path d="M26.4971 10.8996L26.4607 10.8065L22.935 1.60538C22.8633 1.42504 22.7363 1.27206 22.5722 1.16839C22.408 1.06647 22.2166 1.01739 22.0236 1.02776C21.8306 1.03813 21.6455 1.10746 21.4932 1.22638C21.3426 1.34872 21.2333 1.51449 21.1803 1.70114L18.7998 8.98438H9.16026L6.77972 1.70114C6.72809 1.51348 6.6186 1.34687 6.46681 1.22503C6.31451 1.10611 6.12938 1.03678 5.93643 1.02641C5.74348 1.01604 5.55199 1.06512 5.38781 1.16704C5.22411 1.27113 5.09721 1.42398 5.025 1.60403L1.49263 10.8011L1.45756 10.8942C0.95003 12.2203 0.887384 13.6755 1.27907 15.0403C1.67075 16.4051 2.49553 17.6056 3.62905 18.4607L3.64118 18.4701L3.67355 18.4931L9.04427 22.515L11.7013 24.526L13.3198 25.748C13.5091 25.8917 13.7403 25.9695 13.978 25.9695C14.2157 25.9695 14.4469 25.8917 14.6362 25.748L16.2547 24.526L18.9117 22.515L24.3148 18.4688L24.3283 18.458C25.4593 17.6027 26.2821 16.4035 26.6732 15.0405C27.0643 13.6775 27.0025 12.2244 26.4971 10.8996Z" fill="#1B1C30"/>
<path d="M26.4971 10.8996L26.4607 10.8065C24.7427 11.1592 23.1239 11.8868 21.7198 12.9376L13.9766 18.7925C16.6134 20.7873 18.909 22.5204 18.909 22.5204L24.3121 18.4742L24.3256 18.4634C25.4582 17.6081 26.2823 16.4081 26.6739 15.044C27.0656 13.6798 27.0035 12.2254 26.4971 10.8996Z" fill="#282845"/>
<path d="M9.04427 22.5204L11.7013 24.5314L13.3198 25.7534C13.5091 25.8971 13.7403 25.9749 13.978 25.9749C14.2157 25.9749 14.4469 25.8971 14.6362 25.7534L16.2547 24.5314L18.9117 22.5204C18.9117 22.5204 16.6134 20.7819 13.9766 18.7925C11.3398 20.7819 9.04427 22.5204 9.04427 22.5204Z" fill="#282845"/>
<path d="M6.23213 12.9376C4.82915 11.8847 3.21067 11.1551 1.49263 10.8011L1.45756 10.8942C0.95003 12.2203 0.887384 13.6755 1.27907 15.0403C1.67075 16.4051 2.49553 17.6056 3.62905 18.4607L3.64118 18.4701L3.67355 18.4931L9.04427 22.515C9.04427 22.515 11.3371 20.7819 13.9766 18.7871L6.23213 12.9376Z" fill="#282845"/>
</svg>
