<svg width="92" height="12" viewBox="0 0 92 12" fill="none" xmlns="http://www.w3.org/2000/svg">
<path d="M6.98256 0.63674V1.73253H4.17179V10.9579H2.82557V1.73253H0V0.63674H6.98256ZM12.1751 11.0911C11.4157 11.0911 10.7253 10.9184 10.104 10.5729C9.49254 10.2273 9.00929 9.73868 8.65424 9.10687C8.30906 8.4652 8.13647 7.7248 8.13647 6.88568C8.13647 6.05644 8.31399 5.32591 8.66904 4.69411C9.03394 4.05243 9.52706 3.56377 10.1484 3.22813C10.7697 2.88261 11.465 2.70985 12.2343 2.70985C13.0035 2.70985 13.6988 2.88261 14.3202 3.22813C14.9415 3.56377 15.4297 4.0475 15.7847 4.67931C16.1496 5.31111 16.3321 6.04657 16.3321 6.88568C16.3321 7.7248 16.1447 8.4652 15.7699 9.10687C15.405 9.73868 14.907 10.2273 14.2758 10.5729C13.6446 10.9184 12.9444 11.0911 12.1751 11.0911ZM12.1751 9.9065C12.6584 9.9065 13.112 9.79297 13.5361 9.56591C13.9602 9.33886 14.3005 8.99829 14.5569 8.54418C14.8232 8.09007 14.9563 7.53723 14.9563 6.88568C14.9563 6.23413 14.8281 5.68131 14.5717 5.2272C14.3152 4.77309 13.9799 4.43743 13.5657 4.22025C13.1515 3.99319 12.7027 3.87968 12.2195 3.87968C11.7264 3.87968 11.2727 3.99319 10.8585 4.22025C10.4541 4.43743 10.1287 4.77309 9.88211 5.2272C9.63555 5.68131 9.51227 6.23413 9.51227 6.88568C9.51227 7.5471 9.63062 8.10487 9.86731 8.55898C10.1139 9.01309 10.4393 9.35368 10.8437 9.58073C11.248 9.79792 11.6918 9.9065 12.1751 9.9065ZM19.7445 3.95372V8.73667C19.7445 9.13155 19.8283 9.41291 19.996 9.58073C20.1636 9.73868 20.4546 9.81766 20.8688 9.81766H21.86V10.9579H20.6469C19.8973 10.9579 19.3352 10.7851 18.9604 10.4396C18.5857 10.0941 18.3983 9.52643 18.3983 8.73667V3.95372H17.3479V2.84312H18.3983V0.799622H19.7445V2.84312H21.86V3.95372H19.7445ZM22.988 6.87088C22.988 6.04164 23.1556 5.31604 23.4909 4.69411C23.8263 4.0623 24.2849 3.57364 24.8667 3.22813C25.4585 2.88261 26.1143 2.70985 26.8343 2.70985C27.5444 2.70985 28.1608 2.86287 28.6835 3.1689C29.2062 3.47493 29.5958 3.85992 29.8522 4.3239V2.84312H31.2132V10.9579H29.8522V9.44746C29.5859 9.92131 29.1865 10.3162 28.6539 10.6321C28.1312 10.9381 27.5197 11.0911 26.8195 11.0911C26.0995 11.0911 25.4486 10.9134 24.8667 10.558C24.2849 10.2027 23.8263 9.70413 23.4909 9.06246C23.1556 8.42078 22.988 7.69025 22.988 6.87088ZM29.8522 6.88568C29.8522 6.27362 29.7289 5.74055 29.4823 5.28644C29.2358 4.83233 28.9005 4.48679 28.4764 4.24987C28.0622 4.00307 27.6036 3.87968 27.1006 3.87968C26.5976 3.87968 26.139 3.99814 25.7248 4.23507C25.3106 4.47199 24.9802 4.81751 24.7336 5.27162C24.487 5.72573 24.3638 6.25882 24.3638 6.87088C24.3638 7.49281 24.487 8.03576 24.7336 8.49974C24.9802 8.95385 25.3106 9.30431 25.7248 9.55111C26.139 9.78804 26.5976 9.9065 27.1006 9.9065C27.6036 9.9065 28.0622 9.78804 28.4764 9.55111C28.9005 9.30431 29.2358 8.95385 29.4823 8.49974C29.7289 8.03576 29.8522 7.49774 29.8522 6.88568ZM34.8339 0V10.9579H33.4877V0H34.8339ZM48.8841 3.62794C48.5981 3.02575 48.1839 2.56177 47.6414 2.23599C47.099 1.90035 46.4678 1.73253 45.7479 1.73253C45.0279 1.73253 44.377 1.90035 43.7951 2.23599C43.2231 2.56177 42.7694 3.03562 42.4341 3.65756C42.1086 4.26962 41.9459 4.98039 41.9459 5.78989C41.9459 6.59939 42.1086 7.31017 42.4341 7.92223C42.7694 8.53429 43.2231 9.00816 43.7951 9.3438C44.377 9.66958 45.0279 9.83246 45.7479 9.83246C46.7538 9.83246 47.5823 9.53137 48.2332 8.92918C48.8841 8.32699 49.2638 7.51256 49.3723 6.48588H45.2597V5.39009H50.8073V6.42664C50.7284 7.27563 50.4621 8.05551 50.0084 8.76629C49.5548 9.4672 48.9581 10.025 48.2184 10.4396C47.4787 10.8443 46.6552 11.0467 45.7479 11.0467C44.7912 11.0467 43.9184 10.8246 43.1294 10.3804C42.3404 9.92624 41.7142 9.29937 41.2506 8.49974C40.797 7.70012 40.5701 6.79683 40.5701 5.78989C40.5701 4.78295 40.797 3.87967 41.2506 3.08004C41.7142 2.27054 42.3404 1.64368 43.1294 1.19944C43.9184 0.745333 44.7912 0.518275 45.7479 0.518275C46.8426 0.518275 47.8091 0.789749 48.6474 1.33271C49.4956 1.87566 50.112 2.64074 50.4966 3.62794H48.8841ZM53.9336 4.16103C54.1703 3.69705 54.5057 3.33671 54.9396 3.08004C55.3834 2.82337 55.9209 2.69504 56.5521 2.69504V4.08699H56.1971C54.6881 4.08699 53.9336 4.90635 53.9336 6.5451V10.9579H52.5874V2.84312H53.9336V4.16103ZM57.6024 6.87088C57.6024 6.04164 57.7701 5.31604 58.1054 4.69411C58.4407 4.0623 58.8993 3.57364 59.4812 3.22813C60.073 2.88261 60.7288 2.70985 61.4488 2.70985C62.1589 2.70985 62.7753 2.86287 63.298 3.1689C63.8207 3.47493 64.2102 3.85992 64.4667 4.3239V2.84312H65.8277V10.9579H64.4667V9.44746C64.2004 9.92131 63.801 10.3162 63.2684 10.6321C62.7457 10.9381 62.1342 11.0911 61.434 11.0911C60.714 11.0911 60.0631 10.9134 59.4812 10.558C58.8993 10.2027 58.4407 9.70413 58.1054 9.06246C57.7701 8.42078 57.6024 7.69025 57.6024 6.87088ZM64.4667 6.88568C64.4667 6.27362 64.3434 5.74055 64.0968 5.28644C63.8503 4.83233 63.5149 4.48679 63.0909 4.24987C62.6766 4.00307 62.218 3.87968 61.715 3.87968C61.2121 3.87968 60.7535 3.99814 60.3393 4.23507C59.925 4.47199 59.5946 4.81751 59.3481 5.27162C59.1015 5.72573 58.9782 6.25882 58.9782 6.87088C58.9782 7.49281 59.1015 8.03576 59.3481 8.49974C59.5946 8.95385 59.925 9.30431 60.3393 9.55111C60.7535 9.78804 61.2121 9.9065 61.715 9.9065C62.218 9.9065 62.6766 9.78804 63.0909 9.55111C63.5149 9.30431 63.8503 8.95385 64.0968 8.49974C64.3434 8.03576 64.4667 7.49774 64.4667 6.88568ZM72.0533 2.69504C73.0395 2.69504 73.8384 2.99613 74.4498 3.59832C75.0613 4.19064 75.367 5.04949 75.367 6.1749V10.9579H74.0356V6.36741C74.0356 5.55791 73.8334 4.94091 73.4291 4.51641C73.0247 4.08205 72.4724 3.86487 71.7722 3.86487C71.0621 3.86487 70.495 4.08699 70.0709 4.53123C69.6567 4.97547 69.4496 5.62207 69.4496 6.47106V10.9579H68.1034V2.84312H69.4496V3.99814C69.7159 3.58352 70.0759 3.26268 70.5296 3.03562C70.9931 2.80857 71.501 2.69504 72.0533 2.69504ZM79.2072 3.95372V8.73667C79.2072 9.13155 79.291 9.41291 79.4587 9.58073C79.6264 9.73868 79.9173 9.81766 80.3315 9.81766H81.3227V10.9579H80.1096C79.3601 10.9579 78.7979 10.7851 78.4232 10.4396C78.0484 10.0941 77.861 9.52643 77.861 8.73667V3.95372H76.8107V2.84312H77.861V0.799622H79.2072V2.84312H81.3227V3.95372H79.2072ZM85.8236 11.0911C85.2023 11.0911 84.6451 10.9875 84.152 10.7802C83.6589 10.563 83.2693 10.2668 82.9833 9.8917C82.6973 9.50669 82.5395 9.06738 82.5099 8.57378H83.9005C83.9399 8.97853 84.1273 9.30924 84.4626 9.56591C84.8078 9.82258 85.2565 9.95093 85.8088 9.95093C86.3217 9.95093 86.726 9.83741 87.0219 9.61035C87.3178 9.3833 87.4657 9.09701 87.4657 8.75149C87.4657 8.3961 87.3079 8.13449 86.9923 7.96667C86.6767 7.78897 86.1885 7.61622 85.5278 7.44839C84.9262 7.29044 84.433 7.13249 84.0484 6.97454C83.6736 6.80671 83.3482 6.56485 83.072 6.24895C82.8057 5.92318 82.6726 5.49867 82.6726 4.97545C82.6726 4.56083 82.7959 4.18077 83.0424 3.83525C83.289 3.48973 83.6391 3.21825 84.0928 3.02082C84.5465 2.8135 85.0642 2.70985 85.6461 2.70985C86.5436 2.70985 87.2685 2.9369 87.8208 3.39101C88.3731 3.84512 88.6689 4.46706 88.7084 5.25682H87.3622C87.3326 4.83232 87.16 4.49174 86.8444 4.23507C86.5387 3.9784 86.1244 3.85007 85.6017 3.85007C85.1185 3.85007 84.7338 3.95372 84.4478 4.16103C84.1618 4.36834 84.0188 4.63981 84.0188 4.97545C84.0188 5.242 84.1026 5.46413 84.2703 5.64182C84.4478 5.80964 84.6648 5.94785 84.9212 6.05644C85.1875 6.15516 85.5524 6.26869 86.0159 6.39702C86.5978 6.55498 87.0712 6.71293 87.4361 6.87088C87.801 7.01896 88.1117 7.24602 88.3681 7.55205C88.6344 7.85808 88.7725 8.25789 88.7824 8.75149C88.7824 9.19573 88.6591 9.59554 88.4125 9.95093C88.166 10.3063 87.8158 10.5877 87.3622 10.795C86.9184 10.9924 86.4055 11.0911 85.8236 11.0911ZM91.1123 11.0467C90.8559 11.0467 90.6389 10.9579 90.4614 10.7802C90.2839 10.6025 90.1951 10.3853 90.1951 10.1286C90.1951 9.87195 90.2839 9.65477 90.4614 9.47708C90.6389 9.29938 90.8559 9.21053 91.1123 9.21053C91.3589 9.21053 91.566 9.29938 91.7337 9.47708C91.9112 9.65477 92 9.87195 92 10.1286C92 10.3853 91.9112 10.6025 91.7337 10.7802C91.566 10.9579 91.3589 11.0467 91.1123 11.0467ZM91.1123 4.70892C90.8559 4.70892 90.6389 4.62007 90.4614 4.44238C90.2839 4.26468 90.1951 4.0475 90.1951 3.79083C90.1951 3.53416 90.2839 3.31698 90.4614 3.13928C90.6389 2.96158 90.8559 2.87273 91.1123 2.87273C91.3589 2.87273 91.566 2.96158 91.7337 3.13928C91.9112 3.31698 92 3.53416 92 3.79083C92 4.0475 91.9112 4.26468 91.7337 4.44238C91.566 4.62007 91.3589 4.70892 91.1123 4.70892Z" fill="#A8B0C9"/>
</svg>
