<svg width="165" height="12" viewBox="0 0 165 12" fill="none" xmlns="http://www.w3.org/2000/svg">
<path d="M5.40341 11.2594L2.95936 7.05924H1.33982V11.2594H0V0.987411H3.31271C4.08813 0.987411 4.74086 1.12005 5.2709 1.38533C5.81075 1.6506 6.21317 2.0092 6.47819 2.46115C6.74321 2.9131 6.87572 3.42891 6.87572 4.00858C6.87572 4.71598 6.6696 5.33986 6.25735 5.88024C5.85492 6.42061 5.24635 6.77923 4.43167 6.95608L7.00823 11.2594H5.40341ZM1.33982 5.9834H3.31271C4.03905 5.9834 4.58381 5.80656 4.94698 5.45286C5.31015 5.08934 5.49174 4.6079 5.49174 4.00858C5.49174 3.39943 5.31015 2.92784 4.94698 2.59379C4.59362 2.25974 4.04887 2.09271 3.31271 2.09271H1.33982V5.9834ZM12.4767 11.3921C11.7209 11.3921 11.0338 11.2201 10.4154 10.8762C9.80685 10.5324 9.3259 10.046 8.97254 9.41723C8.629 8.77861 8.45723 8.04173 8.45723 7.20661C8.45723 6.38131 8.6339 5.65426 8.98726 5.02547C9.35043 4.38684 9.84122 3.9005 10.4596 3.56645C11.078 3.22258 11.77 3.05065 12.5356 3.05065C13.3012 3.05065 13.9931 3.22258 14.6115 3.56645C15.2299 3.9005 15.7157 4.38194 16.0691 5.01074C16.4323 5.63954 16.6139 6.37149 16.6139 7.20661C16.6139 8.04173 16.4274 8.77861 16.0544 9.41723C15.6912 10.046 15.1955 10.5324 14.5673 10.8762C13.9392 11.2201 13.2423 11.3921 12.4767 11.3921ZM12.4767 10.213C12.9576 10.213 13.4091 10.1001 13.8312 9.87409C14.2533 9.64811 14.5919 9.30917 14.8471 8.85722C15.1121 8.40527 15.2446 7.85506 15.2446 7.20661C15.2446 6.55816 15.117 6.00797 14.8618 5.55602C14.6066 5.10407 14.2729 4.77001 13.8606 4.55386C13.4484 4.32789 13.0018 4.21492 12.5208 4.21492C12.03 4.21492 11.5785 4.32789 11.1663 4.55386C10.7639 4.77001 10.44 5.10407 10.1946 5.55602C9.94918 6.00797 9.82648 6.55816 9.82648 7.20661C9.82648 7.86488 9.94426 8.42 10.1798 8.87195C10.4252 9.3239 10.7491 9.66286 11.1516 9.88884C11.554 10.105 11.9957 10.213 12.4767 10.213ZM17.8751 7.20661C17.8751 6.37149 18.042 5.64444 18.3757 5.02547C18.7095 4.39667 19.1708 3.91033 19.7597 3.56645C20.3585 3.22258 21.0406 3.05065 21.8062 3.05065C22.7976 3.05065 23.6123 3.29137 24.2503 3.7728C24.8981 4.25422 25.3251 4.9223 25.5312 5.77708H24.0883C23.9509 5.28583 23.681 4.89774 23.2785 4.61282C22.8859 4.3279 22.3952 4.18544 21.8062 4.18544C21.0406 4.18544 20.4222 4.45071 19.9511 4.98126C19.48 5.50198 19.2444 6.24376 19.2444 7.20661C19.2444 8.17928 19.48 8.93089 19.9511 9.46144C20.4222 9.99199 21.0406 10.2573 21.8062 10.2573C22.3952 10.2573 22.8859 10.1197 23.2785 9.84463C23.6712 9.56953 23.9411 9.17652 24.0883 8.66562H25.5312C25.3153 9.49092 24.8834 10.1541 24.2356 10.6552C23.5877 11.1464 22.778 11.3921 21.8062 11.3921C21.0406 11.3921 20.3585 11.2201 19.7597 10.8762C19.1708 10.5324 18.7095 10.046 18.3757 9.41723C18.042 8.78844 17.8751 8.05156 17.8751 7.20661ZM31.8241 11.2594L28.6586 7.69294V11.2594H27.3188V0.353692H28.6586V6.76449L31.7652 3.18328H33.6351L29.8365 7.20661L33.6498 11.2594H31.8241ZM42.2567 6.91187C42.2567 7.16732 42.242 7.4375 42.2125 7.72242H35.7638C35.8129 8.51824 36.0828 9.14213 36.5736 9.59408C37.0741 10.0362 37.6778 10.2573 38.3845 10.2573C38.9636 10.2573 39.4446 10.1246 39.8274 9.85936C40.22 9.58426 40.4948 9.22073 40.6519 8.76879H42.0947C41.8788 9.54496 41.4469 10.1787 40.7991 10.6699C40.1513 11.1513 39.3464 11.3921 38.3845 11.3921C37.6189 11.3921 36.9318 11.2201 36.3233 10.8762C35.7245 10.5324 35.2534 10.046 34.9098 9.41723C34.5663 8.77861 34.3945 8.04173 34.3945 7.20661C34.3945 6.37149 34.5614 5.63954 34.8951 5.01074C35.2289 4.38194 35.6951 3.9005 36.2938 3.56645C36.9024 3.22258 37.5993 3.05065 38.3845 3.05065C39.1501 3.05065 39.8274 3.21768 40.4163 3.55172C41.0052 3.88577 41.4567 4.34756 41.7708 4.93705C42.0947 5.51673 42.2567 6.175 42.2567 6.91187ZM40.8727 6.63185C40.8727 6.12095 40.7598 5.68375 40.5341 5.32022C40.3083 4.94687 39.9991 4.66685 39.6065 4.48018C39.2237 4.28368 38.7968 4.18544 38.3256 4.18544C37.6483 4.18544 37.0692 4.40159 36.5883 4.83389C36.1171 5.26619 35.8472 5.8655 35.7785 6.63185H40.8727ZM47.3092 4.28861H45.616V11.2594H44.2762V4.28861H43.2309V3.18328H44.2762V2.60852C44.2762 1.70462 44.5069 1.04637 44.9682 0.633719C45.4393 0.211245 46.1902 0 47.2209 0V1.12005C46.6319 1.12005 46.2148 1.23794 45.9694 1.47374C45.7338 1.69972 45.616 2.07797 45.616 2.60852V3.18328H47.3092V4.28861ZM56.2327 6.91187C56.2327 7.16732 56.2179 7.4375 56.1885 7.72242H49.7397C49.7888 8.51824 50.0587 9.14213 50.5495 9.59408C51.0501 10.0362 51.6538 10.2573 52.3605 10.2573C52.9396 10.2573 53.4205 10.1246 53.8033 9.85936C54.196 9.58426 54.4708 9.22073 54.6278 8.76879H56.0707C55.8548 9.54496 55.4229 10.1787 54.7751 10.6699C54.1272 11.1513 53.3224 11.3921 52.3605 11.3921C51.5949 11.3921 50.9078 11.2201 50.2992 10.8762C49.7005 10.5324 49.2293 10.046 48.8858 9.41723C48.5423 8.77861 48.3705 8.04173 48.3705 7.20661C48.3705 6.37149 48.5373 5.63954 48.8711 5.01074C49.2048 4.38194 49.671 3.9005 50.2698 3.56645C50.8783 3.22258 51.5752 3.05065 52.3605 3.05065C53.1261 3.05065 53.8033 3.21768 54.3923 3.55172C54.9812 3.88577 55.4327 4.34756 55.7468 4.93705C56.0707 5.51673 56.2327 6.175 56.2327 6.91187ZM54.8487 6.63185C54.8487 6.12095 54.7358 5.68375 54.5101 5.32022C54.2843 4.94687 53.9751 4.66685 53.5825 4.48018C53.1997 4.28368 52.7727 4.18544 52.3016 4.18544C51.6243 4.18544 51.0452 4.40159 50.5642 4.83389C50.0931 5.26619 49.8232 5.8655 49.7545 6.63185H54.8487ZM59.3405 0.353692V11.2594H58.0007V0.353692H59.3405ZM62.9648 0.353692V11.2594H61.625V0.353692H62.9648ZM72.6097 6.91187C72.6097 7.16732 72.595 7.4375 72.5655 7.72242H66.1168C66.1659 8.51824 66.4358 9.14213 66.9266 9.59408C67.4272 10.0362 68.0308 10.2573 68.7375 10.2573C69.3166 10.2573 69.7976 10.1246 70.1804 9.85936C70.573 9.58426 70.8478 9.22073 71.0049 8.76879H72.4478C72.2318 9.54496 71.7999 10.1787 71.1521 10.6699C70.5043 11.1513 69.6994 11.3921 68.7375 11.3921C67.9719 11.3921 67.2848 11.2201 66.6763 10.8762C66.0775 10.5324 65.6064 10.046 65.2629 9.41723C64.9193 8.77861 64.7475 8.04173 64.7475 7.20661C64.7475 6.37149 64.9144 5.63954 65.2481 5.01074C65.5819 4.38194 66.0481 3.9005 66.6468 3.56645C67.2554 3.22258 67.9523 3.05065 68.7375 3.05065C69.5031 3.05065 70.1804 3.21768 70.7693 3.55172C71.3583 3.88577 71.8097 4.34756 72.1238 4.93705C72.4477 5.51673 72.6097 6.175 72.6097 6.91187ZM71.2257 6.63185C71.2257 6.12095 71.1129 5.68375 70.8871 5.32022C70.6613 4.94687 70.3522 4.66685 69.9596 4.48018C69.5767 4.28368 69.1498 4.18544 68.6786 4.18544C68.0014 4.18544 67.4223 4.40159 66.9413 4.83389C66.4702 5.26619 66.2002 5.8655 66.1315 6.63185H71.2257ZM75.7175 4.49493C75.9531 4.03316 76.2868 3.67453 76.7187 3.41909C77.1604 3.16364 77.6953 3.03592 78.3235 3.03592V4.42124H77.9702C76.4684 4.42124 75.7175 5.2367 75.7175 6.86765V11.2594H74.3777V3.18328H75.7175V4.49493ZM89.5966 0.987411V2.07798H85.1354V5.54128H88.7574V6.63185H85.1354V11.2594H83.7956V0.987411H89.5966ZM94.7337 11.3921C93.9779 11.3921 93.2908 11.2201 92.6725 10.8762C92.0639 10.5324 91.583 10.046 91.2296 9.41723C90.8861 8.77861 90.7143 8.04173 90.7143 7.20661C90.7143 6.38131 90.891 5.65426 91.2443 5.02547C91.6075 4.38684 92.0983 3.9005 92.7166 3.56645C93.335 3.22258 94.027 3.05065 94.7926 3.05065C95.5582 3.05065 96.2502 3.22258 96.8686 3.56645C97.487 3.9005 97.9728 4.38194 98.3262 5.01074C98.6893 5.63954 98.8709 6.37149 98.8709 7.20661C98.8709 8.04173 98.6844 8.77861 98.3114 9.41723C97.9483 10.046 97.4526 10.5324 96.8244 10.8762C96.1962 11.2201 95.4993 11.3921 94.7337 11.3921ZM94.7337 10.213C95.2147 10.213 95.6662 10.1001 96.0882 9.87409C96.5103 9.64811 96.8489 9.30917 97.1041 8.85722C97.3692 8.40527 97.5017 7.85506 97.5017 7.20661C97.5017 6.55816 97.3741 6.00797 97.1189 5.55602C96.8636 5.10407 96.53 4.77001 96.1177 4.55386C95.7055 4.32789 95.2588 4.21492 94.7779 4.21492C94.2871 4.21492 93.8356 4.32789 93.4233 4.55386C93.0209 4.77001 92.697 5.10407 92.4516 5.55602C92.2062 6.00797 92.0836 6.55816 92.0836 7.20661C92.0836 7.86488 92.2013 8.42 92.4369 8.87195C92.6823 9.3239 93.0062 9.66286 93.4086 9.88884C93.8111 10.105 94.2527 10.213 94.7337 10.213ZM107.788 3.18328V11.2594H106.448V10.0657C106.193 10.4783 105.835 10.8026 105.374 11.0384C104.922 11.2643 104.422 11.3773 103.872 11.3773C103.244 11.3773 102.679 11.2496 102.179 10.9941C101.678 10.7289 101.281 10.3359 100.986 9.81515C100.701 9.29443 100.559 8.66071 100.559 7.91401V3.18328H101.884V7.73717C101.884 8.53299 102.085 9.14705 102.488 9.57935C102.89 10.0018 103.44 10.213 104.137 10.213C104.853 10.213 105.418 9.992 105.83 9.54987C106.242 9.10775 106.448 8.46421 106.448 7.61926V3.18328H107.788ZM113.981 3.03592C114.962 3.03592 115.757 3.33557 116.366 3.93489C116.974 4.52439 117.279 5.37916 117.279 6.49921V11.2594H115.953V6.6908C115.953 5.88516 115.752 5.27109 115.35 4.84862C114.947 4.41632 114.398 4.20017 113.701 4.20017C112.994 4.20017 112.43 4.42125 112.008 4.86337C111.595 5.30549 111.389 5.94902 111.389 6.79396V11.2594H110.049V3.18328H111.389V4.33281C111.654 3.92016 112.013 3.60085 112.464 3.37488C112.925 3.1489 113.431 3.03592 113.981 3.03592ZM118.967 7.19188C118.967 6.36658 119.134 5.64444 119.467 5.02547C119.801 4.39667 120.258 3.91033 120.837 3.56645C121.426 3.22258 122.083 3.05065 122.81 3.05065C123.438 3.05065 124.022 3.19802 124.562 3.49277C125.101 3.77769 125.514 4.15597 125.798 4.62757V0.353692H127.153V11.2594H125.798V9.74147C125.533 10.2229 125.141 10.6208 124.62 10.9352C124.1 11.2398 123.492 11.3921 122.795 11.3921C122.078 11.3921 121.426 11.2152 120.837 10.8615C120.258 10.5078 119.801 10.0116 119.467 9.37303C119.134 8.7344 118.967 8.00735 118.967 7.19188ZM125.798 7.20661C125.798 6.59746 125.676 6.06693 125.43 5.61498C125.185 5.16303 124.851 4.81914 124.429 4.58334C124.017 4.33772 123.56 4.21492 123.06 4.21492C122.559 4.21492 122.103 4.33281 121.691 4.56861C121.278 4.80441 120.95 5.14828 120.704 5.60023C120.459 6.05218 120.336 6.58273 120.336 7.19188C120.336 7.81086 120.459 8.35122 120.704 8.81299C120.95 9.26494 121.278 9.61373 121.691 9.85936C122.103 10.0952 122.559 10.213 123.06 10.213C123.56 10.213 124.017 10.0952 124.429 9.85936C124.851 9.61373 125.185 9.26494 125.43 8.81299C125.676 8.35122 125.798 7.81576 125.798 7.20661ZM128.916 7.19188C128.916 6.36658 129.083 5.64444 129.417 5.02547C129.75 4.39667 130.207 3.91033 130.786 3.56645C131.375 3.22258 132.027 3.05065 132.744 3.05065C133.451 3.05065 134.064 3.20294 134.584 3.50752C135.105 3.81209 135.492 4.19525 135.748 4.65703V3.18328H137.102V11.2594H135.748V9.7562C135.483 10.2278 135.085 10.6208 134.555 10.9352C134.035 11.2398 133.426 11.3921 132.729 11.3921C132.013 11.3921 131.365 11.2152 130.786 10.8615C130.207 10.5078 129.75 10.0116 129.417 9.37303C129.083 8.7344 128.916 8.00735 128.916 7.19188ZM135.748 7.20661C135.748 6.59746 135.625 6.06693 135.379 5.61498C135.134 5.16303 134.8 4.81914 134.378 4.58334C133.966 4.33772 133.51 4.21492 133.009 4.21492C132.508 4.21492 132.052 4.33281 131.64 4.56861C131.228 4.80441 130.899 5.14828 130.653 5.60023C130.408 6.05218 130.285 6.58273 130.285 7.19188C130.285 7.81086 130.408 8.35122 130.653 8.81299C130.899 9.26494 131.228 9.61373 131.64 9.85936C132.052 10.0952 132.508 10.213 133.009 10.213C133.51 10.213 133.966 10.0952 134.378 9.85936C134.8 9.61373 135.134 9.26494 135.379 8.81299C135.625 8.35122 135.748 7.81576 135.748 7.20661ZM141.001 4.28861V9.04879C141.001 9.44179 141.085 9.72181 141.252 9.88884C141.418 10.046 141.708 10.1246 142.12 10.1246H143.107V11.2594H141.899C141.153 11.2594 140.594 11.0875 140.221 10.7436C139.848 10.3997 139.661 9.83479 139.661 9.04879V4.28861H138.616V3.18328H139.661V1.14953H141.001V3.18328H143.107V4.28861H141.001ZM145.422 1.87166C145.167 1.87166 144.951 1.78323 144.774 1.60638C144.597 1.42953 144.509 1.21338 144.509 0.957933C144.509 0.702484 144.597 0.486335 144.774 0.309485C144.951 0.132636 145.167 0.0442068 145.422 0.0442068C145.667 0.0442068 145.873 0.132636 146.04 0.309485C146.217 0.486335 146.305 0.702484 146.305 0.957933C146.305 1.21338 146.217 1.42953 146.04 1.60638C145.873 1.78323 145.667 1.87166 145.422 1.87166ZM146.07 3.18328V11.2594H144.73V3.18328H146.07ZM151.872 11.3921C151.116 11.3921 150.429 11.2201 149.811 10.8762C149.202 10.5324 148.721 10.046 148.368 9.41723C148.024 8.77861 147.852 8.04173 147.852 7.20661C147.852 6.38131 148.029 5.65426 148.382 5.02547C148.746 4.38684 149.236 3.9005 149.855 3.56645C150.473 3.22258 151.165 3.05065 151.931 3.05065C152.696 3.05065 153.388 3.22258 154.007 3.56645C154.625 3.9005 155.111 4.38194 155.464 5.01074C155.827 5.63954 156.009 6.37149 156.009 7.20661C156.009 8.04173 155.823 8.77861 155.45 9.41723C155.086 10.046 154.591 10.5324 153.963 10.8762C153.334 11.2201 152.637 11.3921 151.872 11.3921ZM151.872 10.213C152.353 10.213 152.804 10.1001 153.226 9.87409C153.648 9.64811 153.987 9.30917 154.242 8.85722C154.507 8.40527 154.64 7.85506 154.64 7.20661C154.64 6.55816 154.512 6.00797 154.257 5.55602C154.002 5.10407 153.668 4.77001 153.256 4.55386C152.844 4.32789 152.397 4.21492 151.916 4.21492C151.425 4.21492 150.974 4.32789 150.561 4.55386C150.159 4.77001 149.835 5.10407 149.59 5.55602C149.344 6.00797 149.222 6.55816 149.222 7.20661C149.222 7.86488 149.339 8.42 149.575 8.87195C149.82 9.3239 150.144 9.66286 150.547 9.88884C150.949 10.105 151.391 10.213 151.872 10.213ZM161.702 3.03592C162.684 3.03592 163.479 3.33557 164.087 3.93489C164.696 4.52439 165 5.37916 165 6.49921V11.2594H163.675V6.6908C163.675 5.88516 163.474 5.27109 163.071 4.84862C162.669 4.41632 162.119 4.20017 161.422 4.20017C160.716 4.20017 160.151 4.42125 159.729 4.86337C159.317 5.30549 159.111 5.94902 159.111 6.79396V11.2594H157.771V3.18328H159.111V4.33281C159.376 3.92016 159.734 3.60085 160.186 3.37488C160.647 3.1489 161.152 3.03592 161.702 3.03592Z" fill="#F2F4FA"/>
</svg>
