<svg width="111" height="12" viewBox="0 0 111 12" fill="none" xmlns="http://www.w3.org/2000/svg">
<path d="M4.75614 0.787308V7.12269C4.75614 7.82795 4.53898 8.39383 4.10478 8.82033C3.67059 9.23858 3.09702 9.44771 2.38422 9.44771C1.66318 9.44771 1.08556 9.23452 0.651358 8.80802C0.21716 8.3734 0 7.78292 0 7.03658H1.11837C1.1266 7.45484 1.23303 7.79522 1.4379 8.05762C1.65089 8.32001 1.96636 8.45127 2.38422 8.45127C2.80207 8.45127 3.11337 8.32826 3.31824 8.08222C3.52311 7.82794 3.62548 7.5081 3.62548 7.12269V0.787308H4.75614ZM7.31573 9.43541C7.10275 9.43541 6.92246 9.3616 6.77498 9.21398C6.62751 9.06636 6.55377 8.88589 6.55377 8.6727C6.55377 8.45951 6.62751 8.27905 6.77498 8.13143C6.92246 7.98381 7.10275 7.91 7.31573 7.91C7.5206 7.91 7.69266 7.98381 7.8319 8.13143C7.97938 8.27905 8.05312 8.45951 8.05312 8.6727C8.05312 8.88589 7.97938 9.06636 7.8319 9.21398C7.69266 9.3616 7.5206 9.43541 7.31573 9.43541ZM17.1054 4.94529C17.4167 4.99449 17.6994 5.12157 17.9534 5.32664C18.2155 5.53171 18.4204 5.78586 18.5679 6.08935C18.7235 6.39283 18.8014 6.71673 18.8014 7.06118C18.8014 7.4958 18.6908 7.88945 18.4696 8.24214C18.2483 8.58659 17.9246 8.86129 17.4987 9.06636C17.0808 9.26318 16.585 9.3616 16.0116 9.3616H12.8163V0.787308H15.8887C16.4704 0.787308 16.966 0.885724 17.3758 1.08255C17.7854 1.27114 18.0926 1.52947 18.2975 1.85756C18.5023 2.18565 18.6047 2.5547 18.6047 2.96471C18.6047 3.47314 18.4654 3.89558 18.1869 4.23179C17.9165 4.55988 17.5559 4.79767 17.1054 4.94529ZM13.9346 4.49012H15.815C16.3393 4.49012 16.7448 4.36711 17.0317 4.12107C17.3184 3.87504 17.4618 3.53465 17.4618 3.10003C17.4618 2.66541 17.3184 2.32503 17.0317 2.07899C16.7448 1.83296 16.3311 1.70994 15.7904 1.70994H13.9346V4.49012ZM15.9133 8.43897C16.4704 8.43897 16.9046 8.30771 17.216 8.04532C17.5273 7.78292 17.683 7.41793 17.683 6.95047C17.683 6.47476 17.5191 6.10165 17.1914 5.83101C16.8637 5.55213 16.4253 5.41275 15.8764 5.41275H13.9346V8.43897H15.9133ZM20.931 1.52541C20.7179 1.52541 20.5377 1.4516 20.3902 1.30398C20.2427 1.15636 20.169 0.975893 20.169 0.762705C20.169 0.549516 20.2427 0.369052 20.3902 0.221431C20.5377 0.0738106 20.7179 0 20.931 0C21.1357 0 21.3078 0.0738106 21.4471 0.221431C21.5946 0.369052 21.6683 0.549516 21.6683 0.762705C21.6683 0.975893 21.5946 1.15636 21.4471 1.30398C21.3078 1.4516 21.1357 1.52541 20.931 1.52541ZM21.4717 2.62026V9.3616H20.3533V2.62026H21.4717ZM26.315 9.47232C25.6841 9.47232 25.1106 9.32876 24.5944 9.04176C24.0865 8.75476 23.685 8.3488 23.39 7.82389C23.1033 7.29085 22.9599 6.67577 22.9599 5.97863C22.9599 5.28973 23.1074 4.68289 23.4023 4.15798C23.7055 3.62495 24.1151 3.21899 24.6313 2.94011C25.1475 2.65311 25.7251 2.50955 26.3641 2.50955C27.0032 2.50955 27.5808 2.65311 28.097 2.94011C28.6132 3.21899 29.0187 3.62076 29.3137 4.14567C29.6169 4.67059 29.7684 5.28149 29.7684 5.97863C29.7684 6.67577 29.6127 7.29085 29.3014 7.82389C28.9982 8.3488 28.5845 8.75476 28.0601 9.04176C27.5357 9.32876 26.9541 9.47232 26.315 9.47232ZM26.315 8.48818C26.7165 8.48818 27.0933 8.39383 27.4456 8.20524C27.798 8.01666 28.0807 7.73371 28.2936 7.35642C28.5148 6.97913 28.6255 6.51991 28.6255 5.97863C28.6255 5.43736 28.5189 4.97813 28.3059 4.60084C28.0929 4.22355 27.8143 3.94479 27.4702 3.76432C27.1261 3.57574 26.7534 3.48139 26.3519 3.48139C25.9422 3.48139 25.5653 3.57574 25.2212 3.76432C24.8853 3.94479 24.6149 4.22355 24.4101 4.60084C24.2052 4.97813 24.1028 5.43736 24.1028 5.97863C24.1028 6.52815 24.2011 6.99143 24.3978 7.36872C24.6026 7.74602 24.873 8.02896 25.2089 8.21754C25.5448 8.39801 25.9135 8.48818 26.315 8.48818ZM32.3572 0.258335V9.3616H31.2389V0.258335H32.3572ZM34.6197 9.43541C34.4067 9.43541 34.2264 9.3616 34.0789 9.21398C33.9314 9.06636 33.8577 8.88589 33.8577 8.6727C33.8577 8.45951 33.9314 8.27905 34.0789 8.13143C34.2264 7.98381 34.4067 7.91 34.6197 7.91C34.8245 7.91 34.9966 7.98381 35.1358 8.13143C35.2833 8.27905 35.3571 8.45951 35.3571 8.6727C35.3571 8.88589 35.2833 9.06636 35.1358 9.21398C34.9966 9.3616 34.8245 9.43541 34.6197 9.43541ZM39.7023 5.0683C39.7023 4.23179 39.8908 3.48138 40.2677 2.81709C40.6445 2.14456 41.1566 1.61977 41.8039 1.24248C42.4593 0.865182 43.1844 0.676593 43.9792 0.676593C44.9132 0.676593 45.7284 0.902087 46.4249 1.35319C47.1212 1.80429 47.6293 2.44398 47.9488 3.27225H46.6092C46.3715 2.75558 46.0274 2.35787 45.5769 2.07899C45.1344 1.80011 44.6018 1.66073 43.9792 1.66073C43.3811 1.66073 42.8444 1.80011 42.3692 2.07899C41.894 2.35787 41.5212 2.75558 41.2509 3.27225C40.9805 3.78068 40.8453 4.37941 40.8453 5.0683C40.8453 5.74896 40.9805 6.34768 41.2509 6.86435C41.5212 7.37278 41.894 7.76644 42.3692 8.04532C42.8444 8.3242 43.3811 8.46358 43.9792 8.46358C44.6018 8.46358 45.1344 8.32825 45.5769 8.05762C46.0274 7.77874 46.3715 7.38103 46.6092 6.86435H47.9488C47.6293 7.68451 47.1212 8.32001 46.4249 8.77112C45.7284 9.21398 44.9132 9.43541 43.9792 9.43541C43.1844 9.43541 42.4593 9.25089 41.8039 8.88183C41.1566 8.50454 40.6445 7.98381 40.2677 7.31952C39.8908 6.65522 39.7023 5.90482 39.7023 5.0683ZM52.9564 2.49724C53.4643 2.49724 53.9231 2.60796 54.3328 2.82939C54.7424 3.04258 55.062 3.36661 55.2914 3.80123C55.529 4.23585 55.6478 4.76482 55.6478 5.38815V9.3616H54.5418V5.54807C54.5418 4.87554 54.3738 4.36305 54.0379 4.01036C53.7019 3.64955 53.2431 3.46908 52.6614 3.46908C52.0715 3.46908 51.6003 3.65361 51.2481 4.02266C50.904 4.39171 50.7319 4.92893 50.7319 5.63418V9.3616H49.6136V0.258335H50.7319V3.5798C50.9531 3.23535 51.2562 2.96877 51.6414 2.78019C52.0346 2.5916 52.4729 2.49724 52.9564 2.49724ZM63.6196 5.7326C63.6196 5.94578 63.6073 6.1714 63.5827 6.40919H58.1998C58.2407 7.07348 58.466 7.59421 58.8757 7.97151C59.2936 8.34056 59.7975 8.52508 60.3874 8.52508C60.8707 8.52508 61.2722 8.41437 61.5918 8.19294C61.9194 7.96326 62.1489 7.65991 62.28 7.28261H63.4844C63.3041 7.93054 62.9437 8.45951 62.4029 8.86953C61.8622 9.27143 61.1903 9.47232 60.3874 9.47232C59.7483 9.47232 59.1748 9.32876 58.6668 9.04176C58.167 8.75476 57.7737 8.3488 57.487 7.82389C57.2002 7.29085 57.0569 6.67577 57.0569 5.97863C57.0569 5.28149 57.1961 4.67059 57.4747 4.14567C57.7532 3.62076 58.1424 3.21899 58.6422 2.94011C59.1502 2.65311 59.7318 2.50955 60.3874 2.50955C61.0265 2.50955 61.5918 2.64893 62.0834 2.92781C62.575 3.20669 62.9518 3.5921 63.214 4.08417C63.4844 4.56799 63.6196 5.11751 63.6196 5.7326ZM62.4644 5.49886C62.4644 5.07236 62.3701 4.7075 62.1817 4.40401C61.9932 4.09241 61.7351 3.85868 61.4074 3.70282C61.0879 3.53883 60.7315 3.45678 60.3382 3.45678C59.7729 3.45678 59.2894 3.63725 58.888 3.99805C58.4948 4.35886 58.2694 4.85918 58.2121 5.49886H62.4644ZM73.1947 2.49724C73.7191 2.49724 74.1861 2.60796 74.5957 2.82939C75.0055 3.04258 75.329 3.36661 75.5666 3.80123C75.8043 4.23585 75.923 4.76482 75.923 5.38815V9.3616H74.8169V5.54807C74.8169 4.87554 74.6491 4.36305 74.3131 4.01036C73.9854 3.64955 73.5388 3.46908 72.9735 3.46908C72.3918 3.46908 71.9288 3.65767 71.5847 4.03496C71.2406 4.40401 71.0685 4.94123 71.0685 5.64648V9.3616H69.9625V5.54807C69.9625 4.87554 69.7946 4.36305 69.4586 4.01036C69.1309 3.64955 68.6843 3.46908 68.119 3.46908C67.5373 3.46908 67.0744 3.65767 66.7303 4.03496C66.3861 4.40401 66.2141 4.94123 66.2141 5.64648V9.3616H65.0957V2.62026H66.2141V3.5921C66.4353 3.23941 66.7303 2.96877 67.099 2.78019C67.4759 2.5916 67.8897 2.49724 68.3402 2.49724C68.9056 2.49724 69.4054 2.62432 69.8396 2.8786C70.2739 3.13288 70.5975 3.50599 70.8105 3.99805C70.999 3.52235 71.3103 3.1533 71.7445 2.8909C72.1788 2.62851 72.6622 2.49724 73.1947 2.49724ZM78.114 9.43541C77.9009 9.43541 77.7208 9.3616 77.5733 9.21398C77.4258 9.06636 77.3521 8.88589 77.3521 8.6727C77.3521 8.45951 77.4258 8.27905 77.5733 8.13143C77.7208 7.98381 77.9009 7.91 78.114 7.91C78.3188 7.91 78.4908 7.98381 78.6302 8.13143C78.7777 8.27905 78.8514 8.45951 78.8514 8.6727C78.8514 8.88589 78.7777 9.06636 78.6302 9.21398C78.4908 9.3616 78.3188 9.43541 78.114 9.43541ZM81.4932 7.81159L80.1168 11.1207H79.3671L80.2642 7.81159H81.4932ZM85.5715 1.48851V0.467466H87.8819V9.3616H86.7513V1.48851H85.5715ZM91.2409 6.97507C91.3228 7.44254 91.5112 7.80334 91.8062 8.05762C92.1094 8.31189 92.5149 8.43897 93.0229 8.43897C93.703 8.43897 94.2027 8.17239 94.5222 7.63936C94.85 7.10633 95.0057 6.2083 94.9892 4.94529C94.8172 5.31434 94.5305 5.60552 94.1289 5.81871C93.7276 6.02378 93.281 6.12625 92.7894 6.12625C92.2405 6.12625 91.7489 6.01553 91.3146 5.7941C90.8886 5.56443 90.5526 5.23229 90.3068 4.79767C90.061 4.36305 89.9382 3.83813 89.9382 3.22305C89.9382 2.34557 90.1922 1.64019 90.7001 1.10716C91.2082 0.56588 91.9291 0.295243 92.8631 0.295243C94.0102 0.295243 94.8131 0.668354 95.2719 1.4147C95.7389 2.16104 95.9724 3.27225 95.9724 4.74846C95.9724 5.7818 95.8783 6.63468 95.6897 7.30722C95.5096 7.97975 95.1982 8.49224 94.7557 8.84493C94.3215 9.19762 93.7234 9.3739 92.9614 9.3739C92.1257 9.3739 91.4744 9.14841 91.0074 8.69731C90.5403 8.2462 90.2742 7.67221 90.2085 6.97507H91.2409ZM92.9737 5.17902C93.5227 5.17902 93.9734 5.01085 94.3256 4.67465C94.6779 4.3302 94.8541 3.8668 94.8541 3.28456C94.8541 2.66947 94.682 2.17334 94.3379 1.79605C93.9938 1.41875 93.5104 1.23017 92.8877 1.23017C92.3142 1.23017 91.8553 1.41064 91.5112 1.77145C91.1754 2.13226 91.0074 2.60796 91.0074 3.19845C91.0074 3.79717 91.1754 4.27694 91.5112 4.63774C91.8472 4.99855 92.3347 5.17902 92.9737 5.17902ZM97.2738 7.38102V6.53221L101.587 0.553578H102.927V6.40919H104.156V7.38102H102.927V9.3616H101.821V7.38102H97.2738ZM101.87 1.72224L98.5642 6.40919H101.87V1.72224ZM105.249 2.70638C105.306 1.95191 105.597 1.36143 106.121 0.934932C106.646 0.508432 107.326 0.295243 108.161 0.295243C108.719 0.295243 109.198 0.397716 109.599 0.602786C110.009 0.799613 110.317 1.07025 110.521 1.4147C110.735 1.75915 110.84 2.14874 110.84 2.58336C110.84 3.09179 110.693 3.53059 110.398 3.89964C110.111 4.26869 109.734 4.50648 109.267 4.61314V4.67465C109.8 4.80591 110.222 5.06424 110.533 5.44966C110.845 5.83507 111 6.33944 111 6.96277C111 7.43023 110.894 7.85255 110.68 8.22985C110.468 8.5989 110.148 8.89008 109.722 9.10326C109.297 9.31645 108.784 9.42311 108.186 9.42311C107.317 9.42311 106.605 9.19762 106.047 8.74651C105.49 8.28729 105.179 7.63936 105.113 6.80284H106.195C106.252 7.29491 106.453 7.69681 106.797 8.00841C107.141 8.32002 107.6 8.47588 108.173 8.47588C108.747 8.47588 109.181 8.32825 109.476 8.03301C109.78 7.72953 109.931 7.34006 109.931 6.86435C109.931 6.24927 109.727 5.80641 109.316 5.53577C108.907 5.26513 108.289 5.12981 107.461 5.12981H107.178V4.19488H107.473C108.227 4.18664 108.796 4.06362 109.181 3.82583C109.567 3.5798 109.759 3.20251 109.759 2.69408C109.759 2.25946 109.616 1.91082 109.329 1.64843C109.051 1.38603 108.649 1.25477 108.124 1.25477C107.616 1.25477 107.207 1.38603 106.895 1.64843C106.584 1.91082 106.4 2.26352 106.342 2.70638H105.249Z" fill="#A8B0C9"/>
</svg>
