<svg width="33" height="27" viewBox="0 0 33 27" fill="none" xmlns="http://www.w3.org/2000/svg">
<path d="M28.5947 7.23294C28.6134 7.50377 28.6134 7.7746 28.6134 8.04793C28.6134 16.3764 22.2732 25.9816 10.6798 25.9816V25.9766C7.25508 25.9816 3.90149 25.0006 1.01843 23.1509C1.51641 23.2108 2.01689 23.2408 2.51862 23.242C5.35675 23.2445 8.11375 22.2922 10.3466 20.5387C7.64947 20.4875 5.28436 18.729 4.45813 16.1617C5.40293 16.3439 6.37643 16.3065 7.30375 16.0531C4.36328 15.459 2.24779 12.8755 2.24779 9.87512C2.24779 9.84766 2.24779 9.82145 2.24779 9.79524C3.12394 10.2832 4.10493 10.5541 5.10838 10.584C2.3389 8.73313 1.48521 5.0488 3.15764 2.16824C6.35771 6.10592 11.0792 8.49974 16.1476 8.7531C15.6397 6.56397 16.3336 4.27 17.9711 2.73112C20.5097 0.344797 24.5023 0.467109 26.8886 3.00445C28.3002 2.72613 29.6531 2.20818 30.8912 1.47431C30.4207 2.93331 29.4359 4.17265 28.1204 4.96019C29.3698 4.81292 30.5904 4.47843 31.7399 3.96797C30.8937 5.23601 29.8278 6.34056 28.5947 7.23294Z" fill="#1B1C30"/>
</svg>
