<svg width="144" height="27" viewBox="0 0 144 27" fill="none" xmlns="http://www.w3.org/2000/svg">
<g clip-path="url(#clip0_749_55431)">
<path d="M22.9475 20.9732H7.4097C6.27794 20.9732 5.35718 20.0546 5.35718 18.9249V8.28962C5.35718 7.16001 6.27794 6.24109 7.4097 6.24109H22.9475C24.0793 6.24109 25 7.16001 25 8.28962V18.9245C25 20.0543 24.0793 20.9732 22.9475 20.9732ZM7.4097 7.46877C6.95485 7.46877 6.58486 7.83692 6.58486 8.28962V18.9249C6.58486 19.3773 6.95485 19.7456 7.4097 19.7456H22.9475C23.4024 19.7456 23.7724 19.3776 23.7724 18.9245V8.28962C23.7724 7.83692 23.4024 7.46877 22.9475 7.46877H7.4097Z" fill="#B4B4FA"/>
<path d="M12.5301 11.9221C13.2566 11.9221 13.8455 11.3331 13.8455 10.6066C13.8455 9.88009 13.2566 9.29114 12.5301 9.29114C11.8036 9.29114 11.2146 9.88009 11.2146 10.6066C11.2146 11.3331 11.8036 11.9221 12.5301 11.9221Z" fill="#B4B4FA"/>
<path d="M16.787 11.131C16.6152 11.131 16.4438 11.2438 16.3134 11.4692L13.6671 16.0531C13.4228 15.6292 12.5321 14.0871 12.5321 14.0871C12.402 13.8616 12.2306 13.749 12.059 13.749C11.8876 13.749 11.716 13.8616 11.5859 14.0871C11.5859 14.0871 10.5023 15.9642 10.2416 16.4152L9.84397 17.1044C9.58385 17.5553 9.79639 17.9233 10.3172 17.9233H20.0403C20.5604 17.9233 20.7729 17.5553 20.5139 17.1044L17.2599 11.4692C17.1301 11.2438 16.9588 11.131 16.787 11.131Z" fill="#B4B4FA"/>
</g>
<path d="M2.70068 22.8259V9.07593" stroke="#B4B4FA" stroke-width="0.45" stroke-miterlimit="10" stroke-linecap="round" stroke-linejoin="round"/>
<path d="M1.22754 10.0581L2.70075 8.58484L4.17397 10.0581" stroke="#B4B4FA" stroke-width="0.45" stroke-miterlimit="10" stroke-linecap="round" stroke-linejoin="round"/>
<path d="M4.17407 24.2991H17.433" stroke="#B4B4FA" stroke-width="0.45" stroke-miterlimit="10" stroke-linecap="round" stroke-linejoin="round"/>
<path d="M16.4507 22.8259L17.9239 24.2991L16.4507 25.7724" stroke="#B4B4FA" stroke-width="0.45" stroke-miterlimit="10" stroke-linecap="round" stroke-linejoin="round"/>
<path d="M2.70079 24.7902C2.972 24.7902 3.19186 24.5704 3.19186 24.2992C3.19186 24.028 2.972 23.8081 2.70079 23.8081C2.42958 23.8081 2.20972 24.028 2.20972 24.2992C2.20972 24.5704 2.42958 24.7902 2.70079 24.7902Z" fill="#B4B4FA"/>
<g clip-path="url(#clip1_749_55431)">
<path d="M31.6098 10.3841C31.9451 10.3841 32.2195 10.1097 32.2195 9.7743V6.87796H35.1159C35.4512 6.87796 35.7256 6.60357 35.7256 6.2682C35.7256 5.93284 35.4512 5.65845 35.1159 5.65845H31.6098C31.2744 5.65845 31 5.93284 31 6.2682V9.7743C31 10.1097 31.2744 10.3841 31.6098 10.3841Z" fill="#B4B4FA"/>
<path d="M34.2012 20.2926H32.2195V17.3963C32.2195 17.0609 31.9451 16.7865 31.6098 16.7865C31.2744 16.7865 31 17.0609 31 17.3963V20.9024C31 21.2377 31.2744 21.5121 31.6098 21.5121H34.2012C34.5366 21.5121 34.811 21.2377 34.811 20.9024C34.811 20.567 34.5366 20.2926 34.2012 20.2926Z" fill="#B4B4FA"/>
<path d="M49.9025 5.65845H46.3964C46.061 5.65845 45.7866 5.93284 45.7866 6.2682C45.7866 6.60357 46.061 6.87796 46.3964 6.87796H49.2927V8.24991C49.2927 8.58528 49.5671 8.55479 49.9025 8.55479C50.2378 8.55479 50.5122 8.58528 50.5122 8.24991V6.2682C50.5122 5.93284 50.2378 5.65845 49.9025 5.65845Z" fill="#B4B4FA"/>
</g>
<g clip-path="url(#clip2_749_55431)">
<path d="M34.3537 12.2132C34.689 12.2132 34.9634 11.9388 34.9634 11.6034V8.70706H37.8598C38.1951 8.70706 38.4695 8.43267 38.4695 8.0973C38.4695 7.76194 38.1951 7.48755 37.8598 7.48755H34.3537C34.0183 7.48755 33.7439 7.76194 33.7439 8.0973V11.6034C33.7439 11.9388 34.0183 12.2132 34.3537 12.2132Z" fill="#B4B4FA"/>
<path d="M36.7927 22.1217H34.9634V19.2254C34.9634 18.89 34.689 18.6156 34.3537 18.6156C34.0183 18.6156 33.7439 18.89 33.7439 19.2254V22.7315C33.7439 23.0668 34.0183 23.3412 34.3537 23.3412H36.7927C37.128 23.3412 37.4024 23.0668 37.4024 22.7315C37.4024 22.3961 37.128 22.1217 36.7927 22.1217Z" fill="#B4B4FA"/>
<path d="M52.6464 7.48755H49.1403C48.8049 7.48755 48.5305 7.76194 48.5305 8.0973C48.5305 8.43267 48.8049 8.70706 49.1403 8.70706H52.0366V9.92657C52.0366 10.2619 52.311 10.5363 52.6464 10.5363C52.9817 10.5363 53.2561 10.2619 53.2561 9.92657V8.0973C53.2561 7.76194 52.9817 7.48755 52.6464 7.48755Z" fill="#B4B4FA"/>
</g>
<g clip-path="url(#clip3_749_55431)">
<path d="M37.0973 14.0426C37.4327 14.0426 37.7071 13.7682 37.7071 13.4329V10.5365H40.6034C40.9388 10.5365 41.2132 10.2621 41.2132 9.92677C41.2132 9.59141 40.9388 9.31702 40.6034 9.31702H37.0973C36.7619 9.31702 36.4875 9.59141 36.4875 9.92677V13.4329C36.4875 13.7682 36.7619 14.0426 37.0973 14.0426Z" fill="#B4B4FA"/>
<path d="M40.6034 23.9512H37.7071V21.0548C37.7071 20.7195 37.4327 20.4451 37.0973 20.4451C36.7619 20.4451 36.4875 20.7195 36.4875 21.0548V24.5609C36.4875 24.8963 36.7619 25.1707 37.0973 25.1707H40.6034C40.9388 25.1707 41.2132 24.8963 41.2132 24.5609C41.2132 24.2256 40.9388 23.9512 40.6034 23.9512Z" fill="#B4B4FA"/>
<path d="M55.39 20.4451C55.0547 20.4451 54.7803 20.7195 54.7803 21.0548V23.9512H51.8839C51.5486 23.9512 51.2742 24.2256 51.2742 24.5609C51.2742 24.8963 51.5486 25.1707 51.8839 25.1707H55.39C55.7254 25.1707 55.9998 24.8963 55.9998 24.5609V21.0548C55.9998 20.7195 55.7254 20.4451 55.39 20.4451Z" fill="#B4B4FA"/>
<path d="M55.39 9.31702H51.8839C51.5486 9.31702 51.2742 9.59141 51.2742 9.92677C51.2742 10.2621 51.5486 10.5365 51.8839 10.5365H54.7803V13.4329C54.7803 13.7682 55.0547 14.0426 55.39 14.0426C55.7254 14.0426 55.9998 13.7682 55.9998 13.4329V9.92677C55.9998 9.59141 55.7254 9.31702 55.39 9.31702Z" fill="#B4B4FA"/>
<path d="M49.1706 17.8536H51.5182C51.8535 17.8536 52.1279 17.5793 52.1279 17.2439C52.1279 16.9085 51.8535 16.6341 51.5182 16.6341H49.1706C48.9267 15.4756 48.0121 14.561 46.8535 14.3171V11.9695C46.8535 11.6341 46.5791 11.3597 46.2438 11.3597C45.9084 11.3597 45.634 11.6341 45.634 11.9695V14.3171C44.4755 14.561 43.5608 15.4756 43.3169 16.6341H40.9694C40.634 16.6341 40.3596 16.9085 40.3596 17.2439C40.3596 17.5793 40.634 17.8536 40.9694 17.8536H43.3169C43.5608 19.0122 44.4755 19.9268 45.634 20.1707V22.5183C45.634 22.8536 45.9084 23.128 46.2438 23.128C46.5791 23.128 46.8535 22.8536 46.8535 22.5183V20.1707C48.0121 19.9268 48.9267 19.0122 49.1706 17.8536ZM46.2438 19.0122C45.2682 19.0122 44.4755 18.2195 44.4755 17.2439C44.4755 16.2683 45.2682 15.4756 46.2438 15.4756C47.2194 15.4756 48.0121 16.2683 48.0121 17.2439C48.0121 18.2195 47.2194 19.0122 46.2438 19.0122Z" fill="#B4B4FA"/>
</g>
<path d="M80.9637 27H62.2671C62.1194 27 62 26.8785 62 26.7283V2.27174C62 2.12147 62.1194 2 62.2671 2H80.9637C81.1114 2 81.2308 2.12147 81.2308 2.27174V26.7283C81.2308 26.8785 81.1111 27 80.9637 27ZM62.5342 26.4565H80.6966V2.54348H62.5342V26.4565Z" fill="#B4B4FA"/>
<path d="M79.0728 4.16979H64.1575C64.0278 4.16979 63.9229 4.11459 63.9229 4.04632C63.9229 3.97805 64.0278 3.92285 64.1575 3.92285H79.0728C79.2026 3.92285 79.3075 3.97805 79.3075 4.04632C79.3075 4.11459 79.2021 4.16979 79.0728 4.16979Z" fill="#B4B4FA"/>
<path d="M79.0728 8.01622H64.1575C64.0278 8.01622 63.9229 7.96103 63.9229 7.89276C63.9229 7.82448 64.0278 7.76929 64.1575 7.76929H79.0728C79.2026 7.76929 79.3075 7.82448 79.3075 7.89276C79.3075 7.96103 79.2021 8.01622 79.0728 8.01622Z" fill="#B4B4FA"/>
<path d="M79.0728 11.8623H64.1575C64.0278 11.8623 63.9229 11.8071 63.9229 11.7388C63.9229 11.6706 64.0278 11.6154 64.1575 11.6154H79.0728C79.2026 11.6154 79.3075 11.6706 79.3075 11.7388C79.3075 11.8071 79.2021 11.8623 79.0728 11.8623Z" fill="#B4B4FA"/>
<path d="M79.0728 15.7084H64.1575C64.0278 15.7084 63.9229 15.6532 63.9229 15.5849C63.9229 15.5166 64.0278 15.4614 64.1575 15.4614H79.0728C79.2026 15.4614 79.3075 15.5166 79.3075 15.5849C79.3075 15.6532 79.2021 15.7084 79.0728 15.7084Z" fill="#B4B4FA"/>
<path d="M79.0728 19.5549H64.1575C64.0278 19.5549 63.9229 19.4997 63.9229 19.4315C63.9229 19.3632 64.0278 19.308 64.1575 19.308H79.0728C79.2026 19.308 79.3075 19.3632 79.3075 19.4315C79.3075 19.4997 79.2021 19.5549 79.0728 19.5549Z" fill="#B4B4FA"/>
<path d="M79.1022 5.13182H66.0513C65.9377 5.13182 65.8459 5.07663 65.8459 5.00836C65.8459 4.94008 65.9377 4.88489 66.0513 4.88489H79.1022C79.2157 4.88489 79.3075 4.94008 79.3075 5.00836C79.3075 5.07663 79.2153 5.13182 79.1022 5.13182Z" fill="#B4B4FA"/>
<path d="M79.1022 8.97741H66.0513C65.9377 8.97741 65.8459 8.92221 65.8459 8.85394C65.8459 8.78566 65.9377 8.73047 66.0513 8.73047H79.1022C79.2157 8.73047 79.3075 8.78566 79.3075 8.85394C79.3075 8.92221 79.2153 8.97741 79.1022 8.97741Z" fill="#B4B4FA"/>
<path d="M79.1022 12.824H66.0513C65.9377 12.824 65.8459 12.7688 65.8459 12.7005C65.8459 12.6322 65.9377 12.577 66.0513 12.577H79.1022C79.2157 12.577 79.3075 12.6322 79.3075 12.7005C79.3075 12.7688 79.2153 12.824 79.1022 12.824Z" fill="#B4B4FA"/>
<path d="M79.1022 16.67H66.0513C65.9377 16.67 65.8459 16.6148 65.8459 16.5466C65.8459 16.4783 65.9377 16.4231 66.0513 16.4231H79.1022C79.2157 16.4231 79.3075 16.4783 79.3075 16.5466C79.3075 16.6148 79.2153 16.67 79.1022 16.67Z" fill="#B4B4FA"/>
<path d="M79.1022 20.5161H66.0513C65.9377 20.5161 65.8459 20.4609 65.8459 20.3926C65.8459 20.3244 65.9377 20.2692 66.0513 20.2692H79.1022C79.2157 20.2692 79.3075 20.3244 79.3075 20.3926C79.3075 20.4609 79.2153 20.5161 79.1022 20.5161Z" fill="#B4B4FA"/>
<path d="M79.1022 6.09301H66.0513C65.9377 6.09301 65.8459 6.03781 65.8459 5.96954C65.8459 5.90126 65.9377 5.84607 66.0513 5.84607H79.1022C79.2157 5.84607 79.3075 5.90126 79.3075 5.96954C79.3075 6.03781 79.2153 6.09301 79.1022 6.09301Z" fill="#B4B4FA"/>
<path d="M79.1022 9.93944H66.0513C65.9377 9.93944 65.8459 9.88425 65.8459 9.81597C65.8459 9.7477 65.9377 9.6925 66.0513 9.6925H79.1022C79.2157 9.6925 79.3075 9.7477 79.3075 9.81597C79.3075 9.88425 79.2153 9.93944 79.1022 9.93944Z" fill="#B4B4FA"/>
<path d="M79.1022 13.7851H66.0513C65.9377 13.7851 65.8459 13.73 65.8459 13.6617C65.8459 13.5934 65.9377 13.5382 66.0513 13.5382H79.1022C79.2157 13.5382 79.3075 13.5934 79.3075 13.6617C79.3075 13.73 79.2153 13.7851 79.1022 13.7851Z" fill="#B4B4FA"/>
<path d="M79.1022 17.6316H66.0513C65.9377 17.6316 65.8459 17.5764 65.8459 17.5081C65.8459 17.4398 65.9377 17.3846 66.0513 17.3846H79.1022C79.2157 17.3846 79.3075 17.4398 79.3075 17.5081C79.3075 17.5764 79.2153 17.6316 79.1022 17.6316Z" fill="#B4B4FA"/>
<path d="M79.1022 21.4776H66.0513C65.9377 21.4776 65.8459 21.4225 65.8459 21.3542C65.8459 21.2859 65.9377 21.2307 66.0513 21.2307H79.1022C79.2157 21.2307 79.3075 21.2859 79.3075 21.3542C79.3075 21.4225 79.2153 21.4776 79.1022 21.4776Z" fill="#B4B4FA"/>
<g clip-path="url(#clip4_749_55431)">
<path d="M112.13 13.9955L108.126 6.88413C107.99 6.64233 107.734 6.49214 107.46 6.49214C107.321 6.49214 107.185 6.53022 107.066 6.60269L105.44 7.59429C105.082 7.81187 104.96 8.28862 105.167 8.65659L105.393 9.05776C105.091 9.15815 104.797 9.21851 104.557 9.19839C104.297 9.17671 103.96 9.09761 103.57 9.00601C102.892 8.84663 102.047 8.64819 101.129 8.64819L101.065 8.64839C99.7171 8.66128 97.3796 8.7898 96.8706 9.50581C96.8042 9.59937 96.7236 9.7103 96.638 9.82808C96.5037 9.80562 96.3607 9.78374 96.2058 9.76089C95.7591 9.69487 95.1476 9.60464 94.9337 9.48335C94.7572 9.38335 94.4361 9.18569 94.1105 8.98198L94.2937 8.65679C94.5011 8.28843 94.379 7.81167 94.022 7.59468L92.3947 6.60249C92.2761 6.53022 92.1402 6.49194 92.0019 6.49194C91.7267 6.49194 91.471 6.64253 91.3351 6.88452L87.3314 13.9962C87.1249 14.364 87.247 14.8404 87.6037 15.0584L89.2308 16.0501C89.3494 16.1222 89.4851 16.1603 89.6232 16.1603C89.8982 16.1603 90.154 16.0099 90.2904 15.7677L90.6121 15.196L90.9035 15.5201C90.9494 15.5771 91.2228 15.9175 91.5962 16.3841L91.4847 16.5353C91.0708 17.0982 91.2152 17.9523 91.8064 18.4396C92.0425 18.6343 92.3257 18.7503 92.6134 18.7732C92.5812 19.2257 92.7751 19.7085 93.1665 20.0316C93.4308 20.2494 93.7542 20.3695 94.0773 20.3695C94.1587 20.3695 94.2376 20.3601 94.315 20.3455C94.39 20.6529 94.5648 20.9459 94.8308 21.165C95.0958 21.3835 95.4197 21.5035 95.7431 21.5035C95.8796 21.5035 96.0111 21.481 96.1345 21.4406C96.2201 21.7144 96.3849 21.9722 96.6247 22.1695C96.8896 22.3871 97.2134 22.5072 97.5363 22.5072C97.9287 22.5072 98.283 22.3322 98.508 22.0265L98.7091 21.7539C99.5499 22.046 100.073 22.1466 100.177 22.1648C100.274 22.1882 100.613 22.2638 101.012 22.2638C101.329 22.2638 101.682 22.2162 101.978 22.056C102.417 21.8203 102.73 21.4255 102.898 21.1736C103.18 21.1882 103.62 21.1687 103.94 20.9591C104.361 20.6834 104.51 20.2042 104.562 19.8552C104.866 19.8419 105.268 19.7763 105.55 19.5486C105.939 19.232 106.064 18.8189 106.092 18.4853C106.582 18.5189 107.17 18.3798 107.507 17.7634C107.754 17.3097 107.752 16.8376 107.518 16.4107C107.708 16.3009 107.937 16.1459 108.183 15.9222C108.344 15.7763 108.461 15.6542 108.564 15.5462C108.666 15.4396 108.757 15.3451 108.876 15.2425L109.171 15.7669C109.308 16.0093 109.563 16.1599 109.838 16.1599C109.977 16.1599 110.112 16.1216 110.231 16.0492L111.858 15.0574C112.215 14.8404 112.337 14.364 112.13 13.9955ZM105.846 8.26147L107.453 7.28179L111.452 14.3904L109.844 15.3701L105.846 8.26147ZM107.998 15.0074C107.9 15.1101 107.799 15.2164 107.658 15.3435C107.39 15.5875 107.147 15.7302 106.989 15.8083C106.987 15.8091 106.985 15.8105 106.983 15.8113L106.587 15.4847L106.58 15.4791C106.556 15.4589 106.202 15.1617 105.452 14.607C104.942 14.2287 104.25 13.7322 103.348 13.1177C103.231 13.0386 102.847 12.7908 102.777 12.747C101.446 11.916 99.8165 11.1005 99.7378 11.0613C99.6831 11.0341 99.6234 11.0203 99.5634 11.0203C99.5236 11.0203 99.4837 11.0263 99.4447 11.0382L98.4234 11.363C98.3333 11.3917 98.2564 11.4527 98.2074 11.5335C98.1986 11.548 97.3095 12.9908 95.9945 13.0925C95.9316 13.0988 95.8734 13.1023 95.8195 13.1023C95.6824 13.1023 95.6318 13.0785 95.6294 13.0808C95.624 13.0671 95.5919 12.9648 95.6792 12.6507C95.9439 12.1304 97.3609 10.1625 97.4445 10.046C97.465 10.0173 97.4886 9.98511 97.5076 9.95855C97.6865 9.7187 99.1001 9.44839 101.072 9.42964L101.13 9.42944C101.957 9.42944 102.719 9.60854 103.391 9.76655C103.812 9.86519 104.174 9.95054 104.493 9.9769C104.883 10.0097 105.342 9.9021 105.78 9.7437L108.486 14.5509C108.464 14.5685 108.119 14.881 107.998 15.0074ZM89.6171 15.3707L88.0122 14.3791L92.0081 7.28198L93.6128 8.27378L89.6171 15.3707ZM97.8792 21.5634C97.7747 21.7056 97.6195 21.7265 97.5363 21.7265C97.3939 21.7265 97.2464 21.6697 97.1212 21.5671C96.9353 21.4142 96.8386 21.1876 96.8482 20.9857C96.8525 20.8919 96.8777 20.8029 96.9314 20.73L96.9316 20.7296L96.9994 20.6376L97.2429 20.3074L97.7435 19.6283C97.8484 19.4859 98.0038 19.4646 98.0872 19.4646C98.2294 19.4646 98.3769 19.5214 98.5023 19.6244C98.7744 19.848 98.8609 20.2316 98.6917 20.4617L98.4292 20.8175L97.949 21.4687L97.8792 21.5634ZM95.7429 20.7228C95.6005 20.7228 95.4531 20.666 95.3275 20.5626C95.1574 20.4228 95.0597 20.2207 95.0519 20.0326C95.0494 19.9697 95.0591 19.9095 95.0771 19.8525C95.0915 19.8072 95.1101 19.7634 95.1386 19.7251L95.4208 19.3419L96.4914 17.8892C96.5226 17.8468 96.5583 17.8162 96.5953 17.7927C96.6824 17.7371 96.7765 17.7255 96.8349 17.7255C96.9771 17.7255 97.1244 17.7824 97.249 17.8849C97.5214 18.1091 97.6083 18.4929 97.4388 18.7228L96.53 19.9562L96.0859 20.5593C96.0771 20.5714 96.0675 20.5812 96.058 20.5917C95.9552 20.7042 95.8191 20.7228 95.7429 20.7228ZM93.4244 18.6794C93.4374 18.6482 93.4535 18.6183 93.4738 18.5908L93.8751 18.046L93.8947 18.0197L94.2306 17.5642C94.2318 17.5626 94.2326 17.5609 94.2337 17.5595L95.1513 16.3142C95.2566 16.1718 95.4122 16.1507 95.4958 16.1507C95.638 16.1507 95.7851 16.2074 95.9105 16.3107C96.1831 16.5343 96.2695 16.9177 96.0999 17.1484L96.0267 17.2478C95.9669 17.3011 95.9113 17.3597 95.8628 17.4257L94.7777 18.8984L94.5101 19.2613C94.4646 19.3226 94.4271 19.388 94.3951 19.4554C94.3683 19.4847 94.3396 19.508 94.3099 19.5257C94.2246 19.5773 94.1341 19.5882 94.0771 19.5882C93.9351 19.5882 93.788 19.5318 93.6636 19.4292C93.424 19.2314 93.3283 18.9103 93.4244 18.6794ZM92.1027 17.0187C92.1068 17.0123 92.1091 17.005 92.1136 16.9988L92.5806 16.3652L92.6537 16.2662C92.7587 16.1238 92.9144 16.1029 92.9978 16.1029C93.1402 16.1029 93.2872 16.1595 93.4128 16.2626C93.6845 16.4857 93.7712 16.8671 93.6037 17.0976C93.6031 17.0984 93.6027 17.0996 93.6021 17.1003L93.3923 17.3845L93.3339 17.4634L93.0613 17.8332C93.0037 17.9115 92.9308 17.9525 92.8628 17.9744C92.8074 17.9921 92.755 17.997 92.7175 17.997C92.5753 17.997 92.4283 17.9404 92.3031 17.8373C92.0384 17.6191 91.9513 17.2503 92.1027 17.0187ZM106.821 17.3898C106.607 17.782 106.16 17.7294 105.938 17.6746L102.257 15.464C102.072 15.3533 101.832 15.4126 101.721 15.598C101.61 15.7826 101.67 16.023 101.855 16.1339L105.313 18.2101C105.331 18.3851 105.326 18.7244 105.058 18.9425C104.917 19.0564 104.556 19.0857 104.312 19.0736L101.202 17.2738C101.015 17.1658 100.776 17.2294 100.668 17.4162C100.56 17.6029 100.624 17.8419 100.811 17.9498L103.795 19.6773C103.772 19.8876 103.702 20.183 103.513 20.3066C103.351 20.413 102.972 20.4111 102.757 20.3761C102.743 20.3738 102.73 20.3767 102.716 20.3757L100.119 19.1216C99.9247 19.0275 99.691 19.1095 99.5974 19.3035C99.5035 19.4978 99.5849 19.7314 99.7792 19.8251L102.098 20.9451C101.974 21.0964 101.808 21.2619 101.609 21.3689C101.244 21.5652 100.579 21.4609 100.355 21.4044C100.343 21.4015 100.332 21.3994 100.32 21.3972C100.313 21.396 99.9068 21.3269 99.1966 21.0939L99.3206 20.9257C99.7349 20.3623 99.5904 19.5082 98.9984 19.0214C98.7863 18.847 98.5365 18.7367 98.2796 18.6992C98.3763 18.2041 98.1841 17.6433 97.7462 17.2826C97.5162 17.0931 97.2415 16.9779 96.9615 16.9511C96.9888 16.5021 96.7947 16.0265 96.407 15.7085C96.1427 15.4904 95.8191 15.3703 95.4956 15.3703C95.1033 15.3703 94.7488 15.5453 94.5226 15.8509L94.3023 16.15C94.2087 15.9669 94.0779 15.7982 93.9091 15.6597C93.6445 15.4419 93.3208 15.322 92.9978 15.322C92.6349 15.322 92.3056 15.4736 92.079 15.7382C91.7417 15.3171 91.5109 15.0298 91.5052 15.0228C91.5007 15.0173 91.496 15.0119 91.4912 15.0066L91.0163 14.4785L93.7271 9.66401C94.0497 9.86558 94.3667 10.0605 94.549 10.1636C94.8894 10.3566 95.5007 10.447 96.0919 10.5343C96.1023 10.5359 96.1128 10.5375 96.1232 10.539C95.6808 11.1556 95.2091 11.8412 94.9638 12.3355C94.9535 12.3562 94.9451 12.3777 94.9386 12.4C94.8431 12.7289 94.7456 13.206 95.0035 13.5494C95.1705 13.7716 95.4451 13.8843 95.8197 13.8843C95.8976 13.8843 95.9822 13.8796 96.0638 13.8714C97.5244 13.7585 98.5083 12.4834 98.7931 12.0662L99.5294 11.832C99.9632 12.0531 101.316 12.7535 102.411 13.4402C102.446 13.4623 102.877 13.7427 102.908 13.7638C103.848 14.4046 104.563 14.9199 105.075 15.3009C105.419 15.5636 105.777 15.84 106.065 16.0677C106.074 16.075 106.079 16.0792 106.08 16.0798L106.639 16.5406C107.015 16.9052 106.925 17.1994 106.821 17.3898Z" fill="#B4B4FA"/>
</g>
<g clip-path="url(#clip5_749_55431)">
<path d="M136.229 27H118.484C118.344 27 118.231 26.8866 118.231 26.7463V3.92025C118.231 3.78 118.344 3.66663 118.484 3.66663H136.229C136.37 3.66663 136.483 3.78 136.483 3.92025V26.7463C136.483 26.8866 136.369 27 136.229 27ZM118.738 26.4927H135.976V4.17387H118.738V26.4927Z" fill="#B4B4FA"/>
<path d="M120.083 15.2925H117.6C117.488 15.2925 117.397 15.2034 117.397 15.0933C117.397 14.9832 117.488 14.894 117.6 14.894H120.083C120.195 14.894 120.285 14.9832 120.285 15.0933C120.285 15.2034 120.195 15.2925 120.083 15.2925Z" fill="#B4B4FA"/>
<path d="M120.083 17.7341H117.6C117.488 17.7341 117.397 17.645 117.397 17.5349C117.397 17.4248 117.488 17.3357 117.6 17.3357H120.083C120.195 17.3357 120.285 17.4248 120.285 17.5349C120.285 17.645 120.195 17.7341 120.083 17.7341Z" fill="#B4B4FA"/>
<path d="M120.083 20.1753H117.6C117.488 20.1753 117.397 20.0862 117.397 19.9761C117.397 19.866 117.488 19.7769 117.6 19.7769H120.083C120.195 19.7769 120.285 19.866 120.285 19.9761C120.285 20.0862 120.195 20.1753 120.083 20.1753Z" fill="#B4B4FA"/>
<path d="M120.083 22.617H117.6C117.488 22.617 117.397 22.5278 117.397 22.4177C117.397 22.3076 117.488 22.2185 117.6 22.2185H120.083C120.195 22.2185 120.285 22.3076 120.285 22.4177C120.285 22.5278 120.195 22.617 120.083 22.617Z" fill="#B4B4FA"/>
<path d="M120.083 25.0582H117.6C117.488 25.0582 117.397 24.9691 117.397 24.859C117.397 24.7489 117.488 24.6598 117.6 24.6598H120.083C120.195 24.6598 120.285 24.7489 120.285 24.859C120.285 24.9691 120.195 25.0582 120.083 25.0582Z" fill="#B4B4FA"/>
<path d="M120.083 10.4096H117.6C117.488 10.4096 117.397 10.3204 117.397 10.2103C117.397 10.1002 117.488 10.0111 117.6 10.0111H120.083C120.195 10.0111 120.285 10.1002 120.285 10.2103C120.285 10.3204 120.195 10.4096 120.083 10.4096Z" fill="#B4B4FA"/>
<path d="M120.083 12.8508H117.6C117.488 12.8508 117.397 12.7617 117.397 12.6516C117.397 12.5415 117.488 12.4524 117.6 12.4524H120.083C120.195 12.4524 120.285 12.5415 120.285 12.6516C120.285 12.7617 120.195 12.8508 120.083 12.8508Z" fill="#B4B4FA"/>
<path d="M120.083 5.52686H117.6C117.488 5.52686 117.397 5.43775 117.397 5.32764C117.397 5.21753 117.488 5.12842 117.6 5.12842H120.083C120.195 5.12842 120.285 5.21753 120.285 5.32764C120.285 5.43775 120.195 5.52686 120.083 5.52686Z" fill="#B4B4FA"/>
<path d="M120.083 7.96839H117.6C117.488 7.96839 117.397 7.87928 117.397 7.76917C117.397 7.65906 117.488 7.56995 117.6 7.56995H120.083C120.195 7.56995 120.285 7.65906 120.285 7.76917C120.285 7.87928 120.195 7.96839 120.083 7.96839Z" fill="#B4B4FA"/>
<path d="M131.869 12.774H123.38C122.588 12.774 121.945 12.1412 121.945 11.3634V9.05814C121.945 8.28004 122.589 7.64722 123.38 7.64722H131.869C132.66 7.64722 133.303 8.28029 133.303 9.05814V11.3634C133.303 12.1412 132.66 12.774 131.869 12.774ZM123.38 7.89112C122.725 7.89112 122.193 8.41457 122.193 9.0579V11.3631C122.193 12.0065 122.725 12.5297 123.38 12.5297H131.869C132.523 12.5297 133.055 12.0062 133.055 11.3631V9.0579C133.055 8.41433 132.523 7.89112 131.869 7.89112H123.38Z" fill="#B4B4FA"/>
<path d="M131.162 9.37928H123.713C123.649 9.37928 123.596 9.32776 123.596 9.26404C123.596 9.20032 123.649 9.1488 123.713 9.1488H131.162C131.226 9.1488 131.279 9.20032 131.279 9.26404C131.279 9.32776 131.226 9.37928 131.162 9.37928Z" fill="#B4B4FA"/>
<path d="M131.162 10.3566H123.713C123.649 10.3566 123.596 10.3051 123.596 10.2413C123.596 10.1776 123.649 10.1261 123.713 10.1261H131.162C131.226 10.1261 131.279 10.1776 131.279 10.2413C131.279 10.3051 131.226 10.3566 131.162 10.3566Z" fill="#B4B4FA"/>
<path d="M131.162 11.3329H123.713C123.649 11.3329 123.596 11.2814 123.596 11.2177C123.596 11.1539 123.649 11.1024 123.713 11.1024H131.162C131.226 11.1024 131.279 11.1539 131.279 11.2177C131.279 11.2814 131.226 11.3329 131.162 11.3329Z" fill="#B4B4FA"/>
</g>
<defs>
<clipPath id="clip0_749_55431">
<rect width="19.6429" height="19.6429" fill="white" transform="translate(5.35718 3.78577)"/>
</clipPath>
<clipPath id="clip1_749_55431">
<rect width="19.5122" height="19.5122" fill="white" transform="translate(31 3.82922)"/>
</clipPath>
<clipPath id="clip2_749_55431">
<rect width="19.5122" height="19.5122" fill="white" transform="translate(33.7439 5.65833)"/>
</clipPath>
<clipPath id="clip3_749_55431">
<rect width="19.5122" height="19.5122" fill="white" transform="translate(36.4875 7.48779)"/>
</clipPath>
<clipPath id="clip4_749_55431">
<rect width="25" height="25" fill="white" transform="translate(87.2307 2)"/>
</clipPath>
<clipPath id="clip5_749_55431">
<rect width="25" height="25" fill="white" transform="translate(118.231 2)"/>
</clipPath>
</defs>
</svg>
