<svg width="50" height="14" viewBox="0 0 50 14" fill="none" xmlns="http://www.w3.org/2000/svg">
<path d="M7 13C6.65553 12.9653 6.33042 12.8241 6.06983 12.5962C5.92154 12.476 5.75474 12.3806 5.57593 12.3137C5.3797 12.2796 5.1792 12.278 4.98243 12.3088C4.65093 12.3746 4.30716 12.3354 3.99903 12.1965C3.72314 11.9961 3.51586 11.7153 3.40553 11.3926C3.33517 11.2099 3.23565 11.0398 3.11086 10.8889C2.96003 10.7641 2.78993 10.6645 2.6072 10.5942C2.2844 10.4841 2.00358 10.2768 1.80324 10.0007C1.66424 9.69274 1.62506 9.34897 1.69117 9.01759C1.72158 8.8207 1.71993 8.6202 1.68629 8.42384C1.61938 8.24513 1.52399 8.07842 1.40383 7.93018C1.17587 7.66959 1.03473 7.34448 1 7C1.03473 6.65553 1.17586 6.33042 1.40381 6.06983C1.52403 5.92154 1.61943 5.75474 1.68628 5.57593C1.72004 5.37967 1.72169 5.17922 1.69116 4.98243C1.62523 4.65094 1.6645 4.30713 1.80347 3.99903C2.00394 3.72312 2.28471 3.51584 2.60742 3.4055C2.79013 3.33513 2.96022 3.23561 3.11108 3.11082C3.23593 2.96 3.33545 2.78989 3.40576 2.60716C3.51591 2.28436 3.72322 2.00354 3.99926 1.80321C4.30727 1.66425 4.65103 1.62507 4.98241 1.69114C5.17931 1.72129 5.37978 1.71964 5.57616 1.68626C5.75487 1.61935 5.92158 1.52396 6.06982 1.40379C6.33041 1.17585 6.65553 1.03472 7 1C7.34447 1.03473 7.66958 1.17586 7.93017 1.40381C8.07846 1.52403 8.24526 1.61943 8.42407 1.68628C8.62037 1.71967 8.82075 1.72132 9.01757 1.69116C9.34906 1.62525 9.69287 1.66451 10.001 1.80347C10.2769 2.00394 10.4841 2.28471 10.5945 2.60742C10.6648 2.79013 10.7644 2.96022 10.8891 3.11108C11.04 3.23593 11.2101 3.33545 11.3928 3.40576C11.7156 3.51591 11.9964 3.72322 12.1968 3.99926C12.3358 4.30726 12.3749 4.65103 12.3088 4.98241C12.2784 5.17929 12.2801 5.3798 12.3137 5.57616C12.3806 5.75487 12.476 5.92158 12.5962 6.06982C12.8241 6.33041 12.9653 6.65552 13 7C12.9653 7.34447 12.8241 7.66958 12.5962 7.93017C12.476 8.07846 12.3806 8.24526 12.3137 8.42407C12.28 8.62033 12.2783 8.82078 12.3088 9.01757C12.3748 9.34906 12.3355 9.69287 12.1965 10.001C11.9961 10.2769 11.7153 10.4841 11.3926 10.5945C11.2099 10.6648 11.0398 10.7644 10.8889 10.8891C10.7641 11.04 10.6645 11.2101 10.5942 11.3928C10.4841 11.7156 10.2768 11.9964 10.0007 12.1968C9.69279 12.336 9.34896 12.3751 9.01759 12.3088C8.82074 12.2779 8.62015 12.2796 8.42384 12.3137C8.24513 12.3806 8.07842 12.476 7.93018 12.5962C7.66959 12.8241 7.34448 12.9653 7 13ZM5.33154 11.7874C5.45742 11.7854 5.58301 11.8 5.70508 11.8308C5.94228 11.9107 6.16358 12.0317 6.35888 12.1882C6.53896 12.3505 6.76119 12.4585 7 12.5C7.23881 12.4585 7.46104 12.3505 7.64112 12.1882C7.83636 12.0317 8.05758 11.9108 8.29468 11.8308C8.54738 11.7791 8.80721 11.7723 9.06225 11.8108C9.29152 11.8587 9.52955 11.8426 9.75025 11.7642C9.93156 11.6106 10.0666 11.4096 10.1401 11.1836C10.2329 10.9461 10.3667 10.7268 10.5354 10.5357C10.7265 10.3669 10.9459 10.2331 11.1834 10.1404C11.4092 10.0666 11.6102 9.93166 11.7639 9.75051C11.8425 9.52976 11.8587 9.29164 11.8108 9.06227C11.7727 8.80729 11.7795 8.5476 11.8308 8.29494C11.9107 8.05774 12.0317 7.83644 12.1882 7.64114C12.3505 7.46106 12.4585 7.23881 12.5 7C12.4585 6.76119 12.3505 6.53896 12.1882 6.35888C12.0317 6.16364 11.9108 5.94242 11.8308 5.70532C11.7795 5.45258 11.7727 5.19281 11.8108 4.93775C11.8589 4.70849 11.8427 4.47042 11.7642 4.24974C11.6106 4.06844 11.4096 3.93344 11.1836 3.85985C10.9461 3.76712 10.7268 3.63332 10.5357 3.46459C10.3669 3.27346 10.2331 3.05413 10.1404 2.81664C10.0666 2.59079 9.93165 2.38982 9.7505 2.23609C9.52968 2.15787 9.29165 2.14165 9.06227 2.18921C8.80728 2.22745 8.54757 2.22068 8.29493 2.16921C8.05773 2.08931 7.83643 1.96833 7.64113 1.81179C7.46105 1.64954 7.23881 1.54146 7 1.5C6.76119 1.54146 6.53896 1.64953 6.35888 1.81177C6.16364 1.96826 5.94242 2.08923 5.70532 2.16919C5.45259 2.22064 5.19281 2.22741 4.93775 2.18919C4.70852 2.14073 4.47034 2.15688 4.24974 2.23582C4.06844 2.38943 3.93344 2.59044 3.85985 2.81639C3.76712 3.05388 3.63332 3.2732 3.46459 3.46433C3.27346 3.63307 3.05413 3.76686 2.81664 3.8596C2.59079 3.93338 2.38982 4.06835 2.23609 4.2495C2.15755 4.47025 2.14133 4.70837 2.18921 4.93774C2.22732 5.19272 2.22055 5.45241 2.16921 5.70507C2.08931 5.94227 1.96833 6.16357 1.81179 6.35887C1.64954 6.53895 1.54146 6.76119 1.5 7C1.54146 7.23881 1.64953 7.46104 1.81177 7.64112C1.96826 7.83636 2.08923 8.05758 2.16919 8.29468C2.22053 8.54742 2.2273 8.80719 2.18919 9.06225C2.14113 9.29151 2.15727 9.52958 2.23582 9.75025C2.38943 9.93156 2.59044 10.0666 2.81639 10.1401C3.05388 10.2329 3.2732 10.3667 3.46433 10.5354C3.63307 10.7265 3.76686 10.9459 3.8596 11.1834C3.93338 11.4092 4.06835 11.6102 4.2495 11.7639C4.47022 11.8426 4.70838 11.8588 4.93774 11.8108C5.06787 11.7991 5.19995 11.7874 5.33154 11.7874Z" fill="white"/>
<path d="M3.25 7.25C3.21716 7.25002 3.18465 7.24357 3.15431 7.23101C3.12397 7.21845 3.0964 7.20004 3.07318 7.17682C3.04996 7.1536 3.03155 7.12603 3.01899 7.09569C3.00643 7.06535 2.99998 7.03284 3 7C3.00121 5.93951 3.42303 4.9228 4.17291 4.17291C4.9228 3.42303 5.93951 3.00121 7 3C7.0663 3 7.12989 3.02634 7.17678 3.07322C7.22366 3.12011 7.25 3.1837 7.25 3.25C7.25 3.3163 7.22366 3.37989 7.17678 3.42678C7.12989 3.47366 7.0663 3.5 7 3.5C6.07206 3.50104 5.18243 3.87012 4.52628 4.52628C3.87012 5.18243 3.50104 6.07206 3.5 7C3.50002 7.03284 3.49357 7.06535 3.48101 7.09569C3.46845 7.12603 3.45004 7.1536 3.42682 7.17682C3.4036 7.20004 3.37603 7.21845 3.34569 7.23101C3.31535 7.24357 3.28284 7.25002 3.25 7.25Z" fill="white"/>
<path d="M7 11C6.9337 11 6.87011 10.9737 6.82322 10.9268C6.77634 10.8799 6.75 10.8163 6.75 10.75C6.75 10.6837 6.77634 10.6201 6.82322 10.5732C6.87011 10.5263 6.9337 10.5 7 10.5C7.92794 10.499 8.81757 10.1299 9.47372 9.47372C10.1299 8.81757 10.499 7.92794 10.5 7C10.5 6.9337 10.5263 6.87011 10.5732 6.82322C10.6201 6.77634 10.6837 6.75 10.75 6.75C10.8163 6.75 10.8799 6.77634 10.9268 6.82322C10.9737 6.87011 11 6.9337 11 7C10.9988 8.06049 10.577 9.0772 9.82709 9.82709C9.0772 10.577 8.06049 10.9988 7 11Z" fill="white"/>
<path d="M6.99452 4C7.83369 4 8.54816 4.29297 9.13739 4.87864C9.4194 5.16074 9.63381 5.48315 9.78025 5.84559C9.92659 6.20813 10 6.59288 10 7.00005C10 7.41077 9.92753 7.79562 9.78306 8.15441C9.6384 8.51329 9.42493 8.83036 9.14292 9.10533C8.85014 9.39455 8.51798 9.61609 8.14644 9.76965C7.77509 9.92322 7.39108 10 6.9947 10C6.59832 10 6.21882 9.92425 5.85628 9.77228C5.49384 9.62059 5.1688 9.40093 4.88126 9.11349C4.59373 8.82604 4.37501 8.50185 4.225 8.1411C4.075 7.78034 4 7.40008 4 7.00005C4 6.60357 4.07584 6.22238 4.22763 5.85628C4.37941 5.49018 4.60001 5.16252 4.88923 4.8732C5.46065 4.29119 6.16238 4 6.99452 4ZM7.00539 4.54113C6.31969 4.54113 5.74284 4.78048 5.27493 5.25899C5.03914 5.49834 4.85792 5.76703 4.73117 6.06525C4.60423 6.36347 4.54095 6.6751 4.54095 7.00014C4.54095 7.32161 4.60423 7.63146 4.73117 7.9295C4.85801 8.22791 5.03914 8.49398 5.27493 8.72789C5.51062 8.96189 5.77659 9.1403 6.07322 9.26368C6.36957 9.38687 6.68035 9.44846 7.00539 9.44846C7.32677 9.44846 7.63821 9.38612 7.94037 9.26105C8.24216 9.13589 8.51423 8.9557 8.75723 8.72001C9.22505 8.26288 9.45887 7.68968 9.45887 7.00023C9.45887 6.66807 9.39812 6.35382 9.27671 6.05738C9.15549 5.76093 8.97858 5.49674 8.74664 5.26443C8.26419 4.78226 7.68396 4.54113 7.00539 4.54113ZM6.9678 6.50195L6.56588 6.71092C6.52295 6.62176 6.47035 6.55913 6.40791 6.52341C6.34538 6.48779 6.28735 6.46988 6.23372 6.46988C5.96597 6.46988 5.8319 6.6466 5.8319 7.00023C5.8319 7.16092 5.86584 7.28936 5.93362 7.38583C6.0015 7.4823 6.10153 7.53059 6.23372 7.53059C6.40876 7.53059 6.53195 7.4448 6.60348 7.27343L6.97305 7.46093C6.89448 7.60746 6.78554 7.72259 6.64623 7.8065C6.5071 7.8905 6.35344 7.93241 6.18553 7.93241C5.91769 7.93241 5.7015 7.85037 5.53724 7.68593C5.37299 7.52168 5.29086 7.29311 5.29086 7.00033C5.29086 6.71457 5.37393 6.48788 5.53996 6.31997C5.706 6.15216 5.91581 6.06816 6.1695 6.06816C6.54104 6.06797 6.80701 6.21263 6.9678 6.50195ZM8.69817 6.50195L8.30169 6.71092C8.25885 6.62176 8.20607 6.55913 8.14363 6.52341C8.081 6.48779 8.02109 6.46988 7.96419 6.46988C7.69634 6.46988 7.56227 6.6466 7.56227 7.00023C7.56227 7.16092 7.59631 7.28936 7.66409 7.38583C7.73187 7.4823 7.83181 7.53059 7.96419 7.53059C8.13903 7.53059 8.26232 7.4448 8.33366 7.27343L8.70867 7.46093C8.62663 7.60746 8.51582 7.72259 8.37669 7.8065C8.23738 7.8905 8.0856 7.93241 7.92134 7.93241C7.64984 7.93241 7.43299 7.85037 7.27061 7.68593C7.10786 7.52168 7.02667 7.29311 7.02667 7.00033C7.02667 6.71457 7.10964 6.48788 7.27586 6.31997C7.4418 6.15216 7.65162 6.06816 7.90522 6.06816C8.27666 6.06797 8.54113 6.21263 8.69817 6.50195Z" fill="white"/>
<path d="M25 13C24.6555 12.9653 24.3304 12.8241 24.0698 12.5962C23.9215 12.476 23.7547 12.3806 23.5759 12.3137C23.3797 12.2796 23.1792 12.278 22.9824 12.3088C22.6509 12.3746 22.3072 12.3354 21.999 12.1965C21.7231 11.9961 21.5159 11.7153 21.4055 11.3926C21.3352 11.2099 21.2356 11.0398 21.1109 10.8889C20.96 10.7641 20.7899 10.6645 20.6072 10.5942C20.2844 10.4841 20.0036 10.2768 19.8032 10.0007C19.6642 9.69274 19.6251 9.34897 19.6912 9.01759C19.7216 8.8207 19.7199 8.6202 19.6863 8.42384C19.6194 8.24513 19.524 8.07842 19.4038 7.93018C19.1759 7.66959 19.0347 7.34448 19 7C19.0347 6.65553 19.1759 6.33042 19.4038 6.06983C19.524 5.92154 19.6194 5.75474 19.6863 5.57593C19.72 5.37967 19.7217 5.17922 19.6912 4.98243C19.6252 4.65094 19.6645 4.30713 19.8035 3.99903C20.0039 3.72312 20.2847 3.51584 20.6074 3.4055C20.7901 3.33513 20.9602 3.23561 21.1111 3.11082C21.2359 2.96 21.3355 2.78989 21.4058 2.60716C21.5159 2.28436 21.7232 2.00354 21.9993 1.80321C22.3073 1.66425 22.651 1.62507 22.9824 1.69114C23.1793 1.72129 23.3798 1.71964 23.5762 1.68626C23.7549 1.61935 23.9216 1.52396 24.0698 1.40379C24.3304 1.17585 24.6555 1.03472 25 1C25.3445 1.03473 25.6696 1.17586 25.9302 1.40381C26.0785 1.52403 26.2453 1.61943 26.4241 1.68628C26.6204 1.71967 26.8208 1.72132 27.0176 1.69116C27.3491 1.62525 27.6929 1.66451 28.001 1.80347C28.2769 2.00394 28.4841 2.28471 28.5945 2.60742C28.6648 2.79013 28.7644 2.96022 28.8891 3.11108C29.04 3.23593 29.2101 3.33545 29.3928 3.40576C29.7156 3.51591 29.9964 3.72322 30.1968 3.99926C30.3358 4.30726 30.3749 4.65103 30.3088 4.98241C30.2784 5.17929 30.2801 5.3798 30.3137 5.57616C30.3806 5.75487 30.476 5.92158 30.5962 6.06982C30.8241 6.33041 30.9653 6.65552 31 7C30.9653 7.34447 30.8241 7.66958 30.5962 7.93017C30.476 8.07846 30.3806 8.24526 30.3137 8.42407C30.28 8.62033 30.2783 8.82078 30.3088 9.01757C30.3748 9.34906 30.3355 9.69287 30.1965 10.001C29.9961 10.2769 29.7153 10.4841 29.3926 10.5945C29.2099 10.6648 29.0398 10.7644 28.8889 10.8891C28.7641 11.04 28.6645 11.2101 28.5942 11.3928C28.4841 11.7156 28.2768 11.9964 28.0007 12.1968C27.6928 12.336 27.349 12.3751 27.0176 12.3088C26.8207 12.2779 26.6202 12.2796 26.4238 12.3137C26.2451 12.3806 26.0784 12.476 25.9302 12.5962C25.6696 12.8241 25.3445 12.9653 25 13ZM23.3315 11.7874C23.4574 11.7854 23.583 11.8 23.7051 11.8308C23.9423 11.9107 24.1636 12.0317 24.3589 12.1882C24.539 12.3505 24.7612 12.4585 25 12.5C25.2388 12.4585 25.461 12.3505 25.6411 12.1882C25.8364 12.0317 26.0576 11.9108 26.2947 11.8308C26.5474 11.7791 26.8072 11.7723 27.0623 11.8108C27.2915 11.8587 27.5296 11.8426 27.7503 11.7642C27.9316 11.6106 28.0666 11.4096 28.1401 11.1836C28.2329 10.9461 28.3667 10.7268 28.5354 10.5357C28.7265 10.3669 28.9459 10.2331 29.1834 10.1404C29.4092 10.0666 29.6102 9.93166 29.7639 9.75051C29.8425 9.52976 29.8587 9.29164 29.8108 9.06227C29.7727 8.80729 29.7795 8.5476 29.8308 8.29494C29.9107 8.05774 30.0317 7.83644 30.1882 7.64114C30.3505 7.46106 30.4585 7.23881 30.5 7C30.4585 6.76119 30.3505 6.53896 30.1882 6.35888C30.0317 6.16364 29.9108 5.94242 29.8308 5.70532C29.7795 5.45258 29.7727 5.19281 29.8108 4.93775C29.8589 4.70849 29.8427 4.47042 29.7642 4.24974C29.6106 4.06844 29.4096 3.93344 29.1836 3.85985C28.9461 3.76712 28.7268 3.63332 28.5357 3.46459C28.3669 3.27346 28.2331 3.05413 28.1404 2.81664C28.0666 2.59079 27.9317 2.38982 27.7505 2.23609C27.5297 2.15787 27.2917 2.14165 27.0623 2.18921C26.8073 2.22745 26.5476 2.22068 26.2949 2.16921C26.0577 2.08931 25.8364 1.96833 25.6411 1.81179C25.4611 1.64954 25.2388 1.54146 25 1.5C24.7612 1.54146 24.539 1.64953 24.3589 1.81177C24.1636 1.96826 23.9424 2.08923 23.7053 2.16919C23.4526 2.22064 23.1928 2.22741 22.9377 2.18919C22.7085 2.14073 22.4703 2.15688 22.2497 2.23582C22.0684 2.38943 21.9334 2.59044 21.8599 2.81639C21.7671 3.05388 21.6333 3.2732 21.4646 3.46433C21.2735 3.63307 21.0541 3.76686 20.8166 3.8596C20.5908 3.93338 20.3898 4.06835 20.2361 4.2495C20.1575 4.47025 20.1413 4.70837 20.1892 4.93774C20.2273 5.19272 20.2206 5.45241 20.1692 5.70507C20.0893 5.94227 19.9683 6.16357 19.8118 6.35887C19.6495 6.53895 19.5415 6.76119 19.5 7C19.5415 7.23881 19.6495 7.46104 19.8118 7.64112C19.9683 7.83636 20.0892 8.05758 20.1692 8.29468C20.2205 8.54742 20.2273 8.80719 20.1892 9.06225C20.1411 9.29151 20.1573 9.52958 20.2358 9.75025C20.3894 9.93156 20.5904 10.0666 20.8164 10.1401C21.0539 10.2329 21.2732 10.3667 21.4643 10.5354C21.6331 10.7265 21.7669 10.9459 21.8596 11.1834C21.9334 11.4092 22.0683 11.6102 22.2495 11.7639C22.4702 11.8426 22.7084 11.8588 22.9377 11.8108C23.0679 11.7991 23.1999 11.7874 23.3315 11.7874Z" fill="white"/>
<path d="M21.2504 7.2511C21.2175 7.25112 21.185 7.24466 21.1547 7.23211C21.1243 7.21955 21.0968 7.20114 21.0735 7.17792C21.0503 7.1547 21.0319 7.12713 21.0194 7.09679C21.0068 7.06645 21.0003 7.03393 21.0004 7.0011C21.0016 5.94061 21.4234 4.92389 22.1733 4.17401C22.9232 3.42413 23.9399 3.00231 25.0004 3.0011C25.0667 3.0011 25.1303 3.02744 25.1771 3.07432C25.224 3.12121 25.2504 3.18479 25.2504 3.2511C25.2504 3.3174 25.224 3.38099 25.1771 3.42788C25.1303 3.47476 25.0667 3.5011 25.0004 3.5011C24.0724 3.50214 23.1828 3.87122 22.5266 4.52738C21.8705 5.18353 21.5014 6.07316 21.5004 7.0011C21.5004 7.03393 21.4939 7.06645 21.4814 7.09679C21.4688 7.12713 21.4504 7.1547 21.4272 7.17792C21.404 7.20114 21.3764 7.21955 21.3461 7.23211C21.3157 7.24466 21.2832 7.25112 21.2504 7.2511Z" fill="white"/>
<path d="M25.0004 11.0011C24.9341 11.0011 24.8705 10.9748 24.8236 10.9279C24.7767 10.881 24.7504 10.8174 24.7504 10.7511C24.7504 10.6848 24.7767 10.6212 24.8236 10.5743C24.8705 10.5274 24.9341 10.5011 25.0004 10.5011C25.9283 10.5001 26.8179 10.131 27.4741 9.47482C28.1302 8.81867 28.4993 7.92904 28.5004 7.0011C28.5004 6.93479 28.5267 6.87121 28.5736 6.82432C28.6205 6.77744 28.6841 6.7511 28.7504 6.7511C28.8167 6.7511 28.8803 6.77744 28.9271 6.82432C28.974 6.87121 29.0004 6.93479 29.0004 7.0011C28.9992 8.06159 28.5773 9.0783 27.8275 9.82819C27.0776 10.5781 26.0609 10.9999 25.0004 11.0011Z" fill="white"/>
<path d="M23.5861 4.4362H23.5V9.764C23.4999 9.77533 23.5021 9.78656 23.5064 9.79705C23.5107 9.80754 23.517 9.81708 23.525 9.82513C23.533 9.83311 23.5426 9.83942 23.553 9.8437C23.5635 9.84799 23.5748 9.85016 23.5861 9.8501H26.5049C26.5277 9.8501 26.5496 9.84103 26.5657 9.82488C26.5819 9.80873 26.591 9.78683 26.591 9.764V4.4362C26.591 4.41336 26.5819 4.39146 26.5657 4.37532C26.5496 4.35917 26.5277 4.3501 26.5049 4.3501H23.5861C23.5748 4.35003 23.5635 4.35221 23.553 4.35649C23.5426 4.36077 23.533 4.36709 23.525 4.37507C23.517 4.38311 23.5107 4.39265 23.5064 4.40314C23.5021 4.41363 23.4999 4.42487 23.5 4.4362H23.5861V4.5223H26.4188V9.6779H23.6722V4.4362H23.5861Z" fill="white"/>
<path d="M25.352 4.99235H25.2659V5.59504C25.2659 5.60643 25.2682 5.6177 25.2727 5.62819C25.2771 5.63869 25.2836 5.6482 25.2917 5.65617C25.3078 5.67208 25.3294 5.68104 25.352 5.68114H25.9547C25.9773 5.68104 25.9989 5.67208 26.0149 5.65617C26.0231 5.6482 26.0296 5.63869 26.034 5.62819C26.0384 5.6177 26.0407 5.60643 26.0408 5.59504V4.99235C26.0408 4.96951 26.0317 4.94761 26.0156 4.93147C25.9994 4.91532 25.9775 4.90625 25.9547 4.90625H25.352C25.3291 4.90625 25.3072 4.91532 25.2911 4.93147C25.275 4.94761 25.2659 4.96951 25.2659 4.99235H25.352V5.07845H25.8686V5.50894H25.4381V4.99235H25.352Z" fill="white"/>
<path d="M24.1319 4.99255H24.0458V5.59524C24.0458 5.61808 24.0549 5.63998 24.0711 5.65612C24.0872 5.67227 24.1091 5.68134 24.1319 5.68134H24.7346C24.7564 5.67969 24.7767 5.66984 24.7915 5.65379C24.7994 5.64575 24.8057 5.6362 24.81 5.62571C24.8143 5.61522 24.8165 5.60399 24.8164 5.59266V4.98997C24.8163 4.96738 24.8074 4.94574 24.7915 4.9297C24.7835 4.92156 24.774 4.91509 24.7635 4.91066C24.753 4.90622 24.7417 4.90392 24.7303 4.90387H24.1276C24.1048 4.90387 24.0829 4.91294 24.0668 4.92909C24.0506 4.94523 24.0415 4.96713 24.0415 4.98997H24.1276V5.07607H24.6442V5.50656H24.2137V4.98997H24.1276L24.1319 4.99255Z" fill="white"/>
<path d="M25.352 6.19444H25.2659V6.79713C25.2659 6.81996 25.275 6.84186 25.2911 6.85801C25.3072 6.87416 25.3291 6.88323 25.352 6.88323H25.9547C25.9775 6.88323 25.9994 6.87416 26.0156 6.85801C26.0317 6.84186 26.0408 6.81996 26.0408 6.79713V6.19444C26.0408 6.1716 26.0317 6.1497 26.0156 6.13356C25.9994 6.11741 25.9775 6.10834 25.9547 6.10834H25.352C25.3291 6.10834 25.3072 6.11741 25.2911 6.13356C25.275 6.1497 25.2659 6.1716 25.2659 6.19444H25.352V6.28054H25.8686V6.71103H25.4381V6.19444H25.352Z" fill="white"/>
<path d="M24.1319 6.19444H24.0458V6.79713C24.0458 6.81996 24.0549 6.84186 24.0711 6.85801C24.0872 6.87416 24.1091 6.88323 24.1319 6.88323H24.7346C24.746 6.88318 24.7573 6.88087 24.7678 6.87644C24.7783 6.872 24.7878 6.86553 24.7958 6.8574C24.8117 6.84136 24.8206 6.81972 24.8207 6.79713V6.19444C24.8206 6.17185 24.8117 6.1502 24.7958 6.13417C24.7878 6.12603 24.7783 6.11956 24.7678 6.11513C24.7573 6.11069 24.746 6.10838 24.7346 6.10834H24.1319C24.1091 6.10834 24.0872 6.11741 24.0711 6.13356C24.0549 6.1497 24.0458 6.1716 24.0458 6.19444H24.1319V6.28054H24.6485V6.71103H24.218V6.19444H24.1319Z" fill="white"/>
<path d="M25.352 7.39701H25.2659V7.9997C25.2659 8.02254 25.275 8.04444 25.2911 8.06059C25.3072 8.07673 25.3291 8.0858 25.352 8.0858H25.9547C25.9775 8.0858 25.9994 8.07673 26.0156 8.06059C26.0317 8.04444 26.0408 8.02254 26.0408 7.9997V7.39701C26.0407 7.38562 26.0384 7.37435 26.034 7.36386C26.0296 7.35336 26.0231 7.34386 26.0149 7.33588C25.9989 7.31998 25.9773 7.31101 25.9547 7.31091H25.352C25.3294 7.31101 25.3078 7.31998 25.2917 7.33588C25.2836 7.34386 25.2771 7.35336 25.2727 7.36386C25.2682 7.37435 25.2659 7.38562 25.2659 7.39701H25.352V7.48311H25.8686V7.91361H25.4381V7.39701H25.352Z" fill="white"/>
<path d="M24.1319 7.39701H24.0458V7.99971C24.0458 8.02254 24.0549 8.04444 24.0711 8.06059C24.0872 8.07673 24.1091 8.0858 24.1319 8.0858H24.7346C24.746 8.08587 24.7572 8.0837 24.7677 8.07941C24.7782 8.07513 24.7877 8.06882 24.7958 8.06084C24.8037 8.05279 24.8101 8.04325 24.8143 8.03276C24.8186 8.02227 24.8208 8.01104 24.8207 7.99971V7.39701C24.8207 7.37418 24.8117 7.35228 24.7955 7.33613C24.7794 7.31999 24.7575 7.31091 24.7346 7.31091H24.1319C24.1206 7.31085 24.1094 7.31302 24.0989 7.31731C24.0884 7.32159 24.0789 7.3279 24.0708 7.33588C24.0628 7.34393 24.0565 7.35347 24.0522 7.36396C24.0479 7.37445 24.0458 7.38568 24.0458 7.39701H24.1319V7.48311H24.6485V7.91361H24.218V7.39701H24.1319Z" fill="white"/>
<path d="M24.4418 8.55607H24.3557V9.76145C24.3557 9.78429 24.3648 9.80619 24.3809 9.82233C24.3971 9.83848 24.419 9.84755 24.4418 9.84755H25.6524C25.6749 9.84746 25.6966 9.83849 25.7126 9.82258C25.7208 9.81461 25.7272 9.8051 25.7317 9.79461C25.7361 9.78411 25.7384 9.77285 25.7385 9.76145V8.55607C25.7385 8.53323 25.7294 8.51134 25.7132 8.49519C25.6971 8.47904 25.6752 8.46997 25.6524 8.46997H24.447C24.4356 8.47002 24.4243 8.47233 24.4138 8.47676C24.4033 8.48119 24.3938 8.48766 24.3858 8.4958C24.3699 8.51184 24.361 8.53348 24.3609 8.55607H24.447V8.64217H25.5663V9.67536H24.5331V8.55607H24.447H24.4418Z" fill="white"/>
<path d="M43 13C42.6555 12.9653 42.3304 12.8241 42.0698 12.5962C41.9215 12.476 41.7547 12.3806 41.5759 12.3137C41.3797 12.2796 41.1792 12.278 40.9824 12.3088C40.6509 12.3746 40.3072 12.3354 39.999 12.1965C39.7231 11.9961 39.5159 11.7153 39.4055 11.3926C39.3352 11.2099 39.2356 11.0398 39.1109 10.8889C38.96 10.7641 38.7899 10.6645 38.6072 10.5942C38.2844 10.4841 38.0036 10.2768 37.8032 10.0007C37.6642 9.69274 37.6251 9.34897 37.6912 9.01759C37.7216 8.8207 37.7199 8.6202 37.6863 8.42384C37.6194 8.24513 37.524 8.07842 37.4038 7.93018C37.1759 7.66959 37.0347 7.34448 37 7C37.0347 6.65553 37.1759 6.33042 37.4038 6.06983C37.524 5.92154 37.6194 5.75474 37.6863 5.57593C37.72 5.37967 37.7217 5.17922 37.6912 4.98243C37.6252 4.65094 37.6645 4.30713 37.8035 3.99903C38.0039 3.72312 38.2847 3.51584 38.6074 3.4055C38.7901 3.33513 38.9602 3.23561 39.1111 3.11082C39.2359 2.96 39.3355 2.78989 39.4058 2.60716C39.5159 2.28436 39.7232 2.00354 39.9993 1.80321C40.3073 1.66425 40.651 1.62507 40.9824 1.69114C41.1793 1.72129 41.3798 1.71964 41.5762 1.68626C41.7549 1.61935 41.9216 1.52396 42.0698 1.40379C42.3304 1.17585 42.6555 1.03472 43 1C43.3445 1.03473 43.6696 1.17586 43.9302 1.40381C44.0785 1.52403 44.2453 1.61943 44.4241 1.68628C44.6204 1.71967 44.8208 1.72132 45.0176 1.69116C45.3491 1.62525 45.6929 1.66451 46.001 1.80347C46.2769 2.00394 46.4841 2.28471 46.5945 2.60742C46.6648 2.79013 46.7644 2.96022 46.8891 3.11108C47.04 3.23593 47.2101 3.33545 47.3928 3.40576C47.7156 3.51591 47.9964 3.72322 48.1968 3.99926C48.3358 4.30726 48.3749 4.65103 48.3088 4.98241C48.2784 5.17929 48.2801 5.3798 48.3137 5.57616C48.3806 5.75487 48.476 5.92158 48.5962 6.06982C48.8241 6.33041 48.9653 6.65552 49 7C48.9653 7.34447 48.8241 7.66958 48.5962 7.93017C48.476 8.07846 48.3806 8.24526 48.3137 8.42407C48.28 8.62033 48.2783 8.82078 48.3088 9.01757C48.3748 9.34906 48.3355 9.69287 48.1965 10.001C47.9961 10.2769 47.7153 10.4841 47.3926 10.5945C47.2099 10.6648 47.0398 10.7644 46.8889 10.8891C46.7641 11.04 46.6645 11.2101 46.5942 11.3928C46.4841 11.7156 46.2768 11.9964 46.0007 12.1968C45.6928 12.336 45.349 12.3751 45.0176 12.3088C44.8207 12.2779 44.6202 12.2796 44.4238 12.3137C44.2451 12.3806 44.0784 12.476 43.9302 12.5962C43.6696 12.8241 43.3445 12.9653 43 13ZM41.3315 11.7874C41.4574 11.7854 41.583 11.8 41.7051 11.8308C41.9423 11.9107 42.1636 12.0317 42.3589 12.1882C42.539 12.3505 42.7612 12.4585 43 12.5C43.2388 12.4585 43.461 12.3505 43.6411 12.1882C43.8364 12.0317 44.0576 11.9108 44.2947 11.8308C44.5474 11.7791 44.8072 11.7723 45.0623 11.8108C45.2915 11.8587 45.5296 11.8426 45.7503 11.7642C45.9316 11.6106 46.0666 11.4096 46.1401 11.1836C46.2329 10.9461 46.3667 10.7268 46.5354 10.5357C46.7265 10.3669 46.9459 10.2331 47.1834 10.1404C47.4092 10.0666 47.6102 9.93166 47.7639 9.75051C47.8425 9.52976 47.8587 9.29164 47.8108 9.06227C47.7727 8.80729 47.7795 8.5476 47.8308 8.29494C47.9107 8.05774 48.0317 7.83644 48.1882 7.64114C48.3505 7.46106 48.4585 7.23881 48.5 7C48.4585 6.76119 48.3505 6.53896 48.1882 6.35888C48.0317 6.16364 47.9108 5.94242 47.8308 5.70532C47.7795 5.45258 47.7727 5.19281 47.8108 4.93775C47.8589 4.70849 47.8427 4.47042 47.7642 4.24974C47.6106 4.06844 47.4096 3.93344 47.1836 3.85985C46.9461 3.76712 46.7268 3.63332 46.5357 3.46459C46.3669 3.27346 46.2331 3.05413 46.1404 2.81664C46.0666 2.59079 45.9317 2.38982 45.7505 2.23609C45.5297 2.15787 45.2917 2.14165 45.0623 2.18921C44.8073 2.22745 44.5476 2.22068 44.2949 2.16921C44.0577 2.08931 43.8364 1.96833 43.6411 1.81179C43.4611 1.64954 43.2388 1.54146 43 1.5C42.7612 1.54146 42.539 1.64953 42.3589 1.81177C42.1636 1.96826 41.9424 2.08923 41.7053 2.16919C41.4526 2.22064 41.1928 2.22741 40.9377 2.18919C40.7085 2.14073 40.4703 2.15688 40.2497 2.23582C40.0684 2.38943 39.9334 2.59044 39.8599 2.81639C39.7671 3.05388 39.6333 3.2732 39.4646 3.46433C39.2735 3.63307 39.0541 3.76686 38.8166 3.8596C38.5908 3.93338 38.3898 4.06835 38.2361 4.2495C38.1575 4.47025 38.1413 4.70837 38.1892 4.93774C38.2273 5.19272 38.2206 5.45241 38.1692 5.70507C38.0893 5.94227 37.9683 6.16357 37.8118 6.35887C37.6495 6.53895 37.5415 6.76119 37.5 7C37.5415 7.23881 37.6495 7.46104 37.8118 7.64112C37.9683 7.83636 38.0892 8.05758 38.1692 8.29468C38.2205 8.54742 38.2273 8.80719 38.1892 9.06225C38.1411 9.29151 38.1573 9.52958 38.2358 9.75025C38.3894 9.93156 38.5904 10.0666 38.8164 10.1401C39.0539 10.2329 39.2732 10.3667 39.4643 10.5354C39.6331 10.7265 39.7669 10.9459 39.8596 11.1834C39.9334 11.4092 40.0683 11.6102 40.2495 11.7639C40.4702 11.8426 40.7084 11.8588 40.9377 11.8108C41.0679 11.7991 41.1999 11.7874 41.3315 11.7874Z" fill="white"/>
<path d="M39.25 7.25C39.2172 7.25002 39.1846 7.24357 39.1543 7.23101C39.124 7.21845 39.0964 7.20004 39.0732 7.17682C39.05 7.1536 39.0315 7.12603 39.019 7.09569C39.0064 7.06535 39 7.03284 39 7C39.0012 5.93951 39.423 4.9228 40.1729 4.17291C40.9228 3.42303 41.9395 3.00121 43 3C43.0663 3 43.1299 3.02634 43.1768 3.07322C43.2237 3.12011 43.25 3.1837 43.25 3.25C43.25 3.3163 43.2237 3.37989 43.1768 3.42678C43.1299 3.47366 43.0663 3.5 43 3.5C42.0721 3.50104 41.1824 3.87012 40.5263 4.52628C39.8701 5.18243 39.501 6.07206 39.5 7C39.5 7.03284 39.4936 7.06535 39.481 7.09569C39.4685 7.12603 39.45 7.1536 39.4268 7.17682C39.4036 7.20004 39.376 7.21845 39.3457 7.23101C39.3154 7.24357 39.2828 7.25002 39.25 7.25Z" fill="white"/>
<path d="M43 11C42.9337 11 42.8701 10.9737 42.8232 10.9268C42.7763 10.8799 42.75 10.8163 42.75 10.75C42.75 10.6837 42.7763 10.6201 42.8232 10.5732C42.8701 10.5263 42.9337 10.5 43 10.5C43.9279 10.499 44.8176 10.1299 45.4737 9.47372C46.1299 8.81757 46.499 7.92794 46.5 7C46.5 6.9337 46.5263 6.87011 46.5732 6.82322C46.6201 6.77634 46.6837 6.75 46.75 6.75C46.8163 6.75 46.8799 6.77634 46.9268 6.82322C46.9737 6.87011 47 6.9337 47 7C46.9988 8.06049 46.577 9.0772 45.8271 9.82709C45.0772 10.577 44.0605 10.9988 43 11Z" fill="white"/>
<path d="M41.5861 5.40489H41.5V8.79531C41.4999 8.80252 41.5021 8.80967 41.5064 8.81634C41.5107 8.82302 41.517 8.82909 41.525 8.83421C41.533 8.83929 41.5426 8.8433 41.553 8.84603C41.5635 8.84876 41.5748 8.85014 41.5861 8.8501H44.5049C44.5277 8.8501 44.5496 8.84432 44.5657 8.83405C44.5819 8.82377 44.591 8.80984 44.591 8.79531V5.40489C44.591 5.39036 44.5819 5.37642 44.5657 5.36615C44.5496 5.35587 44.5277 5.3501 44.5049 5.3501H41.5861C41.5748 5.35006 41.5635 5.35144 41.553 5.35417C41.5426 5.35689 41.533 5.36091 41.525 5.36599C41.517 5.37111 41.5107 5.37718 41.5064 5.38385C41.5021 5.39053 41.4999 5.39768 41.5 5.40489H41.5861V6.082H44.4188V8.67747H41.6722V5.40489H41.5861Z" fill="white"/>
<path d="M43.352 6.39701H43.2659V6.9997C43.2659 7.02254 43.275 7.04444 43.2911 7.06059C43.3072 7.07673 43.3291 7.0858 43.352 7.0858H43.9547C43.9775 7.0858 43.9994 7.07673 44.0156 7.06059C44.0317 7.04444 44.0408 7.02254 44.0408 6.9997V6.39701C44.0407 6.38562 44.0384 6.37435 44.034 6.36386C44.0296 6.35336 44.0231 6.34386 44.0149 6.33588C43.9989 6.31998 43.9773 6.31101 43.9547 6.31091H43.352C43.3294 6.31101 43.3078 6.31998 43.2917 6.33588C43.2836 6.34386 43.2771 6.35336 43.2727 6.36386C43.2682 6.37435 43.2659 6.38562 43.2659 6.39701H43.352V6.48311H43.8686V6.91361H43.4381V6.39701H43.352Z" fill="white"/>
<path d="M42.1319 6.39701H42.0458V6.99971C42.0458 7.02254 42.0549 7.04444 42.0711 7.06059C42.0872 7.07673 42.1091 7.0858 42.1319 7.0858H42.7346C42.746 7.08587 42.7572 7.0837 42.7677 7.07941C42.7782 7.07513 42.7877 7.06882 42.7958 7.06084C42.8037 7.05279 42.8101 7.04325 42.8143 7.03276C42.8186 7.02227 42.8208 7.01104 42.8207 6.99971V6.39701C42.8207 6.37418 42.8117 6.35228 42.7955 6.33613C42.7794 6.31999 42.7575 6.31091 42.7346 6.31091H42.1319C42.1206 6.31085 42.1094 6.31302 42.0989 6.31731C42.0884 6.32159 42.0789 6.3279 42.0708 6.33588C42.0628 6.34393 42.0565 6.35347 42.0522 6.36396C42.0479 6.37445 42.0458 6.38568 42.0458 6.39701H42.1319V6.48311H42.6485V6.91361H42.218V6.39701H42.1319Z" fill="white"/>
<path d="M42.5504 7.55607H42.48V8.76145C42.48 8.78429 42.4874 8.80619 42.5006 8.82233C42.5138 8.83848 42.5317 8.84755 42.5504 8.84755H43.5396C43.5581 8.84746 43.5758 8.83849 43.5889 8.82258C43.5955 8.81461 43.6008 8.8051 43.6044 8.79461C43.6081 8.78411 43.61 8.77285 43.61 8.76145V7.55607C43.61 7.53323 43.6026 7.51134 43.5894 7.49519C43.5762 7.47904 43.5583 7.46997 43.5396 7.46997H42.5546C42.5453 7.47002 42.5361 7.47233 42.5275 7.47676C42.5189 7.48119 42.5111 7.48766 42.5046 7.4958C42.4916 7.51184 42.4843 7.53348 42.4842 7.55607H42.5546V7.64217H43.4693V8.67536H42.6249V7.55607H42.5546H42.5504Z" fill="white"/>
</svg>
