<svg width="93" height="16" viewBox="0 0 93 16" fill="none" xmlns="http://www.w3.org/2000/svg">
<path d="M6.85682 3.94724C6.85682 4.8015 6.56253 5.51338 5.97396 6.08288C5.3952 6.64257 4.50745 6.9224 3.31069 6.9224H1.33899V11.2084H0V0.942631H3.31069C4.46821 0.942631 5.34616 1.22248 5.94454 1.78216C6.55273 2.34185 6.85682 3.06353 6.85682 3.94724ZM3.31069 5.81777C4.05621 5.81777 4.60555 5.65576 4.95869 5.33173C5.31183 5.0077 5.4884 4.5462 5.4884 3.94724C5.4884 2.68059 4.7625 2.04726 3.31069 2.04726H1.33899V5.81777H3.31069ZM8.02046 7.14333C8.02046 6.31854 8.18723 5.59683 8.52075 4.97823C8.85427 4.34982 9.31041 3.86377 9.88917 3.52011C10.4777 3.17644 11.1301 3.00461 11.8462 3.00461C12.5524 3.00461 13.1655 3.15682 13.6854 3.46121C14.2053 3.7656 14.5928 4.14852 14.8479 4.61002V3.13717H16.2016V11.2084H14.8479V9.70609C14.583 10.1774 14.1857 10.5702 13.656 10.8844C13.1361 11.1887 12.5279 11.341 11.8314 11.341C11.1154 11.341 10.4679 11.1642 9.88917 10.8107C9.31041 10.4572 8.85427 9.96139 8.52075 9.32315C8.18723 8.68492 8.02046 7.95831 8.02046 7.14333ZM14.8479 7.15805C14.8479 6.54928 14.7252 6.01906 14.48 5.56739C14.2348 5.11571 13.9012 4.77203 13.4794 4.53638C13.0674 4.2909 12.6113 4.16818 12.111 4.16818C11.6107 4.16818 11.1546 4.286 10.7426 4.52166C10.3306 4.75731 10.002 5.10097 9.75674 5.55265C9.5115 6.00432 9.38889 6.53455 9.38889 7.14333C9.38889 7.76193 9.5115 8.30196 9.75674 8.76346C10.002 9.21513 10.3306 9.56371 10.7426 9.80919C11.1546 10.0448 11.6107 10.1627 12.111 10.1627C12.6113 10.1627 13.0674 10.0448 13.4794 9.80919C13.9012 9.56371 14.2348 9.21513 14.48 8.76346C14.7252 8.30196 14.8479 7.76683 14.8479 7.15805ZM19.8041 4.44802C20.0395 3.98652 20.373 3.62812 20.8047 3.37283C21.2461 3.11753 21.7807 2.98989 22.4085 2.98989V4.37438H22.0554C20.5545 4.37438 19.8041 5.18934 19.8041 6.8193V11.2084H18.4651V3.13717H19.8041V4.44802ZM25.5868 4.24182V8.99912C25.5868 9.39188 25.6702 9.67173 25.8369 9.83865C26.0037 9.99575 26.2931 10.0743 26.7051 10.0743H27.6909V11.2084H26.4843C25.7388 11.2084 25.1797 11.0366 24.8069 10.6929C24.4342 10.3492 24.2478 9.78464 24.2478 8.99912V4.24182H23.2031V3.13717H24.2478V1.10465H25.5868V3.13717H27.6909V4.24182H25.5868ZM33.2419 2.98989C34.2228 2.98989 35.0174 3.28936 35.6256 3.88832C36.2337 4.47746 36.5378 5.33171 36.5378 6.45108V11.2084H35.2136V6.64256C35.2136 5.8374 35.0125 5.22371 34.6103 4.80149C34.2081 4.36946 33.6588 4.15344 32.9623 4.15344C32.256 4.15344 31.692 4.37438 31.2701 4.81623C30.8581 5.25809 30.6522 5.90122 30.6522 6.74566V11.2084H29.3132V3.13717H30.6522V4.286C30.917 3.8736 31.2751 3.55449 31.7263 3.32865C32.1873 3.10281 32.6925 2.98989 33.2419 2.98989ZM46.0825 6.86349C46.0825 7.11879 46.0677 7.3888 46.0383 7.67355H39.5935C39.6425 8.46889 39.9123 9.0924 40.4028 9.54407C40.903 9.98593 41.5063 10.2069 42.2126 10.2069C42.7914 10.2069 43.272 10.0743 43.6546 9.80919C44.047 9.53426 44.3217 9.17095 44.4786 8.71928H45.9206C45.7048 9.49498 45.2732 10.1283 44.6257 10.6193C43.9783 11.1004 43.174 11.341 42.2126 11.341C41.4475 11.341 40.7608 11.1691 40.1526 10.8255C39.5543 10.4818 39.0834 9.99575 38.7401 9.36733C38.3967 8.7291 38.2251 7.99267 38.2251 7.15805C38.2251 6.32344 38.3918 5.59193 38.7253 4.96351C39.0589 4.3351 39.5248 3.85395 40.1232 3.52011C40.7314 3.17644 41.4279 3.00461 42.2126 3.00461C42.9778 3.00461 43.6546 3.17154 44.2432 3.50539C44.8317 3.83923 45.283 4.30073 45.5969 4.88987C45.9206 5.46919 46.0825 6.12707 46.0825 6.86349ZM44.6993 6.58364C44.6993 6.07305 44.5865 5.63611 44.3609 5.27281C44.1353 4.89969 43.8263 4.61984 43.4339 4.43328C43.0513 4.2369 42.6246 4.13872 42.1538 4.13872C41.4769 4.13872 40.8982 4.35474 40.4175 4.78677C39.9466 5.21881 39.6769 5.81776 39.6082 6.58364H44.6993ZM49.1884 4.44802C49.4238 3.98652 49.7573 3.62812 50.1889 3.37283C50.6304 3.11753 51.165 2.98989 51.7928 2.98989V4.37438H51.4397C49.9388 4.37438 49.1884 5.18934 49.1884 6.8193V11.2084H47.8494V3.13717H49.1884V4.44802ZM56.1936 11.341C55.5756 11.341 55.0213 11.2379 54.5309 11.0317C54.0404 10.8156 53.6529 10.5211 53.3684 10.1479C53.084 9.765 52.927 9.32805 52.8976 8.8371H54.2807C54.32 9.23968 54.5063 9.56861 54.8399 9.82391C55.1832 10.0792 55.6295 10.2069 56.1789 10.2069C56.689 10.2069 57.0911 10.0939 57.3854 9.86811C57.6797 9.64227 57.8269 9.35752 57.8269 9.01386C57.8269 8.66037 57.6699 8.40017 57.356 8.23324C57.0421 8.0565 56.5565 7.88467 55.8993 7.71775C55.3009 7.56064 54.8104 7.40354 54.4279 7.24643C54.0551 7.07951 53.7314 6.83895 53.4567 6.52474C53.1919 6.20071 53.0594 5.77848 53.0594 5.25807C53.0594 4.84567 53.1821 4.46765 53.4273 4.12398C53.6725 3.78032 54.0208 3.51029 54.472 3.31391C54.9233 3.10771 55.4382 3.00461 56.017 3.00461C56.9097 3.00461 57.6307 3.23045 58.18 3.68213C58.7293 4.1338 59.0236 4.75241 59.0628 5.53793H57.7239C57.6944 5.11571 57.5228 4.77695 57.2089 4.52166C56.9048 4.26636 56.4928 4.13872 55.9729 4.13872C55.4922 4.13872 55.1096 4.24182 54.8252 4.44802C54.5407 4.65422 54.3984 4.92423 54.3984 5.25807C54.3984 5.52318 54.4818 5.74412 54.6486 5.92086C54.8252 6.08779 55.041 6.22525 55.296 6.33326C55.5609 6.43145 55.9238 6.54437 56.3849 6.67202C56.9636 6.82912 57.4345 6.98623 57.7974 7.14333C58.1604 7.29062 58.4694 7.51646 58.7244 7.82085C58.9893 8.12524 59.1266 8.5229 59.1364 9.01386C59.1364 9.45571 59.0138 9.85338 58.7686 10.2069C58.5233 10.5603 58.1751 10.8402 57.7239 11.0464C57.2824 11.2428 56.7723 11.341 56.1936 11.341ZM65.0294 2.98989C65.6376 2.98989 66.187 3.12245 66.6775 3.38757C67.1679 3.64286 67.5505 4.03071 67.8252 4.55112C68.1096 5.07152 68.2519 5.70484 68.2519 6.45108V11.2084H66.9276V6.64256C66.9276 5.8374 66.7265 5.22371 66.3243 4.80149C65.9221 4.36946 65.3728 4.15344 64.6763 4.15344C63.97 4.15344 63.406 4.37438 62.9842 4.81623C62.5722 5.25809 62.3662 5.90122 62.3662 6.74566V11.2084H61.0272V0.309297H62.3662V4.286C62.631 3.8736 62.994 3.55449 63.455 3.32865C63.9259 3.10281 64.4507 2.98989 65.0294 2.98989ZM71.1297 1.82634C70.8747 1.82634 70.6589 1.73797 70.4823 1.56123C70.3057 1.38448 70.2174 1.16847 70.2174 0.913171C70.2174 0.657877 70.3057 0.441859 70.4823 0.265117C70.6589 0.0883752 70.8747 0 71.1297 0C71.375 0 71.581 0.0883752 71.7477 0.265117C71.9243 0.441859 72.0126 0.657877 72.0126 0.913171C72.0126 1.16847 71.9243 1.38448 71.7477 1.56123C71.581 1.73797 71.375 1.82634 71.1297 1.82634ZM71.7772 3.13717V11.2084H70.4382V3.13717H71.7772ZM75.3981 4.62476C75.6629 4.16326 76.0553 3.78032 76.5752 3.47593C77.1049 3.16172 77.718 3.00461 78.4145 3.00461C79.1306 3.00461 79.778 3.17644 80.3568 3.52011C80.9453 3.86377 81.4064 4.34982 81.7399 4.97823C82.0734 5.59683 82.2402 6.31854 82.2402 7.14333C82.2402 7.95831 82.0734 8.68492 81.7399 9.32315C81.4064 9.96139 80.9453 10.4572 80.3568 10.8107C79.778 11.1642 79.1306 11.341 78.4145 11.341C77.7278 11.341 77.1196 11.1887 76.5899 10.8844C76.07 10.5702 75.6727 10.1823 75.3981 9.72081V15.0378H74.0591V3.13717H75.3981V4.62476ZM80.8718 7.14333C80.8718 6.53455 80.7492 6.00432 80.5039 5.55265C80.2587 5.10097 79.9251 4.75731 79.5033 4.52166C79.0913 4.286 78.6352 4.16818 78.1349 4.16818C77.6444 4.16818 77.1883 4.2909 76.7665 4.53638C76.3545 4.77203 76.021 5.12061 75.7659 5.58211C75.5207 6.03378 75.3981 6.55909 75.3981 7.15805C75.3981 7.76683 75.5207 8.30196 75.7659 8.76346C76.021 9.21513 76.3545 9.56371 76.7665 9.80919C77.1883 10.0448 77.6444 10.1627 78.1349 10.1627C78.6352 10.1627 79.0913 10.0448 79.5033 9.80919C79.9251 9.56371 80.2587 9.21513 80.5039 8.76346C80.7492 8.30196 80.8718 7.76193 80.8718 7.14333ZM86.858 11.341C86.24 11.341 85.6858 11.2379 85.1953 11.0317C84.7048 10.8156 84.3173 10.5211 84.0329 10.1479C83.7484 9.765 83.5914 9.32805 83.562 8.8371H84.9451C84.9844 9.23968 85.1708 9.56861 85.5043 9.82391C85.8476 10.0792 86.294 10.2069 86.8433 10.2069C87.3534 10.2069 87.7556 10.0939 88.0498 9.86811C88.3441 9.64227 88.4913 9.35752 88.4913 9.01386C88.4913 8.66037 88.3343 8.40017 88.0204 8.23324C87.7065 8.0565 87.221 7.88467 86.5637 7.71775C85.9653 7.56064 85.4749 7.40354 85.0923 7.24643C84.7195 7.07951 84.3958 6.83895 84.1212 6.52474C83.8563 6.20071 83.7239 5.77848 83.7239 5.25807C83.7239 4.84567 83.8465 4.46765 84.0917 4.12398C84.337 3.78032 84.6852 3.51029 85.1364 3.31391C85.5877 3.10771 86.1027 3.00461 86.6814 3.00461C87.5741 3.00461 88.2951 3.23045 88.8444 3.68213C89.3938 4.1338 89.688 4.75241 89.7273 5.53793H88.3883C88.3588 5.11571 88.1872 4.77695 87.8733 4.52166C87.5692 4.26636 87.1572 4.13872 86.6373 4.13872C86.1566 4.13872 85.774 4.24182 85.4896 4.44802C85.2051 4.65422 85.0629 4.92423 85.0629 5.25807C85.0629 5.52318 85.1462 5.74412 85.313 5.92086C85.4896 6.08779 85.7054 6.22525 85.9604 6.33326C86.2253 6.43145 86.5882 6.54437 87.0493 6.67202C87.628 6.82912 88.0989 6.98623 88.4618 7.14333C88.8248 7.29062 89.1338 7.51646 89.3888 7.82085C89.6537 8.12524 89.791 8.5229 89.8008 9.01386C89.8008 9.45571 89.6782 9.85338 89.433 10.2069C89.1878 10.5603 88.8395 10.8402 88.3883 11.0464C87.9468 11.2428 87.4367 11.341 86.858 11.341ZM92.1171 11.2968C91.862 11.2968 91.6462 11.2084 91.4697 11.0317C91.2931 10.8549 91.2048 10.6389 91.2048 10.3836C91.2048 10.1283 91.2931 9.91229 91.4697 9.73555C91.6462 9.55881 91.862 9.47043 92.1171 9.47043C92.3623 9.47043 92.5683 9.55881 92.7351 9.73555C92.9117 9.91229 93 10.1283 93 10.3836C93 10.6389 92.9117 10.8549 92.7351 11.0317C92.5683 11.2084 92.3623 11.2968 92.1171 11.2968ZM92.1171 4.99297C91.862 4.99297 91.6462 4.9046 91.4697 4.72786C91.2931 4.55111 91.2048 4.3351 91.2048 4.0798C91.2048 3.82451 91.2931 3.60849 91.4697 3.43175C91.6462 3.25501 91.862 3.16663 92.1171 3.16663C92.3623 3.16663 92.5683 3.25501 92.7351 3.43175C92.9117 3.60849 93 3.82451 93 4.0798C93 4.3351 92.9117 4.55111 92.7351 4.72786C92.5683 4.9046 92.3623 4.99297 92.1171 4.99297Z" fill="#A8B0C9"/>
</svg>
