<svg width="25" height="25" viewBox="0 0 25 25" fill="none" xmlns="http://www.w3.org/2000/svg">
<path d="M20.03 14.62C20.49 13.705 20.7225 12.73 20.7225 11.7275C20.7225 10.725 20.49 9.74998 20.03 8.83498C19.5875 7.95498 18.9575 7.16748 18.155 6.49248C16.5175 5.10998 14.3425 4.34998 12.0325 4.34998C9.72247 4.34998 7.54997 5.10998 5.91247 6.48998C5.10997 7.16498 4.47747 7.95498 4.03747 8.83248C3.57747 9.74748 3.34497 10.7225 3.34497 11.725C3.34497 13.84 4.40247 15.8325 6.25497 17.2325L4.78747 20.8975L10.01 18.8975C10.67 19.0325 11.3525 19.1 12.0375 19.1C14.3475 19.1 16.52 18.34 18.16 16.9625C18.9575 16.2875 19.5875 15.4975 20.03 14.62ZM10.0525 18.1425L9.94247 18.12L6.11497 19.585L7.16247 16.965L6.91997 16.795C5.12497 15.53 4.09247 13.6825 4.09247 11.725C4.09247 8.07248 7.65497 5.09998 12.0325 5.09998C16.41 5.09998 19.9725 8.07248 19.9725 11.725C19.9725 15.3775 16.4125 18.35 12.0325 18.35C11.3625 18.35 10.6975 18.28 10.0525 18.1425Z" fill="white"/>
</svg>
