<svg width="27" height="29" viewBox="0 0 27 29" fill="none" xmlns="http://www.w3.org/2000/svg">
<path d="M25.8991 6.83395C25.5141 4.0026 23.0194 1.77131 20.0622 1.33895C19.5632 1.26589 17.6729 1 13.294 1H13.2613C8.88111 1 7.94139 1.26589 7.44247 1.33895C4.56757 1.75934 1.94215 3.76426 1.30517 6.62912C0.998791 8.03999 0.966094 9.60418 1.02301 11.039C1.10415 13.0966 1.11989 15.1507 1.3088 17.1999C1.43941 18.5611 1.66724 19.9115 1.99059 21.2409C2.59608 23.6962 5.04713 25.7394 7.44851 26.573C10.0196 27.4424 12.7845 27.5866 15.4338 26.9898C15.7252 26.9228 16.0134 26.8449 16.2984 26.7563C16.9415 26.5539 17.6959 26.3275 18.2505 25.9299C18.2581 25.9243 18.2644 25.9171 18.2688 25.9088C18.2732 25.9005 18.2756 25.8913 18.2759 25.882V23.8962C18.2758 23.8875 18.2737 23.8788 18.2698 23.871C18.2658 23.8632 18.2602 23.8563 18.2532 23.8509C18.2463 23.8455 18.2381 23.8417 18.2295 23.8398C18.2209 23.8379 18.2119 23.8379 18.2033 23.8399C16.5059 24.2409 14.7666 24.4419 13.0215 24.4387C10.0182 24.4387 9.21051 23.0291 8.97919 22.4422C8.79328 21.935 8.6752 21.4059 8.62801 20.8684C8.62753 20.8594 8.62922 20.8504 8.63291 20.8421C8.63659 20.8339 8.64223 20.8266 8.64929 20.8209C8.65638 20.8152 8.66473 20.8112 8.67365 20.8092C8.68257 20.8073 8.69182 20.8075 8.70068 20.8098C10.3698 21.208 12.0807 21.409 13.7977 21.4086C14.2107 21.4086 14.6224 21.4086 15.0354 21.3978C16.7622 21.3499 18.5823 21.2625 20.2814 20.9343C20.3237 20.9259 20.3661 20.9187 20.4025 20.908C23.0824 20.3989 25.6327 18.8012 25.8919 14.7554C25.9016 14.5961 25.9258 13.0871 25.9258 12.9218C25.927 12.3601 26.1087 8.93709 25.8991 6.83395ZM21.7745 16.9293H18.9566V10.1024C18.9566 8.6652 18.351 7.93222 17.1195 7.93222C15.7656 7.93222 15.0874 8.79935 15.0874 10.512V14.2488H12.2864V10.512C12.2864 8.79935 11.6071 7.93222 10.2532 7.93222C9.02885 7.93222 8.4173 8.6652 8.41608 10.1024V16.9293H5.60054V9.89523C5.60054 8.458 5.97152 7.31621 6.71345 6.46982C7.47878 5.62547 8.4827 5.19192 9.72882 5.19192C11.1711 5.19192 12.261 5.74043 12.9876 6.83635L13.6888 8.0005L14.3911 6.83635C15.1177 5.74043 16.2076 5.19192 17.6475 5.19192C18.8924 5.19192 19.8963 5.62547 20.664 6.46982C21.406 7.3154 21.7769 8.45719 21.7769 9.89523L21.7745 16.9293Z" fill="#1B1C30"/>
</svg>
