<svg width="157" height="13" viewBox="0 0 157 13" fill="none" xmlns="http://www.w3.org/2000/svg">
<path d="M1.11888 0.824583V6.25208C1.11888 7.01513 1.3033 7.58126 1.67216 7.95048C2.04963 8.3197 2.56972 8.5043 3.23366 8.5043C3.889 8.5043 4.40172 8.3197 4.77057 7.95048C5.14804 7.58126 5.33616 7.01513 5.33616 6.25208V0.824583H6.45503V6.23977C6.45503 6.95359 6.31118 7.55665 6.0247 8.04894C5.73822 8.53261 5.34845 8.89444 4.85664 9.13197C4.37344 9.3695 3.82753 9.48889 3.22137 9.48889C2.61521 9.48889 2.06561 9.3695 1.5738 9.13197C1.09059 8.89444 0.704516 8.53261 0.418036 8.04894C0.138932 7.55665 0 6.95359 0 6.23977V0.824583H1.11888ZM11.6043 2.53529C12.4244 2.53529 13.0884 2.78513 13.5961 3.28603C14.1039 3.77832 14.3585 4.49214 14.3585 5.42749V9.40274H13.2519V5.58749C13.2519 4.91428 13.0834 4.4023 12.7478 4.04908C12.4121 3.68848 11.9523 3.50756 11.3707 3.50756C10.7805 3.50756 10.3096 3.69218 9.95674 4.0614C9.61247 4.43061 9.44034 4.96844 9.44034 5.67364V9.40274H8.32146V2.65836H9.44034V3.61833C9.66165 3.27373 9.96042 3.00666 10.3379 2.81836C10.7227 2.63006 11.1457 2.53529 11.6043 2.53529ZM16.7647 1.56302C16.5507 1.56302 16.3712 1.48917 16.2237 1.34149C16.0761 1.1938 16.0023 1.01289 16.0023 0.799973C16.0023 0.587057 16.0761 0.406138 16.2237 0.258451C16.3712 0.110764 16.5507 0.0369202 16.7647 0.0369202C16.9688 0.0369202 17.1409 0.110764 17.2811 0.258451C17.4286 0.406138 17.5024 0.587057 17.5024 0.799973C17.5024 1.01289 17.4286 1.1938 17.2811 1.34149C17.1409 1.48917 16.9688 1.56302 16.7647 1.56302ZM17.3056 2.65836V9.40274H16.1868V2.65836H17.3056ZM21.7197 8.36893L23.8099 2.65836H25.0025L22.359 9.40274H21.0557L18.4122 2.65836H19.6172L21.7197 8.36893ZM32.2518 5.7721C32.2518 5.98502 32.2395 6.21146 32.2149 6.44899H26.8296C26.8702 7.11359 27.0964 7.63419 27.5058 8.01202C27.9239 8.38124 28.428 8.56584 29.0181 8.56584C29.5014 8.56584 29.9034 8.45508 30.2231 8.23355C30.5514 8.00341 30.7801 7.70064 30.9116 7.32281H32.1166C31.9358 7.9714 31.5756 8.50061 31.0346 8.91044C30.4936 9.31289 29.821 9.5135 29.0181 9.5135C28.3788 9.5135 27.8046 9.3695 27.2968 9.08274C26.7964 8.79598 26.4029 8.38985 26.1165 7.86433C25.83 7.33143 25.6861 6.71606 25.6861 6.01824C25.6861 5.32042 25.8251 4.70999 26.1042 4.18447C26.3833 3.65895 26.7718 3.25773 27.2722 2.97835C27.78 2.69159 28.3628 2.5476 29.0181 2.5476C29.6575 2.5476 30.2231 2.68667 30.7149 2.96604C31.2067 3.24542 31.5842 3.63064 31.8461 4.12293C32.1166 4.6066 32.2518 5.15674 32.2518 5.7721ZM31.0961 5.53826C31.0961 5.1112 31.0014 4.74691 30.8133 4.44292C30.6252 4.13154 30.3669 3.89771 30.0387 3.7414C29.719 3.57772 29.3624 3.49525 28.969 3.49525C28.4034 3.49525 27.9202 3.67617 27.5181 4.03678C27.1247 4.39738 26.8997 4.89828 26.8419 5.53826H31.0961ZM34.8473 3.75371C35.0441 3.3685 35.3232 3.0682 35.6834 2.85528C36.0523 2.64237 36.4986 2.53529 37.0236 2.53529V3.69217H36.7285C35.4744 3.69217 34.8473 4.37276 34.8473 5.73517V9.40274H33.7285V2.65836H34.8473V3.75371ZM40.7011 9.5135C40.1847 9.5135 39.7212 9.42735 39.3118 9.25505C38.9011 9.07413 38.5777 8.82799 38.3404 8.51661C38.1019 8.19662 37.9716 7.8311 37.947 7.42127H39.1027C39.1347 7.75726 39.2909 8.03294 39.57 8.24585C39.8565 8.45877 40.229 8.56584 40.6889 8.56584C41.1143 8.56584 41.4512 8.47107 41.6971 8.28277C41.943 8.09447 42.0659 7.85572 42.0659 7.56896C42.0659 7.27358 41.9344 7.05575 41.6725 6.91668C41.4094 6.76899 41.0036 6.62499 40.4552 6.48591C39.9548 6.35423 39.5454 6.22377 39.2257 6.09208C38.9134 5.95301 38.6429 5.75118 38.4142 5.48903C38.1929 5.21827 38.0823 4.86505 38.0823 4.43061C38.0823 4.086 38.1843 3.76971 38.3896 3.48295C38.5937 3.19619 38.8851 2.96974 39.2626 2.80605C39.6388 2.63375 40.0692 2.5476 40.5536 2.5476C41.2987 2.5476 41.9012 2.7359 42.361 3.11373C42.8196 3.49156 43.0655 4.00847 43.0987 4.66445H41.9799C41.9553 4.31123 41.8114 4.02816 41.5495 3.81524C41.295 3.60233 40.9507 3.49525 40.5167 3.49525C40.1147 3.49525 39.795 3.58141 39.5577 3.75371C39.3192 3.92602 39.2011 4.15123 39.2011 4.43061C39.2011 4.65214 39.27 4.83675 39.4101 4.98444C39.5577 5.12351 39.7372 5.2392 39.9511 5.32904C40.1724 5.4115 40.4749 5.50503 40.861 5.6121C41.3442 5.74379 41.7376 5.87425 42.0413 6.00593C42.3438 6.129 42.602 6.3173 42.8159 6.57206C43.0373 6.82682 43.1516 7.15913 43.1602 7.56896C43.1602 7.93818 43.0569 8.27047 42.8528 8.56584C42.6475 8.86122 42.3561 9.09505 41.9799 9.26735C41.611 9.43104 41.1843 9.5135 40.7011 9.5135ZM45.3168 1.56302C45.1041 1.56302 44.9234 1.48917 44.7758 1.34149C44.6283 1.1938 44.5545 1.01289 44.5545 0.799973C44.5545 0.587057 44.6283 0.406138 44.7758 0.258451C44.9234 0.110764 45.1041 0.0369202 45.3168 0.0369202C45.5221 0.0369202 45.6943 0.110764 45.8332 0.258451C45.9807 0.406138 46.0545 0.587057 46.0545 0.799973C46.0545 1.01289 45.9807 1.1938 45.8332 1.34149C45.6943 1.48917 45.5221 1.56302 45.3168 1.56302ZM45.8578 2.65836V9.40274H44.7389V2.65836H45.8578ZM49.1296 3.5814V7.55665C49.1296 7.88525 49.1997 8.11909 49.3386 8.25816C49.4775 8.38985 49.7198 8.45508 50.064 8.45508H50.8878V9.40274H49.8796C49.2562 9.40274 48.789 9.25874 48.4779 8.97198C48.1669 8.68522 48.0107 8.21262 48.0107 7.55665V3.5814H47.1377V2.65836H48.0107V0.959964H49.1296V2.65836H50.8878V3.5814H49.1296ZM58.0474 2.65836L53.9899 12.578H52.8341L54.162 9.32889L51.4448 2.65836H52.6866L54.8014 8.12278L56.8916 2.65836H58.0474ZM65.3877 9.5135C64.7569 9.5135 64.1827 9.3695 63.6663 9.08274C63.1585 8.79598 62.7565 8.38985 62.4614 7.86433C62.1749 7.33143 62.031 6.71606 62.031 6.01824C62.031 5.32904 62.1786 4.72229 62.4737 4.19677C62.7774 3.66386 63.1868 3.25773 63.7032 2.97835C64.2196 2.69159 64.7975 2.5476 65.4368 2.5476C66.0762 2.5476 66.6541 2.69159 67.1705 2.97835C67.6869 3.25773 68.0926 3.65895 68.3877 4.18447C68.6914 4.70999 68.8426 5.32042 68.8426 6.01824C68.8426 6.71606 68.6877 7.33143 68.3754 7.86433C68.0729 8.38985 67.6586 8.79598 67.1336 9.08274C66.6098 9.3695 66.027 9.5135 65.3877 9.5135ZM65.3877 8.52892C65.7897 8.52892 66.1672 8.43415 66.5188 8.24585C66.8717 8.05755 67.1545 7.77449 67.3672 7.39666C67.5885 7.01883 67.6992 6.55976 67.6992 6.01824C67.6992 5.47672 67.5934 5.01766 67.3795 4.63983C67.1668 4.262 66.8877 3.98385 66.5434 3.80293C66.1992 3.61463 65.8266 3.51987 65.4245 3.51987C65.0151 3.51987 64.6376 3.61463 64.2934 3.80293C63.9577 3.98385 63.6872 4.262 63.4819 4.63983C63.2778 5.01766 63.1745 5.47672 63.1745 6.01824C63.1745 6.56838 63.2729 7.03113 63.4696 7.40896C63.6749 7.78679 63.9454 8.06986 64.2811 8.25816C64.618 8.43908 64.9868 8.52892 65.3877 8.52892ZM73.0562 3.5814H71.6423V9.40274H70.5234V3.5814H69.6504V2.65836H70.5234V2.17838C70.5234 1.42394 70.7165 0.873815 71.1013 0.529212C71.4947 0.175994 72.1218 0 72.9825 0V0.935353C72.4907 0.935353 72.1427 1.03381 71.9374 1.23072C71.7406 1.41903 71.6423 1.73532 71.6423 2.17838V2.65836H73.0562V3.5814ZM83.3683 3.33526C83.3683 4.04908 83.1224 4.64352 82.6306 5.11981C82.1474 5.58748 81.4048 5.82132 80.4052 5.82132H78.7576V9.40274H77.6387V0.824583H80.4052C81.3728 0.824583 82.1056 1.05842 82.606 1.5261C83.1138 1.99377 83.3683 2.59683 83.3683 3.33526ZM80.4052 4.89828C81.0285 4.89828 81.4871 4.76291 81.7822 4.49215C82.0773 4.22139 82.2249 3.83617 82.2249 3.33526C82.2249 2.27684 81.6187 1.74763 80.4052 1.74763H78.7576V4.89828H80.4052ZM90.9066 5.7721C90.9066 5.98502 90.8943 6.21146 90.8697 6.44899H85.4843C85.5249 7.11359 85.7512 7.63419 86.1606 8.01202C86.5786 8.38124 87.0827 8.56584 87.6729 8.56584C88.1561 8.56584 88.5582 8.45508 88.8778 8.23355C89.2061 8.00341 89.4348 7.70064 89.5664 7.32281H90.7713C90.5906 7.9714 90.2303 8.50061 89.6893 8.91044C89.1483 9.31289 88.4758 9.5135 87.6729 9.5135C87.0335 9.5135 86.4594 9.3695 85.9516 9.08274C85.4511 8.79598 85.0577 8.38985 84.7712 7.86433C84.4847 7.33143 84.3409 6.71606 84.3409 6.01824C84.3409 5.32042 84.4798 4.70999 84.7589 4.18447C85.038 3.65895 85.4266 3.25773 85.927 2.97835C86.4348 2.69159 87.0176 2.5476 87.6729 2.5476C88.3123 2.5476 88.8778 2.68667 89.3697 2.96604C89.8615 3.24542 90.2389 3.63064 90.5008 4.12293C90.7713 4.6066 90.9066 5.15674 90.9066 5.7721ZM89.7508 5.53826C89.7508 5.1112 89.6561 4.74691 89.468 4.44292C89.2799 4.13154 89.0217 3.89771 88.6934 3.7414C88.3737 3.57772 88.0172 3.49525 87.6237 3.49525C87.0581 3.49525 86.5749 3.67617 86.1729 4.03678C85.7794 4.39738 85.5544 4.89828 85.4966 5.53826H89.7508ZM95.6661 2.53529C96.4862 2.53529 97.1501 2.78513 97.6579 3.28603C98.1669 3.77832 98.4202 4.49214 98.4202 5.42749V9.40274H97.3136V5.58749C97.3136 4.91428 97.1464 4.4023 96.8095 4.04908C96.4739 3.68848 96.0153 3.50756 95.4325 3.50756C94.8423 3.50756 94.3714 3.69218 94.0185 4.0614C93.6742 4.43061 93.5021 4.96844 93.5021 5.67364V9.40274H92.3832V2.65836H93.5021V3.61833C93.7234 3.27373 94.0234 3.00666 94.3997 2.81836C94.7857 2.63006 95.2075 2.53529 95.6661 2.53529ZM103.531 2.53529C104.35 2.53529 105.014 2.78513 105.523 3.28603C106.031 3.77832 106.286 4.49214 106.286 5.42749V9.40274H105.179V5.58749C105.179 4.91428 105.011 4.4023 104.675 4.04908C104.338 3.68848 103.879 3.50756 103.298 3.50756C102.708 3.50756 102.235 3.69218 101.884 4.0614C101.54 4.43061 101.367 4.96844 101.367 5.67364V9.40274H100.249V2.65836H101.367V3.61833C101.589 3.27373 101.887 3.00666 102.265 2.81836C102.65 2.63006 103.072 2.53529 103.531 2.53529ZM110.498 9.5135C109.981 9.5135 109.518 9.42735 109.109 9.25505C108.699 9.07413 108.375 8.82799 108.137 8.51661C107.9 8.19662 107.768 7.8311 107.744 7.42127H108.9C108.933 7.75726 109.088 8.03294 109.367 8.24585C109.653 8.45877 110.027 8.56584 110.486 8.56584C110.912 8.56584 111.248 8.47107 111.494 8.28277C111.74 8.09447 111.863 7.85572 111.863 7.56896C111.863 7.27358 111.731 7.05575 111.469 6.91668C111.207 6.76899 110.802 6.62499 110.252 6.48591C109.752 6.35423 109.342 6.22377 109.022 6.09208C108.711 5.95301 108.441 5.75118 108.211 5.48903C107.99 5.21827 107.879 4.86505 107.879 4.43061C107.879 4.086 107.981 3.76971 108.186 3.48295C108.392 3.19619 108.682 2.96974 109.059 2.80605C109.437 2.63375 109.867 2.5476 110.35 2.5476C111.097 2.5476 111.699 2.7359 112.158 3.11373C112.616 3.49156 112.862 4.00847 112.896 4.66445H111.777C111.752 4.31123 111.608 4.02816 111.346 3.81524C111.092 3.60233 110.747 3.49525 110.313 3.49525C109.911 3.49525 109.592 3.58141 109.354 3.75371C109.117 3.92602 108.998 4.15123 108.998 4.43061C108.998 4.65214 109.068 4.83675 109.207 4.98444C109.354 5.12351 109.535 5.2392 109.748 5.32904C109.969 5.4115 110.273 5.50503 110.658 5.6121C111.141 5.74379 111.534 5.87425 111.838 6.00593C112.142 6.129 112.4 6.3173 112.613 6.57206C112.834 6.82682 112.948 7.15913 112.957 7.56896C112.957 7.93818 112.855 8.27047 112.65 8.56584C112.444 8.86122 112.154 9.09505 111.777 9.26735C111.408 9.43104 110.981 9.5135 110.498 9.5135ZM120.34 2.65836L116.283 12.578H115.127L116.455 9.32889L113.738 2.65836H114.98L117.094 8.12278L119.185 2.65836H120.34ZM122.584 0.295371V9.40274H121.465V0.295371H122.584ZM126.998 8.36893L129.088 2.65836H130.281L127.638 9.40274H126.334L123.691 2.65836H124.896L126.998 8.36893ZM130.965 6.00593C130.965 5.31673 131.104 4.71367 131.383 4.19677C131.662 3.67125 132.043 3.26511 132.526 2.97835C133.018 2.69159 133.563 2.5476 134.161 2.5476C134.752 2.5476 135.264 2.67436 135.698 2.92912C136.132 3.18388 136.457 3.50387 136.67 3.88908V2.65836H137.801V9.40274H136.67V8.1474C136.448 8.54123 136.116 8.86983 135.674 9.13197C135.24 9.38673 134.731 9.5135 134.149 9.5135C133.55 9.5135 133.009 9.36582 132.526 9.07044C132.043 8.77507 131.662 8.36031 131.383 7.82741C131.104 7.29451 130.965 6.68652 130.965 6.00593ZM136.67 6.01824C136.67 5.50995 136.568 5.06689 136.362 4.68906C136.157 4.31123 135.879 4.02447 135.526 3.82755C135.182 3.62202 134.801 3.51987 134.383 3.51987C133.965 3.51987 133.584 3.61833 133.239 3.81524C132.895 4.01216 132.621 4.29892 132.416 4.67676C132.21 5.05459 132.108 5.49764 132.108 6.00593C132.108 6.52284 132.21 6.97451 132.416 7.35973C132.621 7.73756 132.895 8.02802 133.239 8.23355C133.584 8.43047 133.965 8.52892 134.383 8.52892C134.801 8.52892 135.182 8.43047 135.526 8.23355C135.879 8.02802 136.157 7.73756 136.362 7.35973C136.568 6.97451 136.67 6.52653 136.67 6.01824ZM142.975 2.53529C143.794 2.53529 144.458 2.78513 144.967 3.28603C145.474 3.77832 145.729 4.49214 145.729 5.42749V9.40274H144.622V5.58749C144.622 4.91428 144.454 4.4023 144.118 4.04908C143.781 3.68848 143.323 3.50756 142.741 3.50756C142.151 3.50756 141.679 3.69218 141.327 4.0614C140.983 4.43061 140.811 4.96844 140.811 5.67364V9.40274H139.692V2.65836H140.811V3.61833C141.032 3.27373 141.331 3.00666 141.708 2.81836C142.093 2.63006 142.515 2.53529 142.975 2.53529ZM148.134 1.56302C147.921 1.56302 147.74 1.48917 147.593 1.34149C147.445 1.1938 147.372 1.01289 147.372 0.799973C147.372 0.587057 147.445 0.406138 147.593 0.258451C147.74 0.110764 147.921 0.0369202 148.134 0.0369202C148.339 0.0369202 148.511 0.110764 148.65 0.258451C148.798 0.406138 148.872 0.587057 148.872 0.799973C148.872 1.01289 148.798 1.1938 148.65 1.34149C148.511 1.48917 148.339 1.56302 148.134 1.56302ZM148.675 2.65836V9.40274H147.556V2.65836H148.675ZM150.164 6.00593C150.164 5.31673 150.304 4.71367 150.582 4.19677C150.861 3.67125 151.242 3.26511 151.725 2.97835C152.217 2.69159 152.763 2.5476 153.361 2.5476C153.951 2.5476 154.463 2.67436 154.897 2.92912C155.333 3.18388 155.656 3.50387 155.869 3.88908V2.65836H157V9.40274H155.869V8.1474C155.647 8.54123 155.316 8.86983 154.873 9.13197C154.439 9.38673 153.931 9.5135 153.348 9.5135C152.751 9.5135 152.21 9.36582 151.725 9.07044C151.242 8.77507 150.861 8.36031 150.582 7.82741C150.304 7.29451 150.164 6.68652 150.164 6.00593ZM155.869 6.01824C155.869 5.50995 155.767 5.06689 155.561 4.68906C155.357 4.31123 155.078 4.02447 154.725 3.82755C154.381 3.62202 154 3.51987 153.582 3.51987C153.164 3.51987 152.783 3.61833 152.438 3.81524C152.094 4.01216 151.82 4.29892 151.615 4.67676C151.411 5.05459 151.307 5.49764 151.307 6.00593C151.307 6.52284 151.411 6.97451 151.615 7.35973C151.82 7.73756 152.094 8.02802 152.438 8.23355C152.783 8.43047 153.164 8.52892 153.582 8.52892C154 8.52892 154.381 8.43047 154.725 8.23355C155.078 8.02802 155.357 7.73756 155.561 7.35973C155.767 6.97451 155.869 6.52653 155.869 6.01824Z" fill="#A8B0C9"/>
</svg>
