<svg width="27" height="27" viewBox="0 0 27 27" fill="none" xmlns="http://www.w3.org/2000/svg">
<path d="M22.3012 22.3017H18.597V16.5005C18.597 15.1172 18.5723 13.3364 16.6704 13.3364C14.7411 13.3364 14.4459 14.8436 14.4459 16.3998V22.3013H10.7417V10.3718H14.2977V12.0021H14.3475C14.7034 11.3936 15.2177 10.893 15.8355 10.5536C16.4534 10.2143 17.1517 10.0489 17.8561 10.075C21.6105 10.075 22.3027 12.5446 22.3027 15.7573L22.3012 22.3017ZM6.56211 8.74108C6.13696 8.74116 5.72132 8.61516 5.36778 8.37901C5.01424 8.14287 4.73868 7.80718 4.57591 7.41441C4.41314 7.02163 4.37048 6.58941 4.45335 6.1724C4.53622 5.75539 4.74088 5.37232 5.04146 5.07163C5.34203 4.77094 5.72502 4.56613 6.14199 4.48311C6.55896 4.40009 6.99117 4.44258 7.38399 4.60521C7.7768 4.76785 8.11257 5.04332 8.34884 5.39679C8.5851 5.75026 8.71126 6.16585 8.71133 6.59102C8.71138 6.87332 8.65582 7.15286 8.54784 7.41369C8.43986 7.67452 8.28158 7.91153 8.08201 8.11118C7.88243 8.31083 7.64548 8.46922 7.38469 8.5773C7.12391 8.68538 6.8444 8.74103 6.56211 8.74108ZM8.41422 22.3017H4.70614V10.3718H8.41422V22.3017ZM24.1479 1.0017H2.84478C2.36126 0.996247 1.89533 1.18298 1.54942 1.52088C1.2035 1.85877 1.0059 2.32018 1 2.80371V24.1959C1.0057 24.6797 1.20318 25.1414 1.54909 25.4797C1.89499 25.8179 2.36102 26.005 2.84478 25.9999H24.1479C24.6326 26.0059 25.0999 25.8194 25.4472 25.4811C25.7945 25.1429 25.9933 24.6806 26 24.1959V2.80217C25.9931 2.31768 25.7941 1.85574 25.4469 1.51786C25.0996 1.17997 24.6324 0.993769 24.1479 1.00016" fill="#1B1C30"/>
</svg>
