<svg width="7" height="11" viewBox="0 0 7 11" fill="none" xmlns="http://www.w3.org/2000/svg">
<path d="M3.3647 0C4.38337 0 5.20654 0.288385 5.8342 0.865163C6.46187 1.44194 6.77571 2.21441 6.77571 3.18258C6.77571 4.26404 6.4413 5.0674 5.77248 5.59268C5.10365 6.10766 4.19817 6.36515 3.05602 6.36515L3.00971 7.83285H1.79039L1.72865 5.39185H2.17625C3.19493 5.39185 3.99237 5.23735 4.56859 4.92836C5.14481 4.61937 5.43291 4.03744 5.43291 3.18258C5.43291 2.5646 5.24769 2.07537 4.87726 1.71488C4.50684 1.3544 4.00781 1.17416 3.38014 1.17416C2.74219 1.17416 2.23798 1.34925 1.86756 1.69943C1.50742 2.03932 1.32736 2.50796 1.32736 3.10533H0C0 2.48736 0.138916 1.94663 0.416736 1.48314C0.694555 1.00936 1.08554 0.643729 1.58973 0.386239C2.10422 0.128749 2.69587 0 3.3647 0ZM2.39233 11C2.1248 11 1.89843 10.9073 1.71322 10.7219C1.52801 10.5365 1.4354 10.3099 1.4354 10.0421C1.4354 9.77433 1.52801 9.54773 1.71322 9.36234C1.89843 9.17695 2.1248 9.08425 2.39233 9.08425C2.64957 9.08425 2.86565 9.17695 3.04058 9.36234C3.22579 9.54773 3.3184 9.77433 3.3184 10.0421C3.3184 10.3099 3.22579 10.5365 3.04058 10.7219C2.86565 10.9073 2.64957 11 2.39233 11Z" fill="#F2F4FA"/>
</svg>
