<svg width="135" height="23" viewBox="0 0 135 23" fill="none" xmlns="http://www.w3.org/2000/svg">
<path d="M11.5 22.75C17.7132 22.75 22.7499 17.7132 22.7499 11.5C22.7499 5.2868 17.7132 0.25 11.5 0.25C5.28678 0.25 0.25 5.2868 0.25 11.5C0.25 17.7132 5.28678 22.75 11.5 22.75Z" stroke="#B4B4FA" stroke-width="0.5"/>
<path d="M18.5504 15.6361H7.15606C6.3261 15.6361 5.65088 14.9624 5.65088 14.1339V6.33478C5.65088 5.50639 6.3261 4.83252 7.15606 4.83252H18.5504C19.3804 4.83252 20.0556 5.50639 20.0556 6.33478V14.1337C20.0556 14.9622 19.3804 15.6361 18.5504 15.6361ZM7.15606 5.73282C6.8225 5.73282 6.55117 6.00279 6.55117 6.33478V14.1339C6.55117 14.4657 6.8225 14.7358 7.15606 14.7358H18.5504C18.884 14.7358 19.1553 14.4659 19.1553 14.1337V6.33478C19.1553 6.00279 18.884 5.73282 18.5504 5.73282H7.15606Z" fill="#B4B4FA"/>
<path d="M10.911 8.99867C11.4437 8.99867 11.8756 8.56678 11.8756 8.034C11.8756 7.50123 11.4437 7.06934 10.911 7.06934C10.3782 7.06934 9.94629 7.50123 9.94629 8.034C9.94629 8.56678 10.3782 8.99867 10.911 8.99867Z" fill="#B4B4FA"/>
<path d="M14.0326 8.41846C13.9066 8.41846 13.7809 8.50117 13.6853 8.66649L11.7447 12.028C11.5655 11.7171 10.9124 10.5863 10.9124 10.5863C10.8169 10.4209 10.6912 10.3383 10.5654 10.3383C10.4397 10.3383 10.3139 10.4209 10.2185 10.5863C10.2185 10.5863 9.42384 11.9628 9.23264 12.2936L8.94106 12.799C8.75031 13.1296 8.90617 13.3995 9.28812 13.3995H16.4184C16.7997 13.3995 16.9556 13.1296 16.7656 12.799L14.3794 8.66649C14.2842 8.50117 14.1586 8.41846 14.0326 8.41846Z" fill="#B4B4FA"/>
<path d="M3.70264 16.9945V6.91113" stroke="#B4B4FA" stroke-width="0.45" stroke-miterlimit="10" stroke-linecap="round" stroke-linejoin="round"/>
<path d="M2.62231 7.63138L3.70267 6.55103L4.78302 7.63138" stroke="#B4B4FA" stroke-width="0.45" stroke-miterlimit="10" stroke-linecap="round" stroke-linejoin="round"/>
<path d="M4.78296 18.075H14.5061" stroke="#B4B4FA" stroke-width="0.45" stroke-miterlimit="10" stroke-linecap="round" stroke-linejoin="round"/>
<path d="M13.7859 16.9944L14.8662 18.0747L13.7859 19.1551" stroke="#B4B4FA" stroke-width="0.45" stroke-miterlimit="10" stroke-linecap="round" stroke-linejoin="round"/>
<path d="M3.70265 18.4348C3.90154 18.4348 4.06277 18.2736 4.06277 18.0747C4.06277 17.8758 3.90154 17.7146 3.70265 17.7146C3.50376 17.7146 3.34253 17.8758 3.34253 18.0747C3.34253 18.2736 3.50376 18.4348 3.70265 18.4348Z" fill="#B4B4FA"/>
<circle cx="39.5" cy="11.5" r="11.25" stroke="#B4B4FA" stroke-width="0.5"/>
<path d="M31.3468 8.49293C31.5681 8.49293 31.7492 8.31183 31.7492 8.09049V6.1789H33.6608C33.8821 6.1789 34.0632 5.9978 34.0632 5.77646C34.0632 5.55512 33.8821 5.37402 33.6608 5.37402H31.3468C31.1254 5.37402 30.9443 5.55512 30.9443 5.77646V8.09049C30.9443 8.31183 31.1254 8.49293 31.3468 8.49293Z" fill="#B4B4FA"/>
<path d="M33.0571 15.0325H31.7492V13.1209C31.7492 12.8996 31.5681 12.7185 31.3468 12.7185C31.1254 12.7185 30.9443 12.8996 30.9443 13.1209V15.435C30.9443 15.6563 31.1254 15.8374 31.3468 15.8374H33.0571C33.2785 15.8374 33.4596 15.6563 33.4596 15.435C33.4596 15.2136 33.2785 15.0325 33.0571 15.0325Z" fill="#B4B4FA"/>
<path d="M43.4198 5.37402H41.1058C40.8845 5.37402 40.7034 5.55512 40.7034 5.77646C40.7034 5.9978 40.8845 6.1789 41.1058 6.1789H43.0174V7.08439C43.0174 7.30573 43.1985 7.28561 43.4198 7.28561C43.6412 7.28561 43.8223 7.30573 43.8223 7.08439V5.77646C43.8223 5.55512 43.6412 5.37402 43.4198 5.37402Z" fill="#B4B4FA"/>
<path d="M33.1576 9.69996C33.3789 9.69996 33.56 9.51886 33.56 9.29752V7.38593H35.4716C35.6929 7.38593 35.874 7.20484 35.874 6.98349C35.874 6.76215 35.6929 6.58105 35.4716 6.58105H33.1576C32.9362 6.58105 32.7551 6.76215 32.7551 6.98349V9.29752C32.7551 9.51886 32.9362 9.69996 33.1576 9.69996Z" fill="#B4B4FA"/>
<path d="M34.7673 16.2396H33.56V14.328C33.56 14.1066 33.3789 13.9255 33.1576 13.9255C32.9362 13.9255 32.7551 14.1066 32.7551 14.328V16.642C32.7551 16.8633 32.9362 17.0444 33.1576 17.0444H34.7673C34.9887 17.0444 35.1698 16.8633 35.1698 16.642C35.1698 16.4207 34.9887 16.2396 34.7673 16.2396Z" fill="#B4B4FA"/>
<path d="M45.2306 6.58105H42.9166C42.6953 6.58105 42.5142 6.76215 42.5142 6.98349C42.5142 7.20484 42.6953 7.38593 42.9166 7.38593H44.8282V8.19081C44.8282 8.41215 45.0093 8.59325 45.2306 8.59325C45.452 8.59325 45.6331 8.41215 45.6331 8.19081V6.98349C45.6331 6.76215 45.452 6.58105 45.2306 6.58105Z" fill="#B4B4FA"/>
<path d="M34.9686 10.9075C35.1899 10.9075 35.371 10.7264 35.371 10.505V8.59345H37.2826C37.504 8.59345 37.6851 8.41235 37.6851 8.19101C37.6851 7.96967 37.504 7.78857 37.2826 7.78857H34.9686C34.7473 7.78857 34.5662 7.96967 34.5662 8.19101V10.505C34.5662 10.7264 34.7473 10.9075 34.9686 10.9075Z" fill="#B4B4FA"/>
<path d="M37.2826 17.4471H35.371V15.5355C35.371 15.3142 35.1899 15.1331 34.9686 15.1331C34.7473 15.1331 34.5662 15.3142 34.5662 15.5355V17.8495C34.5662 18.0709 34.7473 18.252 34.9686 18.252H37.2826C37.504 18.252 37.6851 18.0709 37.6851 17.8495C37.6851 17.6282 37.504 17.4471 37.2826 17.4471Z" fill="#B4B4FA"/>
<path d="M47.0417 15.1331C46.8203 15.1331 46.6392 15.3142 46.6392 15.5355V17.4471H44.7276C44.5063 17.4471 44.3252 17.6282 44.3252 17.8495C44.3252 18.0709 44.5063 18.252 44.7276 18.252H47.0417C47.263 18.252 47.4441 18.0709 47.4441 17.8495V15.5355C47.4441 15.3142 47.263 15.1331 47.0417 15.1331Z" fill="#B4B4FA"/>
<path d="M47.0417 7.78857H44.7276C44.5063 7.78857 44.3252 7.96967 44.3252 8.19101C44.3252 8.41235 44.5063 8.59345 44.7276 8.59345H46.6392V10.505C46.6392 10.7264 46.8203 10.9075 47.0417 10.9075C47.263 10.9075 47.4441 10.7264 47.4441 10.505V8.19101C47.4441 7.96967 47.263 7.78857 47.0417 7.78857Z" fill="#B4B4FA"/>
<path d="M42.9368 13.4227H44.4862C44.7076 13.4227 44.8887 13.2416 44.8887 13.0203C44.8887 12.7989 44.7076 12.6178 44.4862 12.6178H42.9368C42.7758 11.8532 42.1722 11.2495 41.4076 11.0885V9.53916C41.4076 9.31782 41.2265 9.13672 41.0051 9.13672C40.7838 9.13672 40.6027 9.31782 40.6027 9.53916V11.0885C39.838 11.2495 39.2344 11.8532 39.0734 12.6178H37.524C37.3027 12.6178 37.1216 12.7989 37.1216 13.0203C37.1216 13.2416 37.3027 13.4227 37.524 13.4227H39.0734C39.2344 14.1873 39.838 14.791 40.6027 14.952V16.5014C40.6027 16.7227 40.7838 16.9038 41.0051 16.9038C41.2265 16.9038 41.4076 16.7227 41.4076 16.5014V14.952C42.1722 14.791 42.7758 14.1873 42.9368 13.4227ZM41.0051 14.1873C40.3612 14.1873 39.838 13.6642 39.838 13.0203C39.838 12.3764 40.3612 11.8532 41.0051 11.8532C41.649 11.8532 42.1722 12.3764 42.1722 13.0203C42.1722 13.6642 41.649 14.1873 41.0051 14.1873Z" fill="#B4B4FA"/>
<circle cx="67.5" cy="11.5" r="11.25" stroke="#B4B4FA" stroke-width="0.5"/>
<path d="M73.9049 19.4443H61.5652C61.4677 19.4443 61.3889 19.3642 61.3889 19.265V3.12368C61.3889 3.0245 61.4677 2.94434 61.5652 2.94434H73.9049C74.0024 2.94434 74.0812 3.0245 74.0812 3.12368V19.265C74.0812 19.3642 74.0022 19.4443 73.9049 19.4443ZM61.7415 19.0856H73.7287V3.30303H61.7415V19.0856Z" fill="#B4B4FA"/>
<path d="M72.6569 4.3766H62.8128C62.7272 4.3766 62.658 4.34017 62.658 4.29511C62.658 4.25005 62.7272 4.21362 62.8128 4.21362H72.6569C72.7426 4.21362 72.8118 4.25005 72.8118 4.29511C72.8118 4.34017 72.7422 4.3766 72.6569 4.3766Z" fill="#B4B4FA"/>
<path d="M72.6569 6.91518H62.8128C62.7272 6.91518 62.658 6.87875 62.658 6.83369C62.658 6.78863 62.7272 6.7522 62.8128 6.7522H72.6569C72.7426 6.7522 72.8118 6.78863 72.8118 6.83369C72.8118 6.87875 72.7422 6.91518 72.6569 6.91518Z" fill="#B4B4FA"/>
<path d="M72.6569 9.45375H62.8128C62.7272 9.45375 62.658 9.41732 62.658 9.37226C62.658 9.3272 62.7272 9.29077 62.8128 9.29077H72.6569C72.7426 9.29077 72.8118 9.3272 72.8118 9.37226C72.8118 9.41732 72.7422 9.45375 72.6569 9.45375Z" fill="#B4B4FA"/>
<path d="M72.6569 11.9918H62.8128C62.7272 11.9918 62.658 11.9554 62.658 11.9103C62.658 11.8653 62.7272 11.8289 62.8128 11.8289H72.6569C72.7426 11.8289 72.8118 11.8653 72.8118 11.9103C72.8118 11.9554 72.7422 11.9918 72.6569 11.9918Z" fill="#B4B4FA"/>
<path d="M72.6569 14.5307H62.8128C62.7272 14.5307 62.658 14.4942 62.658 14.4492C62.658 14.4041 62.7272 14.3677 62.8128 14.3677H72.6569C72.7426 14.3677 72.8118 14.4041 72.8118 14.4492C72.8118 14.4942 72.7422 14.5307 72.6569 14.5307Z" fill="#B4B4FA"/>
<path d="M72.6763 5.01137H64.0628C63.9878 5.01137 63.9272 4.97494 63.9272 4.92988C63.9272 4.88482 63.9878 4.84839 64.0628 4.84839H72.6763C72.7513 4.84839 72.8119 4.88482 72.8119 4.92988C72.8119 4.97494 72.751 5.01137 72.6763 5.01137Z" fill="#B4B4FA"/>
<path d="M72.6763 7.5497H64.0628C63.9878 7.5497 63.9272 7.51327 63.9272 7.46821C63.9272 7.42315 63.9878 7.38672 64.0628 7.38672H72.6763C72.7513 7.38672 72.8119 7.42315 72.8119 7.46821C72.8119 7.51327 72.751 7.5497 72.6763 7.5497Z" fill="#B4B4FA"/>
<path d="M72.6763 10.0883H64.0628C63.9878 10.0883 63.9272 10.0518 63.9272 10.0068C63.9272 9.96172 63.9878 9.92529 64.0628 9.92529H72.6763C72.7513 9.92529 72.8119 9.96172 72.8119 10.0068C72.8119 10.0518 72.751 10.0883 72.6763 10.0883Z" fill="#B4B4FA"/>
<path d="M72.6763 12.6268H64.0628C63.9878 12.6268 63.9272 12.5904 63.9272 12.5454C63.9272 12.5003 63.9878 12.4639 64.0628 12.4639H72.6763C72.7513 12.4639 72.8119 12.5003 72.8119 12.5454C72.8119 12.5904 72.751 12.6268 72.6763 12.6268Z" fill="#B4B4FA"/>
<path d="M72.6763 15.1649H64.0628C63.9878 15.1649 63.9272 15.1285 63.9272 15.0834C63.9272 15.0384 63.9878 15.002 64.0628 15.002H72.6763C72.7513 15.002 72.8119 15.0384 72.8119 15.0834C72.8119 15.1285 72.751 15.1649 72.6763 15.1649Z" fill="#B4B4FA"/>
<path d="M72.6763 5.64589H64.0628C63.9878 5.64589 63.9272 5.60946 63.9272 5.5644C63.9272 5.51934 63.9878 5.48291 64.0628 5.48291H72.6763C72.7513 5.48291 72.8119 5.51934 72.8119 5.5644C72.8119 5.60946 72.751 5.64589 72.6763 5.64589Z" fill="#B4B4FA"/>
<path d="M72.6763 8.18422H64.0628C63.9878 8.18422 63.9272 8.14779 63.9272 8.10273C63.9272 8.05767 63.9878 8.02124 64.0628 8.02124H72.6763C72.7513 8.02124 72.8119 8.05767 72.8119 8.10273C72.8119 8.14779 72.751 8.18422 72.6763 8.18422Z" fill="#B4B4FA"/>
<path d="M72.6763 10.7228H64.0628C63.9878 10.7228 63.9272 10.6864 63.9272 10.6413C63.9272 10.5962 63.9878 10.5598 64.0628 10.5598H72.6763C72.7513 10.5598 72.8119 10.5962 72.8119 10.6413C72.8119 10.6864 72.751 10.7228 72.6763 10.7228Z" fill="#B4B4FA"/>
<path d="M72.6763 13.2614H64.0628C63.9878 13.2614 63.9272 13.2249 63.9272 13.1799C63.9272 13.1348 63.9878 13.0984 64.0628 13.0984H72.6763C72.7513 13.0984 72.8119 13.1348 72.8119 13.1799C72.8119 13.2249 72.751 13.2614 72.6763 13.2614Z" fill="#B4B4FA"/>
<path d="M72.6763 15.7997H64.0628C63.9878 15.7997 63.9272 15.7633 63.9272 15.7182C63.9272 15.6731 63.9878 15.6367 64.0628 15.6367H72.6763C72.7513 15.6367 72.8119 15.6731 72.8119 15.7182C72.8119 15.7633 72.751 15.7997 72.6763 15.7997Z" fill="#B4B4FA"/>
<circle cx="95.5" cy="11.5" r="11.25" stroke="#B4B4FA" stroke-width="0.5"/>
<path d="M105.204 11.7411L102.267 6.52613C102.167 6.34881 101.98 6.23867 101.779 6.23867C101.677 6.23867 101.577 6.2666 101.49 6.31974L100.297 7.04691C100.035 7.20647 99.9459 7.55609 100.098 7.82593L100.263 8.12013C100.041 8.19375 99.8263 8.238 99.6504 8.22325C99.4593 8.20735 99.2121 8.14935 98.9262 8.08217C98.4288 7.9653 97.8097 7.81978 97.1366 7.81978L97.0891 7.81992C96.1009 7.82937 94.3867 7.92362 94.0134 8.44869C93.9647 8.5173 93.9056 8.59866 93.8429 8.68502C93.7443 8.66855 93.6395 8.65251 93.5259 8.63575C93.1983 8.58734 92.7499 8.52117 92.593 8.43222C92.4636 8.35889 92.2281 8.21394 91.9893 8.06455L92.1237 7.82608C92.2758 7.55595 92.1863 7.20632 91.9244 7.0472L90.7311 6.31959C90.6441 6.2666 90.5444 6.23853 90.443 6.23853C90.2412 6.23853 90.0537 6.34896 89.954 6.52642L87.018 11.7417C86.8666 12.0114 86.9561 12.3607 87.2176 12.5206L88.4109 13.2479C88.4978 13.3007 88.5974 13.3287 88.6986 13.3287C88.9003 13.3287 89.0879 13.2184 89.1879 13.0408L89.4238 12.6215L89.6375 12.8592C89.6712 12.901 89.8717 13.1506 90.1455 13.4928L90.0638 13.6037C89.7603 14.0164 89.8661 14.6428 90.2997 15.0001C90.4728 15.1429 90.6805 15.228 90.8915 15.2448C90.8678 15.5766 91.0101 15.9307 91.2971 16.1676C91.4909 16.3273 91.7281 16.4154 91.965 16.4154C92.0247 16.4154 92.0826 16.4085 92.1393 16.3978C92.1943 16.6232 92.3225 16.8381 92.5176 16.9988C92.7119 17.159 92.9494 17.247 93.1866 17.247C93.2867 17.247 93.3831 17.2305 93.4736 17.2009C93.5363 17.4017 93.6572 17.5907 93.8331 17.7354C94.0273 17.8949 94.2648 17.983 94.5016 17.983C94.7893 17.983 95.0491 17.8547 95.2141 17.6305L95.3617 17.4306C95.9783 17.6449 96.3615 17.7186 96.4385 17.732C96.5089 17.7491 96.7581 17.8046 97.0502 17.8046C97.2828 17.8046 97.5419 17.7696 97.7592 17.6522C98.0806 17.4793 98.3106 17.1898 98.4333 17.0051C98.6406 17.0158 98.9632 17.0015 99.1979 16.8478C99.5066 16.6456 99.616 16.2942 99.6535 16.0383C99.8768 16.0285 100.172 15.9804 100.378 15.8134C100.664 15.5812 100.755 15.2783 100.776 15.0337C101.135 15.0583 101.566 14.9563 101.813 14.5043C101.994 14.1716 101.993 13.8254 101.821 13.5123C101.961 13.4318 102.129 13.3181 102.309 13.1541C102.428 13.0471 102.513 12.9576 102.588 12.8783C102.663 12.8001 102.73 12.7308 102.817 12.6556L103.034 13.0402C103.134 13.2179 103.321 13.3284 103.523 13.3284C103.624 13.3284 103.724 13.3003 103.811 13.2472L105.004 12.5198C105.266 12.3607 105.355 12.0114 105.204 11.7411ZM100.596 7.53618L101.774 6.81774L104.706 12.0307L103.527 12.7492L100.596 7.53618ZM102.174 12.4832C102.102 12.5585 102.028 12.6364 101.924 12.7297C101.727 12.9086 101.549 13.0133 101.433 13.0706C101.432 13.0711 101.43 13.0721 101.429 13.0727L101.139 12.8332L101.134 12.8291C101.116 12.8143 100.856 12.5963 100.307 12.1896C99.9324 11.9121 99.4246 11.548 98.7632 11.0974C98.6778 11.0394 98.3963 10.8577 98.3447 10.8256C97.3684 10.2161 96.1738 9.61816 96.116 9.58937C96.0759 9.56946 96.0321 9.55929 95.9881 9.55929C95.9589 9.55929 95.9297 9.56373 95.9011 9.57247L95.1521 9.81066C95.0861 9.83172 95.0297 9.8764 94.9937 9.9357C94.9873 9.9463 94.3353 11.0043 93.3709 11.079C93.3248 11.0835 93.2821 11.0861 93.2426 11.0861C93.142 11.0861 93.1049 11.0686 93.1032 11.0704C93.0992 11.0603 93.0757 10.9853 93.1397 10.755C93.3338 10.3734 94.3729 8.93023 94.4342 8.84487C94.4493 8.82381 94.4666 8.80018 94.4805 8.7807C94.6117 8.60481 95.6484 8.40659 97.0947 8.39284L97.1367 8.39269C97.7433 8.39269 98.3023 8.52403 98.7951 8.63991C99.1037 8.71224 99.3695 8.77483 99.603 8.79416C99.8894 8.81823 100.225 8.73931 100.547 8.62315L102.532 12.1484C102.515 12.1613 102.262 12.3905 102.174 12.4832ZM88.6942 12.7496L87.5173 12.0224L90.4476 6.81789L91.6244 7.54521L88.6942 12.7496ZM94.7531 17.2909C94.6764 17.3952 94.5626 17.4105 94.5016 17.4105C94.3972 17.4105 94.289 17.3689 94.1972 17.2937C94.0609 17.1815 93.99 17.0154 93.997 16.8673C94.0001 16.7985 94.0186 16.7332 94.058 16.6798L94.0581 16.6795L94.1078 16.612L94.2864 16.3698L94.6535 15.8718C94.7304 15.7674 94.8445 15.7518 94.9056 15.7518C95.0099 15.7518 95.118 15.7935 95.21 15.869C95.4095 16.033 95.4729 16.3143 95.3489 16.483L95.1564 16.744L94.8042 17.2215L94.7531 17.2909ZM93.1864 16.6745C93.082 16.6745 92.9739 16.6328 92.8818 16.557C92.757 16.4545 92.6854 16.3062 92.6797 16.1683C92.6778 16.1222 92.685 16.0781 92.6982 16.0363C92.7088 16.003 92.7224 15.9709 92.7433 15.9429L92.9503 15.6619L93.7353 14.5965C93.7582 14.5654 93.7844 14.543 93.8115 14.5258C93.8754 14.4849 93.9444 14.4765 93.9872 14.4765C94.0915 14.4765 94.1995 14.5182 94.2909 14.5934C94.4907 14.7578 94.5544 15.0392 94.4301 15.2078L93.7636 16.1123L93.4379 16.5546C93.4315 16.5635 93.4245 16.5706 93.4175 16.5784C93.3421 16.6609 93.2423 16.6745 93.1864 16.6745ZM91.4862 15.176C91.4958 15.1531 91.5075 15.1312 91.5224 15.111L91.8167 14.7115L91.8311 14.6922L92.0774 14.3582C92.0783 14.357 92.0788 14.3558 92.0797 14.3548L92.7526 13.4415C92.8298 13.3371 92.9439 13.3216 93.0053 13.3216C93.1095 13.3216 93.2174 13.3632 93.3093 13.4389C93.5093 13.6029 93.5726 13.8841 93.4483 14.0533L93.3945 14.1262C93.3507 14.1653 93.3099 14.2082 93.2744 14.2566L92.4786 15.3366L92.2824 15.6027C92.249 15.6477 92.2215 15.6957 92.198 15.7451C92.1784 15.7666 92.1573 15.7836 92.1356 15.7966C92.073 15.8345 92.0067 15.8425 91.9648 15.8425C91.8607 15.8425 91.7529 15.8011 91.6616 15.7259C91.4859 15.5808 91.4157 15.3453 91.4862 15.176ZM90.5169 13.9581C90.5199 13.9534 90.5217 13.9481 90.525 13.9435L90.8674 13.4789L90.921 13.4063C90.998 13.3019 91.1122 13.2865 91.1734 13.2865C91.2778 13.2865 91.3856 13.3281 91.4777 13.4037C91.6769 13.5673 91.7405 13.847 91.6176 14.016C91.6172 14.0166 91.6169 14.0174 91.6165 14.018L91.4627 14.2264L91.4198 14.2843L91.2199 14.5554C91.1776 14.6128 91.1242 14.6429 91.0744 14.659C91.0337 14.672 90.9953 14.6756 90.9678 14.6756C90.8635 14.6756 90.7557 14.634 90.6639 14.5584C90.4698 14.3984 90.4059 14.128 90.5169 13.9581ZM101.31 14.2303C101.154 14.5179 100.826 14.4794 100.663 14.4391L97.9636 12.818C97.8279 12.7368 97.6516 12.7804 97.5705 12.9163C97.4892 13.0517 97.533 13.228 97.6688 13.3093L100.205 14.8318C100.218 14.9602 100.214 15.209 100.018 15.369C99.9141 15.4525 99.6495 15.4739 99.4702 15.4651L97.1897 14.1452C97.0526 14.066 96.8775 14.1127 96.7984 14.2496C96.7192 14.3865 96.7659 14.5619 96.9029 14.6409L99.0915 15.9078C99.0742 16.062 99.0227 16.2786 98.8842 16.3693C98.7656 16.4473 98.4881 16.4459 98.3301 16.4203C98.3201 16.4185 98.3102 16.4207 98.3001 16.42L96.3958 15.5003C96.2531 15.4313 96.0817 15.4914 96.0131 15.6336C95.9442 15.7762 96.0039 15.9475 96.1464 16.0162L97.847 16.8375C97.756 16.9485 97.6338 17.0698 97.488 17.1483C97.2206 17.2922 96.7329 17.2158 96.5684 17.1744C96.5599 17.1722 96.5516 17.1706 96.5432 17.1691C96.5379 17.1682 96.2399 17.1175 95.7192 16.9466L95.8101 16.8233C96.1139 16.4101 96.0079 15.7837 95.5738 15.4268C95.4182 15.2989 95.235 15.218 95.0467 15.1905C95.1176 14.8274 94.9767 14.4162 94.6555 14.1517C94.4868 14.0127 94.2854 13.9282 94.08 13.9086C94.1001 13.5793 93.9577 13.2305 93.6734 12.9974C93.4796 12.8374 93.2423 12.7493 93.0051 12.7493C92.7174 12.7493 92.4574 12.8776 92.2915 13.1018L92.13 13.3211C92.0614 13.1869 91.9654 13.0631 91.8417 12.9616C91.6476 12.8019 91.4103 12.7139 91.1734 12.7139C90.9072 12.7139 90.6657 12.8251 90.4996 13.0191C90.2522 12.7103 90.0829 12.4996 90.0788 12.4945C90.0755 12.4905 90.0721 12.4865 90.0685 12.4826L89.7203 12.0953L91.7082 8.56471C91.9448 8.71252 92.1772 8.85547 92.3109 8.93109C92.5605 9.0726 93.0088 9.13892 93.4424 9.20294C93.45 9.20409 93.4577 9.20523 93.4653 9.20638C93.1409 9.65855 92.795 10.1613 92.6151 10.5238C92.6075 10.539 92.6013 10.5547 92.5966 10.5711C92.5266 10.8123 92.4551 11.1622 92.6442 11.414C92.7666 11.577 92.968 11.6596 93.2427 11.6596C93.2999 11.6596 93.3619 11.6562 93.4218 11.6502C94.4928 11.5674 95.2144 10.6322 95.4232 10.3263L95.9632 10.1546C96.2813 10.3167 97.2735 10.8303 98.0763 11.3339C98.1018 11.3501 98.4182 11.5558 98.4408 11.5712C99.1303 12.0412 99.6545 12.419 100.03 12.6984C100.282 12.8911 100.544 13.0938 100.756 13.2608C100.763 13.2661 100.766 13.2692 100.767 13.2696L101.177 13.6075C101.453 13.8749 101.386 14.0906 101.31 14.2303Z" fill="#B4B4FA"/>
<circle cx="123.5" cy="11.5" r="11.25" stroke="#B4B4FA" stroke-width="0.5"/>
<path d="M129.708 19.2611H117.562C117.466 19.2611 117.389 19.1835 117.389 19.0876V3.46436C117.389 3.36837 117.466 3.29077 117.562 3.29077H129.708C129.804 3.29077 129.882 3.36837 129.882 3.46436V19.0876C129.882 19.1835 129.804 19.2611 129.708 19.2611ZM117.736 18.914H129.535V3.63795H117.736V18.914Z" fill="#B4B4FA"/>
<path d="M118.657 11.2481H116.957C116.881 11.2481 116.819 11.1871 116.819 11.1117C116.819 11.0363 116.881 10.9753 116.957 10.9753H118.657C118.733 10.9753 118.795 11.0363 118.795 11.1117C118.795 11.1871 118.733 11.2481 118.657 11.2481Z" fill="#B4B4FA"/>
<path d="M118.657 12.9192H116.957C116.881 12.9192 116.819 12.8582 116.819 12.7828C116.819 12.7075 116.881 12.6465 116.957 12.6465H118.657C118.733 12.6465 118.795 12.7075 118.795 12.7828C118.795 12.8582 118.733 12.9192 118.657 12.9192Z" fill="#B4B4FA"/>
<path d="M118.657 14.5901H116.957C116.881 14.5901 116.819 14.5291 116.819 14.4537C116.819 14.3784 116.881 14.3174 116.957 14.3174H118.657C118.733 14.3174 118.795 14.3784 118.795 14.4537C118.795 14.5291 118.733 14.5901 118.657 14.5901Z" fill="#B4B4FA"/>
<path d="M118.657 16.2612H116.957C116.881 16.2612 116.819 16.2002 116.819 16.1249C116.819 16.0495 116.881 15.9885 116.957 15.9885H118.657C118.733 15.9885 118.795 16.0495 118.795 16.1249C118.795 16.2002 118.733 16.2612 118.657 16.2612Z" fill="#B4B4FA"/>
<path d="M118.657 17.9321H116.957C116.881 17.9321 116.819 17.8711 116.819 17.7958C116.819 17.7204 116.881 17.6594 116.957 17.6594H118.657C118.733 17.6594 118.795 17.7204 118.795 17.7958C118.795 17.8711 118.733 17.9321 118.657 17.9321Z" fill="#B4B4FA"/>
<path d="M118.657 7.90602H116.957C116.881 7.90602 116.819 7.84502 116.819 7.76966C116.819 7.69429 116.881 7.6333 116.957 7.6333H118.657C118.733 7.6333 118.795 7.69429 118.795 7.76966C118.795 7.84502 118.733 7.90602 118.657 7.90602Z" fill="#B4B4FA"/>
<path d="M118.657 9.57691H116.957C116.881 9.57691 116.819 9.51592 116.819 9.44056C116.819 9.36519 116.881 9.3042 116.957 9.3042H118.657C118.733 9.3042 118.795 9.36519 118.795 9.44056C118.795 9.51592 118.733 9.57691 118.657 9.57691Z" fill="#B4B4FA"/>
<path d="M118.657 4.56397H116.957C116.881 4.56397 116.819 4.50298 116.819 4.42762C116.819 4.35225 116.881 4.29126 116.957 4.29126H118.657C118.733 4.29126 118.795 4.35225 118.795 4.42762C118.795 4.50298 118.733 4.56397 118.657 4.56397Z" fill="#B4B4FA"/>
<path d="M118.657 6.23512H116.957C116.881 6.23512 116.819 6.17412 116.819 6.09876C116.819 6.0234 116.881 5.9624 116.957 5.9624H118.657C118.733 5.9624 118.795 6.0234 118.795 6.09876C118.795 6.17412 118.733 6.23512 118.657 6.23512Z" fill="#B4B4FA"/>
<path d="M126.723 9.52441H120.913C120.372 9.52441 119.931 9.09128 119.931 8.55888V6.98108C119.931 6.44852 120.372 6.01538 120.913 6.01538H126.723C127.265 6.01538 127.705 6.44868 127.705 6.98108V8.55888C127.705 9.09128 127.265 9.52441 126.723 9.52441ZM120.913 6.18232C120.465 6.18232 120.101 6.54059 120.101 6.98091V8.55871C120.101 8.99904 120.465 9.35714 120.913 9.35714H126.723C127.171 9.35714 127.535 8.99887 127.535 8.55871V6.98091C127.535 6.54042 127.171 6.18232 126.723 6.18232H120.913Z" fill="#B4B4FA"/>
<path d="M126.24 7.20096H121.142C121.097 7.20096 121.062 7.1657 121.062 7.12209C121.062 7.07847 121.097 7.04321 121.142 7.04321H126.24C126.284 7.04321 126.32 7.07847 126.32 7.12209C126.32 7.1657 126.284 7.20096 126.24 7.20096Z" fill="#B4B4FA"/>
<path d="M126.24 7.86991H121.142C121.097 7.86991 121.062 7.83465 121.062 7.79103C121.062 7.74742 121.097 7.71216 121.142 7.71216H126.24C126.284 7.71216 126.32 7.74742 126.32 7.79103C126.32 7.83465 126.284 7.86991 126.24 7.86991Z" fill="#B4B4FA"/>
<path d="M126.24 8.53812H121.142C121.097 8.53812 121.062 8.50286 121.062 8.45924C121.062 8.41563 121.097 8.38037 121.142 8.38037H126.24C126.284 8.38037 126.32 8.41563 126.32 8.45924C126.32 8.50286 126.284 8.53812 126.24 8.53812Z" fill="#B4B4FA"/>
</svg>
