<svg width="24" height="40" viewBox="0 0 24 40" fill="none" xmlns="http://www.w3.org/2000/svg">
<path d="M23.3055 19.9889C23.3055 19.0762 22.9716 18.3194 22.2593 17.6071L5.11964 0.845854C4.5409 0.267112 3.85086 0 3.02727 0C1.35782 0 0 1.3133 0 2.98275C0 3.80634 0.356149 4.56316 0.957151 5.16416L16.1825 19.9666L0.957151 34.8136C0.356149 35.4146 0 36.1491 0 36.995C0 38.6644 1.35782 40 3.02727 40C3.85086 40 4.5409 39.7106 5.11964 39.1319L22.2593 22.3706C22.9939 21.6583 23.3055 20.9015 23.3055 19.9889Z" fill="white"/>
</svg>
