<svg width="78" height="15" viewBox="0 0 78 15" fill="none" xmlns="http://www.w3.org/2000/svg">
<path d="M5.81247 0.634981V1.72773H1.34247V5.19792H4.97158V6.29066H1.34247V10.9274H0V0.634981H5.81247ZM14.6037 2.83523V10.9274H13.2612V9.73133C13.0055 10.1448 12.6466 10.4697 12.1843 10.7059C11.7319 10.9324 11.2303 11.0456 10.6796 11.0456C10.0501 11.0456 9.48461 10.9176 8.98303 10.6616C8.48145 10.3958 8.08313 10.0021 7.78808 9.4803C7.50286 8.95854 7.36026 8.32356 7.36026 7.57538V2.83523H8.68797V7.39818C8.68797 8.19559 8.8896 8.81087 9.29283 9.24403C9.69607 9.66735 10.2468 9.87899 10.9451 9.87899C11.6631 9.87899 12.2286 9.6575 12.6416 9.2145C13.0547 8.77149 13.2612 8.12667 13.2612 7.28004V2.83523H14.6037ZM20.8096 2.68757C21.7931 2.68757 22.5897 2.98782 23.1995 3.58833C23.8093 4.17901 24.1142 5.03548 24.1142 6.15776V10.9274H22.7864V6.34973C22.7864 5.54248 22.5848 4.9272 22.1816 4.50388C21.7783 4.07072 21.2276 3.85414 20.5293 3.85414C19.8212 3.85414 19.2557 4.07565 18.8328 4.51866C18.4197 4.96166 18.2132 5.60647 18.2132 6.4531V10.9274H16.8707V2.83523H18.2132V3.98704C18.4787 3.57357 18.8377 3.25363 19.2901 3.0272C19.7523 2.80078 20.2588 2.68757 20.8096 2.68757ZM25.8045 6.85181C25.8045 6.02487 25.9717 5.30128 26.3061 4.68108C26.6405 4.05103 27.0978 3.56372 27.6781 3.21916C28.2682 2.8746 28.9272 2.70232 29.6549 2.70232C30.2844 2.70232 30.8696 2.84999 31.4105 3.14533C31.9514 3.43082 32.3645 3.80985 32.6497 4.28239V0H34.0069V10.9274H32.6497V9.40647C32.3841 9.88885 31.9908 10.2875 31.4695 10.6026C30.9482 10.9077 30.3385 11.0603 29.6402 11.0603C28.9222 11.0603 28.2682 10.8831 27.6781 10.5287C27.0978 10.1743 26.6405 9.67719 26.3061 9.0373C25.9717 8.3974 25.8045 7.66891 25.8045 6.85181ZM32.6497 6.86657C32.6497 6.25621 32.5268 5.72461 32.2809 5.27176C32.035 4.81892 31.7006 4.47434 31.2777 4.23807C30.8646 3.99196 30.4073 3.86892 29.9057 3.86892C29.4041 3.86892 28.9468 3.98705 28.5338 4.22332C28.1207 4.45958 27.7912 4.80414 27.5453 5.25699C27.2995 5.70984 27.1765 6.24145 27.1765 6.85181C27.1765 7.47201 27.2995 8.01345 27.5453 8.47615C27.7912 8.929 28.1207 9.27848 28.5338 9.5246C28.9468 9.76087 29.4041 9.87899 29.9057 9.87899C30.4073 9.87899 30.8646 9.76087 31.2777 9.5246C31.7006 9.27848 32.035 8.929 32.2809 8.47615C32.5268 8.01345 32.6497 7.47693 32.6497 6.86657ZM43.6526 6.57124C43.6526 6.8272 43.6378 7.09791 43.6083 7.3834H37.1467C37.1959 8.18081 37.4664 8.80594 37.9581 9.25879C38.4597 9.7018 39.0646 9.92331 39.7727 9.92331C40.3529 9.92331 40.8349 9.7904 41.2184 9.5246C41.6118 9.24895 41.8872 8.8847 42.0446 8.43185H43.4903C43.2739 9.20957 42.8412 9.84455 42.1921 10.3368C41.543 10.8192 40.7365 11.0603 39.7727 11.0603C39.0056 11.0603 38.3171 10.8881 37.7073 10.5435C37.1074 10.199 36.6353 9.71164 36.2911 9.08159C35.9469 8.4417 35.7748 7.70335 35.7748 6.86657C35.7748 6.02978 35.942 5.29637 36.2764 4.66632C36.6107 4.03627 37.0779 3.55388 37.6778 3.21916C38.2876 2.8746 38.9859 2.70232 39.7727 2.70232C40.5398 2.70232 41.2184 2.86969 41.8085 3.2044C42.3986 3.53912 42.851 4.00182 43.1657 4.59249C43.4903 5.17332 43.6526 5.8329 43.6526 6.57124ZM42.2658 6.29066C42.2658 5.77874 42.1527 5.34067 41.9265 4.97642C41.7003 4.60233 41.3905 4.32175 40.9971 4.13471C40.6136 3.93782 40.1857 3.83938 39.7137 3.83938C39.0351 3.83938 38.4548 4.05596 37.9729 4.48912C37.5008 4.92228 37.2303 5.52279 37.1615 6.29066H42.2658ZM44.9225 6.85181C44.9225 6.02487 45.0897 5.30128 45.4241 4.68108C45.7585 4.05103 46.2158 3.56372 46.7961 3.21916C47.3862 2.8746 48.0451 2.70232 48.7729 2.70232C49.4024 2.70232 49.9875 2.84999 50.5285 3.14533C51.0694 3.43082 51.4825 3.80985 51.7677 4.28239V0H53.1249V10.9274H51.7677V9.40647C51.5021 9.88885 51.1087 10.2875 50.5875 10.6026C50.0662 10.9077 49.4565 11.0603 48.7582 11.0603C48.0402 11.0603 47.3862 10.8831 46.7961 10.5287C46.2158 10.1743 45.7585 9.67719 45.4241 9.0373C45.0897 8.3974 44.9225 7.66891 44.9225 6.85181ZM51.7677 6.86657C51.7677 6.25621 51.6447 5.72461 51.3989 5.27176C51.153 4.81892 50.8186 4.47434 50.3957 4.23807C49.9826 3.99196 49.5253 3.86892 49.0237 3.86892C48.5221 3.86892 48.0648 3.98705 47.6517 4.22332C47.2387 4.45958 46.9092 4.80414 46.6633 5.25699C46.4174 5.70984 46.2945 6.24145 46.2945 6.85181C46.2945 7.47201 46.4174 8.01345 46.6633 8.47615C46.9092 8.929 47.2387 9.27848 47.6517 9.5246C48.0648 9.76087 48.5221 9.87899 49.0237 9.87899C49.5253 9.87899 49.9826 9.76087 50.3957 9.5246C50.8186 9.27848 51.153 8.929 51.3989 8.47615C51.6447 8.01345 51.7677 7.47693 51.7677 6.86657ZM64.4757 5.62616C64.8494 5.68523 65.1887 5.83781 65.4936 6.08392C65.8083 6.33004 66.0542 6.63522 66.2313 6.99947C66.4181 7.36372 66.5116 7.75258 66.5116 8.16605C66.5116 8.68781 66.3788 9.16035 66.1132 9.58367C65.8477 9.99714 65.4592 10.3269 64.9478 10.573C64.4462 10.8093 63.8512 10.9274 63.1627 10.9274H59.3271V0.634981H63.0152C63.7135 0.634981 64.3085 0.753108 64.8003 0.989377C65.292 1.2158 65.6608 1.5259 65.9067 1.91968C66.1526 2.31346 66.2755 2.75647 66.2755 3.2487C66.2755 3.85906 66.1083 4.36606 65.7739 4.76969C65.4494 5.16347 65.0166 5.44896 64.4757 5.62616ZM60.6696 5.07979H62.9267C63.5561 5.07979 64.043 4.93212 64.3872 4.63678C64.7314 4.34145 64.9035 3.9329 64.9035 3.41114C64.9035 2.88938 64.7314 2.48082 64.3872 2.18549C64.043 1.89015 63.5463 1.74248 62.8972 1.74248H60.6696V5.07979ZM63.0447 9.81994C63.7135 9.81994 64.2347 9.66242 64.6085 9.3474C64.9822 9.03237 65.1691 8.59428 65.1691 8.03314C65.1691 7.46216 64.9724 7.01424 64.579 6.68937C64.1856 6.35465 63.6594 6.18729 63.0005 6.18729H60.6696V9.81994H63.0447ZM75.3372 2.83523L70.4689 14.7373H69.0822L70.6754 10.8388L67.4151 2.83523H68.9051L71.4426 9.39169L73.9505 2.83523H75.3372ZM77.1149 11.0161C76.8592 11.0161 76.6428 10.9274 76.4658 10.7502C76.2888 10.573 76.2002 10.3565 76.2002 10.1005C76.2002 9.84455 76.2888 9.62797 76.4658 9.45077C76.6428 9.27356 76.8592 9.18496 77.1149 9.18496C77.3608 9.18496 77.5673 9.27356 77.7345 9.45077C77.9115 9.62797 78 9.84455 78 10.1005C78 10.3565 77.9115 10.573 77.7345 10.7502C77.5673 10.9274 77.3608 11.0161 77.1149 11.0161ZM77.1149 4.69586C76.8592 4.69586 76.6428 4.60725 76.4658 4.43005C76.2888 4.25285 76.2002 4.03627 76.2002 3.78031C76.2002 3.52435 76.2888 3.30777 76.4658 3.13057C76.6428 2.95337 76.8592 2.86476 77.1149 2.86476C77.3608 2.86476 77.5673 2.95337 77.7345 3.13057C77.9115 3.30777 78 3.52435 78 3.78031C78 4.03627 77.9115 4.25285 77.7345 4.43005C77.5673 4.60725 77.3608 4.69586 77.1149 4.69586Z" fill="#A8B0C9"/>
</svg>
