<svg width="2" height="3" viewBox="0 0 2 3" fill="none" xmlns="http://www.w3.org/2000/svg">
<path d="M1.28837 1.96967C1.28837 2.04937 1.28252 2.13476 1.2708 2.21445C1.25909 2.29415 1.23567 2.36246 1.20053 2.42508C1.16539 2.4877 1.11854 2.53894 1.05998 2.57879C1.00142 2.61863 0.919429 2.63571 0.814017 2.63571C0.702748 2.63571 0.609049 2.60156 0.538774 2.53894C0.468499 2.47632 0.421649 2.39093 0.398224 2.27707L0 2.36246C0.0409937 2.57878 0.134693 2.73818 0.275243 2.84065C0.421649 2.94881 0.597336 3.00004 0.814017 3.00004C0.896004 3.00004 0.989703 2.98866 1.09512 2.9602C1.19467 2.93173 1.29423 2.88619 1.38207 2.81788C1.46991 2.74957 1.54605 2.65848 1.60461 2.53894C1.66317 2.41939 1.69245 2.27138 1.69245 2.08921V0H1.28252V1.96967H1.28837Z" fill="#7474B8"/>
</svg>
