<svg width="26" height="26" viewBox="0 0 26 26" fill="none" xmlns="http://www.w3.org/2000/svg">
<path d="M15.6932 10.2728C15.3043 9.88283 14.6733 9.88283 14.2843 10.2728C13.8943 10.6618 13.8943 11.2938 14.2843 11.6828C14.2843 11.6828 16.1882 13.8187 14.0893 15.9166C12.8903 17.1166 9.36448 20.8604 8.16553 22.0604C6.96657 23.2603 5.04764 23.2853 3.88069 22.1184C2.71273 20.9504 2.73773 19.0315 3.93769 17.8315C4.70966 17.0586 5.83061 15.9376 7.35556 14.4137C7.35756 14.4117 7.36056 14.4117 7.36256 14.4087C7.75154 14.0187 7.75154 13.3887 7.36256 12.9987C6.97257 12.6087 6.3416 12.6087 5.95361 12.9987H5.95061C4.56366 14.3847 3.87069 15.0786 2.52774 16.4216C0.528814 18.4215 0.485816 21.6204 2.43174 23.5663C4.37767 25.5122 7.57655 25.4702 9.57547 23.4703C11.5744 21.4714 13.5003 19.3265 15.4983 17.3276C17.4782 15.3476 17.6272 12.2877 15.7362 10.3358C15.7192 10.3168 15.7132 10.2918 15.6932 10.2728ZM23.5669 2.43211C21.621 0.486184 18.4231 0.528183 16.4242 2.52811C14.4243 4.52703 12.4984 6.54696 10.5004 8.54588C8.52051 10.5258 8.34152 13.6787 10.2315 15.6306C10.2484 15.6516 10.2544 15.6746 10.2734 15.6946C10.6634 16.0846 11.2934 16.0846 11.6824 15.6946C12.3554 15.0216 11.7264 14.2417 11.7264 14.2417C10.5594 13.0737 10.7094 11.1558 11.9094 9.95683C13.1083 8.75687 16.6342 5.13801 17.8332 3.93805C19.0321 2.7381 20.951 2.7131 22.119 3.88006C23.286 5.04801 23.261 6.96694 22.061 8.1669C19.8731 10.3568 18.7211 11.5048 18.6361 11.5898C18.2471 11.9788 18.2471 12.6097 18.6361 12.9997C19.0261 13.3897 19.6571 13.3897 20.0461 12.9997H20.0491C21.436 11.6128 22.129 10.9198 23.473 9.57684C25.4719 7.57692 25.5139 4.37804 23.5669 2.43211Z" fill="#27283B"/>
</svg>
