<svg width="27" height="27" viewBox="0 0 27 27" fill="none" xmlns="http://www.w3.org/2000/svg">
<path fill-rule="evenodd" clip-rule="evenodd" d="M13.4627 0.999995C6.57114 0.999995 0.999995 6.72914 0.999995 13.8169C0.999995 19.4825 4.56962 24.2783 9.52164 25.9757C10.1408 26.1033 10.3676 25.6999 10.3676 25.3606C10.3676 25.0634 10.3471 24.0449 10.3471 22.9837C6.88033 23.7478 6.15839 21.4559 6.15839 21.4559C5.60125 19.9705 4.77574 19.5887 4.77574 19.5887C3.64105 18.8036 4.8584 18.8036 4.8584 18.8036C6.11706 18.8885 6.77752 20.1192 6.77752 20.1192C7.89155 22.0713 9.68669 21.5197 10.4089 21.1801C10.5119 20.3525 10.8423 19.7796 11.1931 19.4614C8.42802 19.1642 5.51885 18.0609 5.51885 13.1377C5.51885 11.7372 6.01375 10.5914 6.79793 9.70022C6.6742 9.38199 6.24079 8.06611 6.92191 6.30492C6.92191 6.30492 7.9742 5.96534 10.3469 7.62054C11.3627 7.33998 12.4103 7.19726 13.4627 7.19606C14.515 7.19606 15.5877 7.34476 16.5782 7.62054C18.9512 5.96534 20.0035 6.30492 20.0035 6.30492C20.6846 8.06611 20.2509 9.38199 20.1272 9.70022C20.932 10.5914 21.4065 11.7372 21.4065 13.1377C21.4065 18.0609 18.4974 19.1429 15.7117 19.4614C16.1657 19.8645 16.5576 20.6283 16.5576 21.8379C16.5576 23.5567 16.5372 24.9361 16.5372 25.3603C16.5372 25.6999 16.7642 26.1033 17.3831 25.9759C22.3351 24.278 25.9047 19.4825 25.9047 13.8169C25.9251 6.72914 20.3336 0.999995 13.4627 0.999995Z" fill="#1B1C30"/>
</svg>
