<svg width="81" height="13" viewBox="0 0 81 13" fill="none" xmlns="http://www.w3.org/2000/svg">
<path d="M8.70782 0.887656V9.419H7.58702V3.05747L4.7542 9.419H3.96594L1.12081 3.04515V9.419H0V0.887656H1.20703L4.36007 7.93958L7.51312 0.887656H8.70782ZM16.7666 5.78209C16.7666 5.99574 16.7542 6.22184 16.7296 6.46015H11.3349C11.3768 7.12589 11.6022 7.64777 12.0124 8.02588C12.4311 8.39574 12.9361 8.58066 13.5273 8.58066C14.0126 8.58066 14.4141 8.46971 14.7343 8.2478C15.0632 8.01762 15.2935 7.71359 15.4241 7.33548H16.6311C16.4513 7.98482 16.0891 8.51495 15.5472 8.92586C15.0053 9.32863 14.3328 9.52996 13.5273 9.52996C12.8868 9.52996 12.3129 9.38608 11.803 9.09846C11.3029 8.81083 10.9088 8.40399 10.6206 7.87794C10.3336 7.34374 10.1895 6.72731 10.1895 6.02866C10.1895 5.33 10.3299 4.71776 10.6083 4.19171C10.8879 3.66565 11.2783 3.26299 11.7783 2.9835C12.2883 2.69588 12.8708 2.55201 13.5273 2.55201C14.1678 2.55201 14.7343 2.69169 15.227 2.97117C15.7197 3.25066 16.0978 3.63692 16.3601 4.13006C16.6311 4.61494 16.7666 5.16566 16.7666 5.78209ZM15.6088 5.54784C15.6088 5.12041 15.5152 4.75475 15.3255 4.4506C15.1371 4.13832 14.8784 3.90408 14.5496 3.74788C14.2293 3.58354 13.8722 3.5013 13.478 3.5013C12.9115 3.5013 12.4274 3.68216 12.0247 4.04376C11.6305 4.40536 11.4052 4.90676 11.3473 5.54784H15.6088ZM24.0592 2.66296L19.9947 12.5998H18.837L20.1672 9.34504L17.4452 2.66296H18.6892L20.8076 8.13683L22.9014 2.66296H24.0592ZM31.3445 5.78209C31.3445 5.99574 31.3321 6.22184 31.3075 6.46015H25.9129C25.9547 7.12589 26.1801 7.64777 26.5903 8.02588C27.009 8.39574 27.514 8.58066 28.1052 8.58066C28.5905 8.58066 28.992 8.46971 29.3122 8.2478C29.6411 8.01762 29.8714 7.71359 30.002 7.33548H31.209C31.0291 7.98482 30.6671 8.51495 30.1251 8.92586C29.5832 9.32863 28.9107 9.52996 28.1052 9.52996C27.4647 9.52996 26.8908 9.38608 26.3809 9.09846C25.8808 8.81083 25.4867 8.40399 25.1985 7.87794C24.9115 7.34374 24.7674 6.72731 24.7674 6.02866C24.7674 5.33 24.9078 4.71776 25.1862 4.19171C25.4658 3.66565 25.8562 3.26299 26.3563 2.9835C26.8662 2.69588 27.4487 2.55201 28.1052 2.55201C28.7457 2.55201 29.3122 2.69169 29.8049 2.97117C30.2975 3.25066 30.6757 3.63692 30.938 4.13006C31.209 4.61494 31.3445 5.16566 31.3445 5.78209ZM30.1867 5.54784C30.1867 5.12041 30.0931 4.75475 29.9034 4.4506C29.715 4.13832 29.4563 3.90408 29.1275 3.74788C28.8073 3.58354 28.4501 3.5013 28.0559 3.5013C27.4894 3.5013 27.0053 3.68216 26.6026 4.04376C26.2085 4.40536 25.9831 4.90676 25.9252 5.54784H30.1867ZM33.9445 3.76021C34.1416 3.37395 34.4211 3.07387 34.782 2.86022C35.1515 2.64657 35.5998 2.53968 36.1245 2.53968V3.69856H35.8289C34.5726 3.69856 33.9445 4.3807 33.9445 5.74509V9.419H32.8237V2.66296H33.9445V3.76021ZM40.7691 2.53968C41.2778 2.53968 41.7384 2.65064 42.1486 2.87255C42.5587 3.08621 42.8789 3.41094 43.1093 3.84651C43.347 4.28208 43.4664 4.81219 43.4664 5.43688V9.419H42.3579V5.59716C42.3579 4.92316 42.1892 4.40955 41.853 4.05609C41.5167 3.69449 41.0561 3.51363 40.4735 3.51363C39.8823 3.51363 39.4106 3.69857 39.0571 4.06842C38.7122 4.43828 38.5398 4.97666 38.5398 5.68346V9.419H37.419V0.295882H38.5398V3.62459C38.7615 3.27939 39.0657 3.01223 39.4512 2.82324C39.8454 2.63424 40.2851 2.53968 40.7691 2.53968ZM48.2403 9.52996C47.6085 9.52996 47.0333 9.38608 46.516 9.09846C46.0074 8.81083 45.6046 8.40399 45.309 7.87794C45.022 7.34374 44.8779 6.72731 44.8779 6.02866C44.8779 5.33826 45.0257 4.73009 45.3213 4.20403C45.6255 3.66983 46.0357 3.26299 46.553 2.9835C47.0703 2.69588 47.6492 2.55201 48.2896 2.55201C48.9301 2.55201 49.5089 2.69588 50.0262 2.9835C50.5435 3.26299 50.95 3.66565 51.2456 4.19171C51.5498 4.71776 51.7013 5.33 51.7013 6.02866C51.7013 6.72731 51.5461 7.34374 51.2333 7.87794C50.9303 8.40399 50.5152 8.81083 49.9893 9.09846C49.4646 9.38608 48.8808 9.52996 48.2403 9.52996ZM48.2403 8.54368C48.6431 8.54368 49.0212 8.44911 49.3735 8.26012C49.7269 8.07112 50.0102 7.78757 50.2233 7.40945C50.445 7.03134 50.5559 6.57111 50.5559 6.02866C50.5559 5.4862 50.4499 5.02597 50.2356 4.64786C50.0226 4.26974 49.743 3.99037 49.3981 3.80951C49.0532 3.62052 48.68 3.52596 48.2773 3.52596C47.8671 3.52596 47.489 3.62052 47.1442 3.80951C46.8079 3.99037 46.537 4.26974 46.3313 4.64786C46.1268 5.02597 46.0233 5.4862 46.0233 6.02866C46.0233 6.57937 46.1219 7.04366 46.319 7.42178C46.5246 7.79989 46.7956 8.08345 47.1319 8.27245C47.4693 8.45331 47.8388 8.54368 48.2403 8.54368ZM55.9222 3.5876H54.5058V9.419H53.385V3.5876H52.5105V2.66296H53.385V2.18215C53.385 1.42604 53.5771 0.875327 53.9639 0.530128C54.358 0.176668 54.9861 0 55.8483 0V0.936972C55.3556 0.936972 55.0058 1.0356 54.8014 1.23285C54.6043 1.42185 54.5058 1.73832 54.5058 2.18215V2.66296H55.9222V3.5876ZM61.6334 8.50669H64.6386V9.419H60.5126V0.82601H61.6334V8.50669ZM65.4097 6.01632C65.4097 5.32593 65.5501 4.72183 65.8284 4.20403C66.108 3.67797 66.4898 3.27113 66.9739 2.9835C67.4665 2.69588 68.0134 2.55201 68.612 2.55201C69.2032 2.55201 69.7168 2.67936 70.1515 2.93419C70.5875 3.18902 70.9115 3.50956 71.1245 3.89581V2.66296H72.2577V9.419H71.1245V8.1615C70.9028 8.55601 70.5703 8.88481 70.1269 9.14777C69.6921 9.4026 69.1834 9.52996 68.5996 9.52996C68.0011 9.52996 67.4591 9.38202 66.9739 9.08614C66.4898 8.79025 66.108 8.37515 65.8284 7.84095C65.5501 7.30676 65.4097 6.69846 65.4097 6.01632ZM71.1245 6.02866C71.1245 5.51912 71.0223 5.07529 70.8166 4.69717C70.6122 4.31905 70.3326 4.03143 69.9791 3.83418C69.6342 3.62866 69.2524 3.52596 68.8337 3.52596C68.4149 3.52596 68.0331 3.62459 67.6882 3.82185C67.3434 4.0191 67.0687 4.30673 66.863 4.68485C66.6586 5.06296 66.5551 5.50679 66.5551 6.01632C66.5551 6.53412 66.6586 6.98621 66.863 7.37246C67.0687 7.75058 67.3434 8.04228 67.6882 8.2478C68.0331 8.44505 68.4149 8.54368 68.8337 8.54368C69.2524 8.54368 69.6342 8.44505 69.9791 8.2478C70.3326 8.04228 70.6122 7.75058 70.8166 7.37246C71.0223 6.98621 71.1245 6.53819 71.1245 6.02866ZM75.2728 3.92048C75.5031 3.5177 75.8393 3.18902 76.2827 2.93419C76.7261 2.67936 77.2311 2.55201 77.7977 2.55201C78.4049 2.55201 78.9517 2.69588 79.4358 2.9835C79.9198 3.27113 80.3016 3.67797 80.5812 4.20403C80.8608 4.72183 81 5.32593 81 6.01632C81 6.69846 80.8608 7.30676 80.5812 7.84095C80.3016 8.37515 79.9161 8.79025 79.4235 9.08614C78.9394 9.38202 78.3975 9.52996 77.7977 9.52996C77.2151 9.52996 76.7015 9.4026 76.2581 9.14777C75.8233 8.89294 75.4945 8.56833 75.2728 8.17382V9.419H74.152V0.295882H75.2728V3.92048ZM79.8545 6.01632C79.8545 5.50679 79.7523 5.06296 79.5466 4.68485C79.3409 4.30673 79.0626 4.0191 78.7091 3.82185C78.3642 3.62459 77.9824 3.52596 77.5636 3.52596C77.1535 3.52596 76.7717 3.62866 76.4182 3.83418C76.0733 4.03143 75.7937 4.32325 75.5807 4.7095C75.375 5.08762 75.2728 5.52725 75.2728 6.02866C75.2728 6.53819 75.375 6.98621 75.5807 7.37246C75.7937 7.75058 76.0733 8.04228 76.4182 8.2478C76.7717 8.44505 77.1535 8.54368 77.5636 8.54368C77.9824 8.54368 78.3642 8.44505 78.7091 8.2478C79.0626 8.04228 79.3409 7.75058 79.5466 7.37246C79.7523 6.98621 79.8545 6.53412 79.8545 6.01632Z" fill="#A8B0C9"/>
</svg>
