<svg width="183" height="21" viewBox="0 0 183 21" fill="none" xmlns="http://www.w3.org/2000/svg">
<path d="M6.9641 15.2966C5.69511 15.2966 4.52543 15.0021 3.45262 14.413C2.39329 13.8108 1.54976 12.9795 0.922006 11.9192C0.307743 10.8457 0 9.64139 0 8.30613C0 6.97086 0.307743 5.77305 0.922006 4.71269C1.54976 3.65234 2.39329 2.82762 3.45262 2.23853C4.52543 1.63631 5.69511 1.33526 6.9641 1.33526C8.24534 1.33526 9.41624 1.63631 10.4756 2.23853C11.5484 2.82762 12.3919 3.65234 13.0062 4.71269C13.6204 5.77305 13.9282 6.97086 13.9282 8.30613C13.9282 9.64139 13.6204 10.8457 13.0062 11.9192C12.3919 12.9795 11.5484 13.8108 10.4756 14.413C9.41624 15.0021 8.24534 15.2966 6.9641 15.2966ZM6.9641 13.3526C7.86649 13.3526 8.67078 13.1498 9.377 12.7439C10.0832 12.325 10.6325 11.736 11.0248 10.9767C11.4307 10.2043 11.633 9.31408 11.633 8.30613C11.633 7.29817 11.4307 6.41454 11.0248 5.65523C10.6325 4.89592 10.0832 4.31347 9.377 3.90761C8.67078 3.50175 7.86649 3.29889 6.9641 3.29889C6.06171 3.29889 5.2574 3.50175 4.55118 3.90761C3.84496 4.31347 3.28955 4.89592 2.88372 5.65523C2.49138 6.41454 2.2952 7.29817 2.2952 8.30613C2.2952 9.31408 2.49138 10.2043 2.88372 10.9767C3.28955 11.736 3.84496 12.325 4.55118 12.7439C5.2574 13.1498 6.06171 13.3526 6.9641 13.3526ZM18.7381 6.16577V12.1548C18.7381 12.5607 18.83 12.8552 19.0127 13.0385C19.2089 13.2087 19.5363 13.2937 19.9936 13.2937H21.3668V15.1592H19.6012C18.5946 15.1592 17.8222 14.9235 17.2864 14.4523C16.7506 13.981 16.4821 13.2152 16.4821 12.1548V6.16577H15.207V4.33961H16.4821V1.64945H18.7381V4.33961H21.3668V6.16577H18.7381ZM26.0369 6.16577V12.1548C26.0369 12.5607 26.1288 12.8552 26.3115 13.0385C26.5077 13.2087 26.8351 13.2937 27.2924 13.2937H28.6656V15.1592H26.9C25.8934 15.1592 25.121 14.9235 24.5852 14.4523C24.0494 13.981 23.7809 13.2152 23.7809 12.1548V6.16577H22.5058V4.33961H23.7809V1.64945H26.0369V4.33961H28.6656V6.16577H26.0369ZM35.4151 15.3359C34.395 15.3359 33.473 15.1068 32.6491 14.6486C31.8252 14.1774 31.1778 13.5229 30.707 12.685C30.2362 11.8341 30.0008 10.8523 30.0008 9.73957C30.0008 8.63994 30.2423 7.66463 30.7266 6.81377C31.2109 5.96291 31.8705 5.30829 32.708 4.85015C33.5454 4.39201 34.4796 4.16288 35.5132 4.16288C36.5468 4.16288 37.4811 4.39201 38.3185 4.85015C39.1559 5.30829 39.8155 5.96291 40.2998 6.81377C40.7841 7.66463 41.0256 8.63994 41.0256 9.73957C41.0256 10.8392 40.7768 11.8145 40.2802 12.6654C39.7836 13.5162 39.1032 14.1774 38.24 14.6486C37.3903 15.1068 36.4487 15.3359 35.4151 15.3359ZM35.4151 13.3919C35.9902 13.3919 36.5272 13.2545 37.0237 12.9795C37.5338 12.7046 37.9457 12.2923 38.2596 11.7425C38.5735 11.1927 38.7304 10.525 38.7304 9.73957C38.7304 8.95412 38.5796 8.293 38.2792 7.75631C37.9788 7.2065 37.5792 6.79413 37.0826 6.51923C36.586 6.24432 36.049 6.10687 35.474 6.10687C34.8989 6.10687 34.3619 6.24432 33.8654 6.51923C33.3811 6.79413 32.9961 7.2065 32.708 7.75631C32.4198 8.293 32.2764 8.95412 32.2764 9.73957C32.2764 10.9046 32.5706 11.8079 33.1591 12.4494C33.7611 13.0777 34.5127 13.3919 35.4151 13.3919ZM56.3565 1.51199V3.33816H50.5694V7.36359H55.0813V9.18976H50.5694V15.1592H48.333V1.51199H56.3565ZM60.6649 5.9105C60.9922 5.36069 61.4238 4.9352 61.9596 4.63416C62.5089 4.31998 63.1563 4.16288 63.9017 4.16288V6.47996H63.3328C62.4562 6.47996 61.7892 6.70246 61.3319 7.14759C60.8868 7.59272 60.6649 8.36503 60.6649 9.46466V15.1592H58.4285V4.33961H60.6649V5.9105ZM67.0956 2.90616C66.6898 2.90616 66.3502 2.76871 66.0755 2.4938C65.8009 2.2189 65.6636 1.87857 65.6636 1.47272C65.6636 1.06686 65.8009 0.72654 66.0755 0.451633C66.3502 0.176726 66.6898 0.0392743 67.0956 0.0392743C67.488 0.0392743 67.8215 0.176726 68.0961 0.451633C68.3708 0.72654 68.5081 1.06686 68.5081 1.47272C68.5081 1.87857 68.3708 2.2189 68.0961 2.4938C67.8215 2.76871 67.488 2.90616 67.0956 2.90616ZM68.1942 4.33961V15.1592H65.9578V4.33961H68.1942ZM73.7385 6.16577V12.1548C73.7385 12.5607 73.8304 12.8552 74.0131 13.0385C74.2093 13.2087 74.5367 13.2937 74.994 13.2937H76.3672V15.1592H74.6017C73.5951 15.1592 72.8239 14.9235 72.2868 14.4523C71.751 13.981 71.4825 13.2152 71.4825 12.1548V6.16577H70.2074V4.33961H71.4825V1.64945H73.7385V4.33961H76.3672V6.16577H73.7385ZM80.4096 13.333H85.3139V15.1592H77.8201V13.333L82.744 6.16577H77.8201V4.33961H85.3139V6.16577L80.4096 13.333ZM107.118 1.51199V15.1592H104.882V5.81233L100.723 15.1592H99.1734L94.9949 5.81233V15.1592H92.7586V1.51199H95.1715L99.9581 12.2137L104.725 1.51199H107.118ZM119.964 9.4843C119.964 9.89015 119.938 10.2566 119.885 10.5839H111.627C111.693 11.4479 112.013 12.1417 112.588 12.6654C113.164 13.189 113.87 13.4508 114.707 13.4508C115.911 13.4508 116.76 12.9468 117.257 11.9388H119.67C119.344 12.9338 118.748 13.7519 117.885 14.3934C117.035 15.0217 115.975 15.3359 114.707 15.3359C113.674 15.3359 112.745 15.1068 111.921 14.6486C111.11 14.1774 110.469 13.5229 109.998 12.685C109.541 11.8341 109.312 10.8523 109.312 9.73957C109.312 8.62681 109.535 7.65162 109.979 6.81377C110.437 5.96291 111.071 5.30829 111.882 4.85015C112.706 4.39201 113.647 4.16288 114.707 4.16288C115.727 4.16288 116.636 4.38538 117.433 4.83051C118.231 5.27564 118.853 5.904 119.297 6.71559C119.742 7.51417 119.964 8.43707 119.964 9.4843ZM117.629 8.7774C117.617 7.95268 117.323 7.29154 116.747 6.79413C116.172 6.29672 115.459 6.04795 114.608 6.04795C113.837 6.04795 113.176 6.29672 112.627 6.79413C112.078 7.27853 111.752 7.93954 111.646 8.7774H117.629ZM131.895 4.33961L125.264 20.2449H122.949L125.147 14.9824L120.89 4.33961H123.381L126.422 12.5868L129.58 4.33961H131.895ZM143.49 9.4843C143.49 9.89015 143.463 10.2566 143.411 10.5839H135.153C135.217 11.4479 135.537 12.1417 136.114 12.6654C136.689 13.189 137.395 13.4508 138.232 13.4508C139.435 13.4508 140.285 12.9468 140.783 11.9388H143.196C142.868 12.9338 142.274 13.7519 141.41 14.3934C140.559 15.0217 139.5 15.3359 138.232 15.3359C137.199 15.3359 136.271 15.1068 135.447 14.6486C134.635 14.1774 133.995 13.5229 133.524 12.685C133.066 11.8341 132.838 10.8523 132.838 9.73957C132.838 8.62681 133.06 7.65162 133.505 6.81377C133.962 5.96291 134.596 5.30829 135.408 4.85015C136.231 4.39201 137.173 4.16288 138.232 4.16288C139.252 4.16288 140.161 4.38538 140.959 4.83051C141.756 5.27564 142.378 5.904 142.823 6.71559C143.267 7.51417 143.49 8.43707 143.49 9.4843ZM141.155 8.7774C141.142 7.95268 140.848 7.29154 140.273 6.79413C139.696 6.29672 138.984 6.04795 138.134 6.04795C137.362 6.04795 136.702 6.29672 136.153 6.79413C135.604 7.27853 135.276 7.93954 135.172 8.7774H141.155ZM147.927 5.9105C148.253 5.36069 148.685 4.9352 149.222 4.63416C149.771 4.31998 150.418 4.16288 151.164 4.16288V6.47996H150.595C149.718 6.47996 149.051 6.70246 148.594 7.14759C148.149 7.59272 147.927 8.36503 147.927 9.46466V15.1592H145.691V4.33961H147.927V5.9105ZM158.81 4.16288C159.634 4.16288 160.367 4.33961 161.007 4.69306C161.661 5.04651 162.171 5.57018 162.537 6.26396C162.917 6.95773 163.106 7.79559 163.106 8.7774V15.1592H160.889V9.11121C160.889 8.14253 160.648 7.40286 160.163 6.89232C159.68 6.36864 159.019 6.10687 158.182 6.10687C157.346 6.10687 156.679 6.36864 156.181 6.89232C155.698 7.40286 155.455 8.14253 155.455 9.11121V15.1592H153.219V0.62836H155.455V5.59633C155.835 5.13819 156.312 4.78474 156.887 4.53597C157.476 4.28721 158.117 4.16288 158.81 4.16288ZM170.647 15.3359C169.627 15.3359 168.705 15.1068 167.881 14.6486C167.057 14.1774 166.41 13.5229 165.939 12.685C165.468 11.8341 165.233 10.8523 165.233 9.73957C165.233 8.63994 165.475 7.66463 165.959 6.81377C166.443 5.96291 167.103 5.30829 167.94 4.85015C168.778 4.39201 169.712 4.16288 170.745 4.16288C171.779 4.16288 172.713 4.39201 173.551 4.85015C174.388 5.30829 175.048 5.96291 175.532 6.81377C176.016 7.66463 176.258 8.63994 176.258 9.73957C176.258 10.8392 176.009 11.8145 175.512 12.6654C175.016 13.5162 174.335 14.1774 173.472 14.6486C172.623 15.1068 171.681 15.3359 170.647 15.3359ZM170.647 13.3919C171.222 13.3919 171.759 13.2545 172.256 12.9795C172.766 12.7046 173.178 12.2923 173.492 11.7425C173.806 11.1927 173.963 10.525 173.963 9.73957C173.963 8.95412 173.812 8.293 173.511 7.75631C173.211 7.2065 172.811 6.79413 172.315 6.51923C171.818 6.24432 171.281 6.10687 170.706 6.10687C170.131 6.10687 169.594 6.24432 169.098 6.51923C168.613 6.79413 168.228 7.2065 167.94 7.75631C167.652 8.293 167.509 8.95412 167.509 9.73957C167.509 10.9046 167.803 11.8079 168.391 12.4494C168.993 13.0777 169.745 13.3919 170.647 13.3919ZM183 6.16577H180.999V15.1592H178.743V6.16577H177.468V4.33961H178.743V3.57379C178.743 2.3302 179.07 1.42694 179.724 0.863997C180.391 0.288042 181.431 0 182.843 0V1.86544C182.163 1.86544 181.686 1.99639 181.411 2.25817C181.136 2.50693 180.999 2.94543 180.999 3.57379V4.33961H183V6.16577Z" fill="white"/>
</svg>
