<svg width="32" height="32" viewBox="0 0 32 32" fill="none" xmlns="http://www.w3.org/2000/svg">
<path d="M16 2C8.28043 2 2 8.28043 2 16C2 23.719 8.28043 30 16 30C23.719 30 30 23.719 30 16C30 8.28043 23.7201 2 16 2ZM22.2455 12.7958C22.2517 12.9345 22.2551 13.0744 22.2551 13.2142C22.2551 17.4724 19.0147 22.3808 13.0862 22.3808C11.2664 22.3808 9.57238 21.849 8.14678 20.9343C8.39885 20.9642 8.65544 20.9795 8.91541 20.9795C10.4256 20.9795 11.8145 20.464 12.9176 19.6001C11.5078 19.5742 10.3173 18.6425 9.90735 17.3619C10.1036 17.3991 10.306 17.42 10.513 17.42C10.8068 17.42 11.0922 17.3816 11.3623 17.3077C9.88818 17.0122 8.77781 15.7101 8.77781 14.1481C8.77781 14.1345 8.77781 14.1204 8.77838 14.1075C9.2126 14.3483 9.70942 14.4938 10.2372 14.5101C9.37332 13.9332 8.80432 12.9463 8.80432 11.8286C8.80432 11.2377 8.96278 10.6839 9.24023 10.2079C10.8288 12.158 13.2041 13.4403 15.8816 13.5757C15.8263 13.3394 15.7987 13.0941 15.7987 12.8409C15.7987 11.0617 17.2412 9.61862 19.0204 9.61862C19.9475 9.61862 20.7838 10.01 21.3725 10.6359C22.1073 10.4916 22.7953 10.2243 23.4196 9.85378C23.1771 10.6066 22.6678 11.2377 22.0007 11.6369C22.6532 11.5591 23.2758 11.3865 23.8515 11.1299C23.4218 11.7751 22.8754 12.3429 22.2455 12.7958Z" fill="white"/>
</svg>
