<svg width="32" height="32" viewBox="0 0 32 32" fill="none" xmlns="http://www.w3.org/2000/svg">
<path d="M16 30.0001C23.732 30.0001 30 23.732 30 16.0001C30 8.26807 23.732 2.00006 16 2.00006C8.26801 2.00006 2 8.26807 2 16.0001C2 23.732 8.26801 30.0001 16 30.0001Z" fill="white"/>
<path d="M23.9667 17.0727V22.5697H20.7797V17.4411C20.7797 16.1533 20.3195 15.2739 19.1656 15.2739C18.285 15.2739 17.7619 15.866 17.5308 16.4392C17.4469 16.6441 17.4253 16.9286 17.4253 17.216V22.5695H14.238C14.238 22.5695 14.2808 13.8832 14.238 12.9841H17.4255V14.3424C17.4191 14.3531 17.4101 14.3636 17.4044 14.3738H17.4255V14.3424C17.8491 13.6907 18.6044 12.759 20.2979 12.759C22.3947 12.759 23.9667 14.129 23.9667 17.0727ZM10.9039 8.36362C9.81362 8.36362 9.10034 9.07927 9.10034 10.0195C9.10034 10.9398 9.79294 11.6762 10.862 11.6762H10.8827C11.9943 11.6762 12.6855 10.9398 12.6855 10.0195C12.6643 9.07927 11.9943 8.36362 10.9039 8.36362ZM9.28977 22.5697H12.4759V12.9841H9.28977V22.5697Z" fill="#282845"/>
</svg>
