<svg width="83" height="15" viewBox="0 0 83 15" fill="none" xmlns="http://www.w3.org/2000/svg">
<path d="M0 9.07861C0 7.99132 0.223317 7.02843 0.667483 6.18996C1.12637 5.35162 1.74108 4.70314 2.51285 4.24455C3.29812 3.77293 4.16191 3.53712 5.10422 3.53712C5.95574 3.53712 6.69438 3.70747 7.32259 4.04804C7.9643 4.37559 8.47473 4.78826 8.85386 5.28603V3.71398H11.1115V14.5415H8.85386V12.9301C8.47473 13.4411 7.95818 13.8669 7.30297 14.2074C6.649 14.5481 5.90299 14.7184 5.06496 14.7184C4.13614 14.7184 3.28585 14.4825 2.51285 14.0109C1.74108 13.5263 1.12637 12.8582 0.667483 12.0066C0.223317 11.1419 0 10.166 0 9.07861ZM8.85386 9.11791C8.85386 8.37119 8.6968 7.72272 8.3827 7.1725C8.08209 6.62228 7.68333 6.2031 7.18517 5.91485C6.68825 5.62672 6.15206 5.48254 5.57539 5.48254C4.99993 5.48254 4.46375 5.62672 3.9656 5.91485C3.46867 6.18996 3.06254 6.60263 2.74843 7.15285C2.44782 7.69005 2.29691 8.33189 2.29691 9.07861C2.29691 9.82534 2.44782 10.4804 2.74843 11.0437C3.06254 11.607 3.46867 12.0394 3.9656 12.3406C4.47602 12.6289 5.01343 12.7729 5.57539 12.7729C6.15206 12.7729 6.68825 12.6289 7.18517 12.3406C7.68333 12.0525 8.08209 11.6332 8.3827 11.083C8.6968 10.5197 8.85386 9.86464 8.85386 9.11791ZM16.2893 5.32533C16.6697 4.8014 17.1863 4.37559 17.8402 4.04804C18.5077 3.70747 19.2476 3.53712 20.0586 3.53712C21.0144 3.53712 21.8782 3.76642 22.65 4.2249C23.423 4.68349 24.0315 5.33848 24.4757 6.18996C24.9211 7.02843 25.1432 7.99132 25.1432 9.07861C25.1432 10.166 24.9211 11.1419 24.4757 12.0066C24.0315 12.8582 23.4156 13.5263 22.6303 14.0109C21.8586 14.4825 21.0009 14.7184 20.0586 14.7184C19.2218 14.7184 18.4758 14.5546 17.8206 14.2271C17.1801 13.8997 16.6697 13.4804 16.2893 12.9694V14.5415H14.0513V0H16.2893V5.32533ZM22.8659 9.07861C22.8659 8.33189 22.7089 7.69005 22.3948 7.15285C22.0942 6.60263 21.688 6.18996 21.1776 5.91485C20.6807 5.62672 20.1445 5.48254 19.5678 5.48254C19.0059 5.48254 18.4684 5.62672 17.958 5.91485C17.4611 6.2031 17.055 6.62228 16.7409 7.1725C16.4403 7.72272 16.2893 8.37119 16.2893 9.11791C16.2893 9.86464 16.4403 10.5197 16.7409 11.083C17.055 11.6332 17.4611 12.0525 17.958 12.3406C18.4684 12.6289 19.0059 12.7729 19.5678 12.7729C20.1445 12.7729 20.6807 12.6289 21.1776 12.3406C21.688 12.0394 22.0942 11.607 22.3948 11.0437C22.7089 10.4804 22.8659 9.82534 22.8659 9.07861ZM31.283 14.7184C30.4327 14.7184 29.667 14.5678 28.9861 14.2664C28.3186 13.952 27.7886 13.5328 27.3959 13.0087C27.0033 12.4717 26.7935 11.8756 26.7677 11.2205H29.0842C29.1235 11.6791 29.3394 12.0655 29.7321 12.3799C30.1382 12.6813 30.6413 12.8319 31.2437 12.8319C31.8719 12.8319 32.3566 12.714 32.6965 12.4782C33.0498 12.2294 33.2265 11.9149 33.2265 11.5349C33.2265 11.1289 33.0302 10.8275 32.6376 10.631C32.2584 10.4345 31.6498 10.2184 30.8118 9.98254C30.0008 9.75988 29.3394 9.54372 28.829 9.33407C28.3186 9.12455 27.8732 8.8035 27.4941 8.37119C27.1272 7.93887 26.9444 7.36901 26.9444 6.66158C26.9444 6.0852 27.1149 5.56114 27.4548 5.08953C27.7947 4.60489 28.2793 4.2249 28.9075 3.94979C29.5493 3.67468 30.2818 3.53712 31.1063 3.53712C32.337 3.53712 33.3247 3.85153 34.0707 4.48035C34.8302 5.09616 35.2351 5.94114 35.2878 7.01529H33.0498C33.0106 6.53066 32.8142 6.14415 32.4609 5.8559C32.1075 5.56777 31.6302 5.42359 31.0278 5.42359C30.4388 5.42359 29.9873 5.53498 29.6732 5.75765C29.3591 5.98044 29.202 6.2752 29.202 6.64193C29.202 6.93018 29.3063 7.1725 29.5161 7.369C29.7259 7.56551 29.9811 7.72272 30.2818 7.84062C30.5824 7.94551 31.0278 8.08306 31.6167 8.25328C32.402 8.46293 33.0437 8.67909 33.5406 8.90176C34.051 9.11141 34.4891 9.42582 34.856 9.84499C35.2228 10.2643 35.4118 10.821 35.4253 11.5153C35.4253 12.1311 35.2547 12.6813 34.9148 13.166C34.5749 13.6507 34.0903 14.0306 33.4621 14.3057C32.8474 14.5808 32.121 14.7184 31.283 14.7184ZM40.4546 5.54149V11.5349C40.4546 11.9411 40.5454 12.2359 40.7295 12.4192C40.9258 12.5896 41.2521 12.6747 41.711 12.6747H43.0852V14.5415H41.3184C40.3099 14.5415 39.5381 14.3057 39.0019 13.8341C38.4645 13.3625 38.197 12.5961 38.197 11.5349V5.54149H36.9209V3.71398H38.197V1.02184H40.4546V3.71398H43.0852V5.54149H40.4546ZM47.3858 5.28603C47.7134 4.73581 48.1453 4.31013 48.6815 4.00874C49.2312 3.69433 49.879 3.53712 50.625 3.53712V5.8559H50.0557C49.1784 5.8559 48.5109 6.07869 48.0533 6.52402C47.6079 6.96948 47.3858 7.74237 47.3858 8.8428V14.5415H45.1478V3.71398H47.3858V5.28603ZM51.9367 9.07861C51.9367 7.99132 52.1588 7.02843 52.6042 6.18996C53.0618 5.35162 53.6765 4.70314 54.4495 4.24455C55.2348 3.77293 56.0986 3.53712 57.0409 3.53712C57.8912 3.53712 58.631 3.70747 59.2592 4.04804C59.8997 4.37559 60.4102 4.78826 60.7905 5.28603V3.71398H63.0482V14.5415H60.7905V12.9301C60.4102 13.4411 59.8936 13.8669 59.2396 14.2074C58.5844 14.5481 57.8384 14.7184 57.0016 14.7184C56.0716 14.7184 55.2213 14.4825 54.4495 14.0109C53.6765 13.5263 53.0618 12.8582 52.6042 12.0066C52.1588 11.1419 51.9367 10.166 51.9367 9.07861ZM60.7905 9.11791C60.7905 8.37119 60.6335 7.72272 60.3194 7.1725C60.0175 6.62228 59.6187 6.2031 59.1218 5.91485C58.6237 5.62672 58.0875 5.48254 57.5121 5.48254C56.9354 5.48254 56.3992 5.62672 55.9022 5.91485C55.4041 6.18996 54.9992 6.60263 54.6851 7.15285C54.3832 7.69005 54.2336 8.33189 54.2336 9.07861C54.2336 9.82534 54.3832 10.4804 54.6851 11.0437C54.9992 11.607 55.4041 12.0394 55.9022 12.3406C56.4127 12.6289 56.9489 12.7729 57.5121 12.7729C58.0875 12.7729 58.6237 12.6289 59.1218 12.3406C59.6187 12.0525 60.0175 11.6332 60.3194 11.083C60.6335 10.5197 60.7905 9.86464 60.7905 9.11791ZM65.2407 9.11791C65.2407 8.00446 65.4641 7.02843 65.9082 6.18996C66.3671 5.33848 66.9953 4.68349 67.7929 4.2249C68.5916 3.76642 69.5082 3.53712 70.5413 3.53712C71.8505 3.53712 72.9302 3.85153 73.7805 4.48035C74.6443 5.09616 75.2271 5.98044 75.5277 7.1332H73.113C72.9167 6.59612 72.6026 6.17694 72.1707 5.87555C71.7388 5.57428 71.1965 5.42359 70.5413 5.42359C69.626 5.42359 68.8923 5.75114 68.3426 6.40612C67.8064 7.04808 67.5377 7.95202 67.5377 9.11791C67.5377 10.2839 67.8064 11.1944 68.3426 11.8494C68.8923 12.5045 69.626 12.8319 70.5413 12.8319C71.837 12.8319 72.6946 12.262 73.113 11.1223H75.5277C75.2136 12.2227 74.6247 13.1005 73.7609 13.7555C72.8971 14.3974 71.8247 14.7184 70.5413 14.7184C69.5082 14.7184 68.5916 14.4892 67.7929 14.0306C66.9953 13.559 66.3671 12.904 65.9082 12.0655C65.4641 11.214 65.2407 10.2315 65.2407 9.11791ZM80.3694 5.54149V11.5349C80.3694 11.9411 80.4614 12.2359 80.6442 12.4192C80.8405 12.5896 81.1681 12.6747 81.6258 12.6747H83V14.5415H81.2332C80.2258 14.5415 79.4528 14.3057 78.9166 13.8341C78.3804 13.3625 78.1118 12.5961 78.1118 11.5349V5.54149H76.8357V3.71398H78.1118V1.02184H80.3694V3.71398H83V5.54149H80.3694Z" fill="white"/>
</svg>
