<svg width="115" height="19" viewBox="0 0 115 19" fill="none" xmlns="http://www.w3.org/2000/svg">
<circle cx="9.5" cy="9.5" r="9.25" stroke="#B4B4FA" stroke-width="0.5"/>
<path d="M15.2686 12.884H5.94587C5.26681 12.884 4.71436 12.3328 4.71436 11.6549V5.2738C4.71436 4.59603 5.26681 4.04468 5.94587 4.04468H15.2686C15.9476 4.04468 16.5001 4.59603 16.5001 5.2738V11.6548C16.5001 12.3326 15.9476 12.884 15.2686 12.884ZM5.94587 4.78128C5.67296 4.78128 5.45096 5.00218 5.45096 5.2738V11.6549C5.45096 11.9264 5.67296 12.1474 5.94587 12.1474H15.2686C15.5415 12.1474 15.7635 11.9266 15.7635 11.6548V5.2738C15.7635 5.00218 15.5415 4.78128 15.2686 4.78128H5.94587Z" fill="#B4B4FA"/>
<path d="M9.01803 7.45331C9.45394 7.45331 9.80731 7.09993 9.80731 6.66403C9.80731 6.22813 9.45394 5.87476 9.01803 5.87476C8.58213 5.87476 8.22876 6.22813 8.22876 6.66403C8.22876 7.09993 8.58213 7.45331 9.01803 7.45331Z" fill="#B4B4FA"/>
<path d="M11.5723 6.97876C11.4692 6.97876 11.3664 7.04644 11.2881 7.1817L9.70037 9.932C9.55378 9.67769 9.01937 8.75242 9.01937 8.75242C8.94129 8.61716 8.83844 8.54958 8.7355 8.54958C8.63265 8.54958 8.52971 8.61716 8.45163 8.75242C8.45163 8.75242 7.80148 9.87869 7.64505 10.1493L7.40648 10.5628C7.25041 10.8333 7.37793 11.0541 7.69044 11.0541H13.5243C13.8363 11.0541 13.9638 10.8333 13.8084 10.5628L11.856 7.1817C11.7781 7.04644 11.6754 6.97876 11.5723 6.97876Z" fill="#B4B4FA"/>
<path d="M3.12061 13.9956V5.74561" stroke="#B4B4FA" stroke-width="0.45" stroke-miterlimit="10" stroke-linecap="round" stroke-linejoin="round"/>
<path d="M2.23657 6.33486L3.1205 5.45093L4.00443 6.33486" stroke="#B4B4FA" stroke-width="0.45" stroke-miterlimit="10" stroke-linecap="round" stroke-linejoin="round"/>
<path d="M4.00439 14.8794H11.9598" stroke="#B4B4FA" stroke-width="0.45" stroke-miterlimit="10" stroke-linecap="round" stroke-linejoin="round"/>
<path d="M11.3706 13.9956L12.2545 14.8795L11.3706 15.7635" stroke="#B4B4FA" stroke-width="0.45" stroke-miterlimit="10" stroke-linecap="round" stroke-linejoin="round"/>
<path d="M3.12057 15.1742C3.2833 15.1742 3.41521 15.0423 3.41521 14.8796C3.41521 14.7169 3.2833 14.585 3.12057 14.585C2.95784 14.585 2.82593 14.7169 2.82593 14.8796C2.82593 15.0423 2.95784 15.1742 3.12057 15.1742Z" fill="#B4B4FA"/>
<circle cx="33.5" cy="9.5" r="9.25" stroke="#B4B4FA" stroke-width="0.5"/>
<path d="M26.8293 7.03962C27.0104 7.03962 27.1585 6.89145 27.1585 6.71035V5.14633H28.7226C28.9037 5.14633 29.0518 4.99816 29.0518 4.81706C29.0518 4.63596 28.9037 4.48779 28.7226 4.48779H26.8293C26.6482 4.48779 26.5 4.63596 26.5 4.81706V6.71035C26.5 6.89145 26.6482 7.03962 26.8293 7.03962Z" fill="#B4B4FA"/>
<path d="M28.2287 12.3901H27.1585V10.8261C27.1585 10.645 27.0104 10.4968 26.8293 10.4968C26.6482 10.4968 26.5 10.645 26.5 10.8261V12.7194C26.5 12.9005 26.6482 13.0487 26.8293 13.0487H28.2287C28.4098 13.0487 28.5579 12.9005 28.5579 12.7194C28.5579 12.5383 28.4098 12.3901 28.2287 12.3901Z" fill="#B4B4FA"/>
<path d="M36.7074 4.48779H34.8141C34.633 4.48779 34.4849 4.63596 34.4849 4.81706C34.4849 4.99816 34.633 5.14633 34.8141 5.14633H36.3782V5.88718C36.3782 6.06828 36.5263 6.05182 36.7074 6.05182C36.8885 6.05182 37.0367 6.06828 37.0367 5.88718V4.81706C37.0367 4.63596 36.8885 4.48779 36.7074 4.48779Z" fill="#B4B4FA"/>
<path d="M28.3107 8.02717C28.4918 8.02717 28.64 7.879 28.64 7.6979V6.13388H30.204C30.3851 6.13388 30.5333 5.98571 30.5333 5.80461C30.5333 5.62351 30.3851 5.47534 30.204 5.47534H28.3107C28.1296 5.47534 27.9814 5.62351 27.9814 5.80461V7.6979C27.9814 7.879 28.1296 8.02717 28.3107 8.02717Z" fill="#B4B4FA"/>
<path d="M29.6278 13.3777H28.64V11.8136C28.64 11.6325 28.4918 11.4844 28.3107 11.4844C28.1296 11.4844 27.9814 11.6325 27.9814 11.8136V13.7069C27.9814 13.888 28.1296 14.0362 28.3107 14.0362H29.6278C29.8089 14.0362 29.9571 13.888 29.9571 13.7069C29.9571 13.5258 29.8089 13.3777 29.6278 13.3777Z" fill="#B4B4FA"/>
<path d="M38.1889 5.47534H36.2956C36.1145 5.47534 35.9663 5.62351 35.9663 5.80461C35.9663 5.98571 36.1145 6.13388 36.2956 6.13388H37.8596V6.79242C37.8596 6.97351 38.0078 7.12168 38.1889 7.12168C38.37 7.12168 38.5181 6.97351 38.5181 6.79242V5.80461C38.5181 5.62351 38.37 5.47534 38.1889 5.47534Z" fill="#B4B4FA"/>
<path d="M29.7924 9.01521C29.9735 9.01521 30.1217 8.86704 30.1217 8.68594V7.12192H31.6857C31.8668 7.12192 32.015 6.97374 32.015 6.79265C32.015 6.61155 31.8668 6.46338 31.6857 6.46338H29.7924C29.6113 6.46338 29.4631 6.61155 29.4631 6.79265V8.68594C29.4631 8.86704 29.6113 9.01521 29.7924 9.01521Z" fill="#B4B4FA"/>
<path d="M31.6857 14.3657H30.1217V12.8017C30.1217 12.6206 29.9735 12.4724 29.7924 12.4724C29.6113 12.4724 29.4631 12.6206 29.4631 12.8017V14.695C29.4631 14.8761 29.6113 15.0242 29.7924 15.0242H31.6857C31.8668 15.0242 32.015 14.8761 32.015 14.695C32.015 14.5139 31.8668 14.3657 31.6857 14.3657Z" fill="#B4B4FA"/>
<path d="M39.6706 12.4724C39.4895 12.4724 39.3413 12.6206 39.3413 12.8017V14.3657H37.7773C37.5962 14.3657 37.448 14.5139 37.448 14.695C37.448 14.8761 37.5962 15.0242 37.7773 15.0242H39.6706C39.8517 15.0242 39.9998 14.8761 39.9998 14.695V12.8017C39.9998 12.6206 39.8517 12.4724 39.6706 12.4724Z" fill="#B4B4FA"/>
<path d="M39.6706 6.46338H37.7773C37.5962 6.46338 37.448 6.61155 37.448 6.79265C37.448 6.97374 37.5962 7.12192 37.7773 7.12192H39.3413V8.68594C39.3413 8.86704 39.4895 9.01521 39.6706 9.01521C39.8517 9.01521 39.9998 8.86704 39.9998 8.68594V6.79265C39.9998 6.61155 39.8517 6.46338 39.6706 6.46338Z" fill="#B4B4FA"/>
<path d="M36.3119 11.0731H37.5796C37.7607 11.0731 37.9088 10.9249 37.9088 10.7438C37.9088 10.5627 37.7607 10.4146 37.5796 10.4146H36.3119C36.1802 9.78897 35.6863 9.29507 35.0607 9.16336V7.89567C35.0607 7.71458 34.9125 7.56641 34.7314 7.56641C34.5503 7.56641 34.4021 7.71458 34.4021 7.89567V9.16336C33.7765 9.29507 33.2826 9.78897 33.1509 10.4146H31.8832C31.7021 10.4146 31.554 10.5627 31.554 10.7438C31.554 10.9249 31.7021 11.0731 31.8832 11.0731H33.1509C33.2826 11.6987 33.7765 12.1926 34.4021 12.3243V13.592C34.4021 13.7731 34.5503 13.9213 34.7314 13.9213C34.9125 13.9213 35.0607 13.7731 35.0607 13.592V12.3243C35.6863 12.1926 36.1802 11.6987 36.3119 11.0731ZM34.7314 11.6987C34.2046 11.6987 33.7765 11.2707 33.7765 10.7438C33.7765 10.217 34.2046 9.78897 34.7314 9.78897C35.2582 9.78897 35.6863 10.217 35.6863 10.7438C35.6863 11.2707 35.2582 11.6987 34.7314 11.6987Z" fill="#B4B4FA"/>
<circle cx="57.5" cy="9.5" r="9.25" stroke="#B4B4FA" stroke-width="0.5"/>
<path d="M62.7404 16H52.6442C52.5645 16 52.5 15.9344 52.5 15.8533V2.64674C52.5 2.56559 52.5645 2.5 52.6442 2.5H62.7404C62.8201 2.5 62.8846 2.56559 62.8846 2.64674V15.8533C62.8846 15.9344 62.82 16 62.7404 16ZM52.7885 15.7065H62.5962V2.79348H52.7885V15.7065Z" fill="#B4B4FA"/>
<path d="M61.7193 3.67168H53.6651C53.595 3.67168 53.5383 3.64187 53.5383 3.605C53.5383 3.56814 53.595 3.53833 53.6651 3.53833H61.7193C61.7894 3.53833 61.846 3.56814 61.846 3.605C61.846 3.64187 61.7891 3.67168 61.7193 3.67168Z" fill="#B4B4FA"/>
<path d="M61.7193 5.74882H53.6651C53.595 5.74882 53.5383 5.71902 53.5383 5.68215C53.5383 5.64528 53.595 5.61548 53.6651 5.61548H61.7193C61.7894 5.61548 61.846 5.64528 61.846 5.68215C61.846 5.71902 61.7891 5.74882 61.7193 5.74882Z" fill="#B4B4FA"/>
<path d="M61.7193 7.82573H53.6651C53.595 7.82573 53.5383 7.79592 53.5383 7.75906C53.5383 7.72219 53.595 7.69238 53.6651 7.69238H61.7193C61.7894 7.69238 61.846 7.72219 61.846 7.75906C61.846 7.79592 61.7891 7.82573 61.7193 7.82573Z" fill="#B4B4FA"/>
<path d="M61.7193 9.90239H53.6651C53.595 9.90239 53.5383 9.87258 53.5383 9.83572C53.5383 9.79885 53.595 9.76904 53.6651 9.76904H61.7193C61.7894 9.76904 61.846 9.79885 61.846 9.83572C61.846 9.87258 61.7891 9.90239 61.7193 9.90239Z" fill="#B4B4FA"/>
<path d="M61.7193 11.9795H53.6651C53.595 11.9795 53.5383 11.9497 53.5383 11.9129C53.5383 11.876 53.595 11.8462 53.6651 11.8462H61.7193C61.7894 11.8462 61.846 11.876 61.846 11.9129C61.846 11.9497 61.7891 11.9795 61.7193 11.9795Z" fill="#B4B4FA"/>
<path d="M61.7353 4.19121H54.6878C54.6265 4.19121 54.5769 4.1614 54.5769 4.12453C54.5769 4.08767 54.6265 4.05786 54.6878 4.05786H61.7353C61.7966 4.05786 61.8461 4.08767 61.8461 4.12453C61.8461 4.1614 61.7963 4.19121 61.7353 4.19121Z" fill="#B4B4FA"/>
<path d="M61.7353 6.26787H54.6878C54.6265 6.26787 54.5769 6.23806 54.5769 6.20119C54.5769 6.16433 54.6265 6.13452 54.6878 6.13452H61.7353C61.7966 6.13452 61.8461 6.16433 61.8461 6.20119C61.8461 6.23806 61.7963 6.26787 61.7353 6.26787Z" fill="#B4B4FA"/>
<path d="M61.7353 8.34502H54.6878C54.6265 8.34502 54.5769 8.31521 54.5769 8.27834C54.5769 8.24147 54.6265 8.21167 54.6878 8.21167H61.7353C61.7966 8.21167 61.8461 8.24147 61.8461 8.27834C61.8461 8.31521 61.7963 8.34502 61.7353 8.34502Z" fill="#B4B4FA"/>
<path d="M61.7353 10.4219H54.6878C54.6265 10.4219 54.5769 10.3921 54.5769 10.3552C54.5769 10.3184 54.6265 10.2886 54.6878 10.2886H61.7353C61.7966 10.2886 61.8461 10.3184 61.8461 10.3552C61.8461 10.3921 61.7963 10.4219 61.7353 10.4219Z" fill="#B4B4FA"/>
<path d="M61.7353 12.4986H54.6878C54.6265 12.4986 54.5769 12.4688 54.5769 12.4319C54.5769 12.395 54.6265 12.3652 54.6878 12.3652H61.7353C61.7966 12.3652 61.8461 12.395 61.8461 12.4319C61.8461 12.4688 61.7963 12.4986 61.7353 12.4986Z" fill="#B4B4FA"/>
<path d="M61.7353 4.71025H54.6878C54.6265 4.71025 54.5769 4.68045 54.5769 4.64358C54.5769 4.60671 54.6265 4.5769 54.6878 4.5769H61.7353C61.7966 4.5769 61.8461 4.60671 61.8461 4.64358C61.8461 4.68045 61.7963 4.71025 61.7353 4.71025Z" fill="#B4B4FA"/>
<path d="M61.7353 6.78715H54.6878C54.6265 6.78715 54.5769 6.75735 54.5769 6.72048C54.5769 6.68361 54.6265 6.65381 54.6878 6.65381H61.7353C61.7966 6.65381 61.8461 6.68361 61.8461 6.72048C61.8461 6.75735 61.7963 6.78715 61.7353 6.78715Z" fill="#B4B4FA"/>
<path d="M61.7353 8.86406H54.6878C54.6265 8.86406 54.5769 8.83425 54.5769 8.79739C54.5769 8.76052 54.6265 8.73071 54.6878 8.73071H61.7353C61.7966 8.73071 61.8461 8.76052 61.8461 8.79739C61.8461 8.83425 61.7963 8.86406 61.7353 8.86406Z" fill="#B4B4FA"/>
<path d="M61.7353 10.9412H54.6878C54.6265 10.9412 54.5769 10.9114 54.5769 10.8745C54.5769 10.8377 54.6265 10.8079 54.6878 10.8079H61.7353C61.7966 10.8079 61.8461 10.8377 61.8461 10.8745C61.8461 10.9114 61.7963 10.9412 61.7353 10.9412Z" fill="#B4B4FA"/>
<path d="M61.7353 13.0179H54.6878C54.6265 13.0179 54.5769 12.9881 54.5769 12.9512C54.5769 12.9143 54.6265 12.8845 54.6878 12.8845H61.7353C61.7966 12.8845 61.8461 12.9143 61.8461 12.9512C61.8461 12.9881 61.7963 13.0179 61.7353 13.0179Z" fill="#B4B4FA"/>
<circle cx="81.5" cy="9.5" r="9.25" stroke="#B4B4FA" stroke-width="0.5"/>
<path d="M89.4394 9.69742L87.037 5.43062C86.9553 5.28555 86.8019 5.19543 86.6371 5.19543C86.554 5.19543 86.4725 5.21828 86.4012 5.26176L85.4253 5.85672C85.2106 5.98727 85.1376 6.27332 85.2618 6.4941L85.3973 6.7348C85.2158 6.79504 85.0398 6.83125 84.8958 6.81918C84.7395 6.80617 84.5373 6.75871 84.3033 6.70375C83.8964 6.60812 83.3899 6.48906 82.8391 6.48906L82.8003 6.48918C81.9917 6.49691 80.5892 6.57402 80.2838 7.00363C80.244 7.05977 80.1956 7.12633 80.1442 7.19699C80.0636 7.18352 79.9778 7.17039 79.8849 7.15668C79.6169 7.11707 79.25 7.06293 79.1217 6.99016C79.0157 6.93016 78.8231 6.81156 78.6277 6.68934L78.7376 6.49422C78.8621 6.2732 78.7889 5.98715 78.5746 5.85695L77.5982 5.26164C77.5271 5.21828 77.4455 5.19531 77.3626 5.19531C77.1974 5.19531 77.044 5.28566 76.9625 5.43086L74.5603 9.69789C74.4364 9.91856 74.5096 10.2044 74.7236 10.3352L75.6999 10.9302C75.771 10.9735 75.8525 10.9963 75.9353 10.9963C76.1003 10.9963 76.2539 10.9061 76.3356 10.7608L76.5287 10.4178L76.7035 10.6122C76.731 10.6464 76.8951 10.8507 77.1192 11.1306L77.0523 11.2213C76.8039 11.5591 76.8905 12.0715 77.2453 12.3639C77.3869 12.4807 77.5569 12.5504 77.7295 12.5641C77.7101 12.8356 77.8265 13.1253 78.0614 13.3191C78.2199 13.4498 78.414 13.5218 78.6078 13.5218C78.6567 13.5218 78.704 13.5162 78.7504 13.5074C78.7954 13.6919 78.9003 13.8677 79.0599 13.9991C79.2189 14.1303 79.4132 14.2022 79.6073 14.2022C79.6892 14.2022 79.7681 14.1888 79.8421 14.1645C79.8935 14.3288 79.9924 14.4835 80.1363 14.6018C80.2952 14.7324 80.4895 14.8045 80.6832 14.8045C80.9186 14.8045 81.1312 14.6995 81.2662 14.5161L81.3869 14.3525C81.8914 14.5278 82.205 14.5881 82.2679 14.599C82.3256 14.6131 82.5295 14.6584 82.7684 14.6584C82.9587 14.6584 83.1707 14.6298 83.3485 14.5338C83.6115 14.3923 83.7997 14.1555 83.9001 14.0043C84.0697 14.0131 84.3336 14.0014 84.5257 13.8756C84.7782 13.7102 84.8677 13.4227 84.8984 13.2133C85.0811 13.2053 85.3225 13.1659 85.4913 13.0293C85.7249 12.8393 85.7998 12.5915 85.8165 12.3913C86.1104 12.4115 86.4635 12.328 86.6655 11.9582C86.8136 11.686 86.8127 11.4027 86.6719 11.1466C86.7862 11.0807 86.9234 10.9877 87.0713 10.8535C87.1681 10.7659 87.238 10.6927 87.2997 10.6279C87.3608 10.5639 87.4155 10.5072 87.487 10.4457L87.6642 10.7603C87.7461 10.9057 87.8995 10.9961 88.0642 10.9961C88.1473 10.9961 88.2288 10.9731 88.2999 10.9296L89.2763 10.3346C89.4905 10.2044 89.5635 9.91855 89.4394 9.69742ZM85.6692 6.25703L86.6335 5.66922L89.0323 9.93438L88.068 10.5222L85.6692 6.25703ZM86.9603 10.3046C86.9015 10.3662 86.8408 10.43 86.7564 10.5063C86.5953 10.6526 86.4494 10.7383 86.3546 10.7852C86.3537 10.7856 86.3523 10.7864 86.3514 10.7869L86.1137 10.591L86.1096 10.5876C86.0951 10.5755 85.8823 10.3971 85.4328 10.0643C85.1266 9.83734 84.7112 9.53945 84.17 9.17078C84.1001 9.12332 83.8698 8.97461 83.8276 8.94836C83.0288 8.44973 82.0514 7.96047 82.0041 7.93691C81.9713 7.92063 81.9355 7.9123 81.8995 7.9123C81.8756 7.9123 81.8517 7.91594 81.8282 7.92309L81.2155 8.11797C81.1614 8.1352 81.1153 8.17176 81.0858 8.22027C81.0806 8.22895 80.5471 9.09461 79.7581 9.15566C79.7204 9.15941 79.6855 9.16152 79.6531 9.16152C79.5708 9.16152 79.5405 9.14723 79.5391 9.14863C79.5358 9.14043 79.5166 9.07902 79.569 8.89059C79.7278 8.5784 80.578 7.39762 80.6281 7.32777C80.6404 7.31055 80.6546 7.29121 80.666 7.27527C80.7733 7.13137 81.6215 6.96918 82.8049 6.95793L82.8392 6.95781C83.3355 6.95781 83.7929 7.06527 84.1961 7.16008C84.4485 7.21926 84.666 7.27047 84.8571 7.28629C85.0914 7.30598 85.3664 7.24141 85.6293 7.14637L87.2533 10.0307C87.2398 10.0413 87.0326 10.2288 86.9603 10.3046ZM75.9317 10.5225L74.9688 9.92758L77.3663 5.66934L78.3291 6.26441L75.9317 10.5225ZM80.889 14.2382C80.8263 14.3235 80.7331 14.3361 80.6832 14.3361C80.5978 14.3361 80.5093 14.302 80.4342 14.2404C80.3226 14.1487 80.2646 14.0127 80.2703 13.8916C80.2729 13.8353 80.288 13.7819 80.3203 13.7382L80.3204 13.7379L80.361 13.6827L80.5072 13.4846L80.8075 13.0771C80.8705 12.9917 80.9637 12.9789 81.0138 12.9789C81.0991 12.9789 81.1876 13.013 81.2628 13.0748C81.426 13.2089 81.478 13.4391 81.3765 13.5771L81.219 13.7907L80.9308 14.1814L80.889 14.2382ZM79.6072 13.7338C79.5217 13.7338 79.4333 13.6997 79.3579 13.6377C79.2558 13.5538 79.1973 13.4325 79.1926 13.3197C79.191 13.282 79.1969 13.2459 79.2077 13.2116C79.2164 13.1845 79.2275 13.1582 79.2446 13.1352L79.4139 12.9053L80.0562 12.0337C80.075 12.0082 80.0964 11.9898 80.1186 11.9758C80.1708 11.9424 80.2273 11.9355 80.2624 11.9355C80.3477 11.9355 80.436 11.9696 80.5108 12.0311C80.6743 12.1656 80.7264 12.3959 80.6247 12.5338L80.0794 13.2739L79.813 13.6357C79.8077 13.643 79.8019 13.6489 79.7962 13.6552C79.7346 13.7227 79.6529 13.7338 79.6072 13.7338ZM78.216 12.5078C78.2239 12.4891 78.2335 12.4711 78.2457 12.4546L78.4865 12.1278L78.4982 12.112L78.6998 11.8387C78.7005 11.8377 78.701 11.8367 78.7017 11.8359L79.2522 11.0887C79.3154 11.0032 79.4088 10.9906 79.4589 10.9906C79.5442 10.9906 79.6325 11.0246 79.7077 11.0866C79.8713 11.2207 79.9231 11.4508 79.8214 11.5892L79.7774 11.6488C79.7416 11.6808 79.7082 11.716 79.6791 11.7556L79.028 12.6392L78.8675 12.8569C78.8402 12.8937 78.8177 12.933 78.7985 12.9734C78.7824 12.991 78.7652 13.0049 78.7474 13.0156C78.6962 13.0465 78.6419 13.0531 78.6077 13.0531C78.5225 13.0531 78.4342 13.0192 78.3596 12.9577C78.2158 12.839 78.1584 12.6463 78.216 12.5078ZM77.423 11.5114C77.4255 11.5075 77.4269 11.5032 77.4296 11.4994L77.7098 11.1193L77.7536 11.0598C77.8167 10.9744 77.9101 10.9619 77.9601 10.9619C78.0455 10.9619 78.1338 10.9959 78.2091 11.0577C78.3721 11.1916 78.4242 11.4204 78.3236 11.5587C78.3233 11.5592 78.323 11.5599 78.3227 11.5604L78.1968 11.7309L78.1618 11.7782L77.9982 12C77.9636 12.047 77.9199 12.0716 77.8791 12.0848C77.8458 12.0954 77.8144 12.0984 77.7919 12.0984C77.7066 12.0984 77.6184 12.0644 77.5433 12.0025C77.3845 11.8716 77.3322 11.6504 77.423 11.5114ZM86.2539 11.734C86.1257 11.9693 85.8577 11.9378 85.7245 11.9049L83.5157 10.5786C83.4048 10.5121 83.2605 10.5477 83.1942 10.6589C83.1276 10.7697 83.1635 10.9139 83.2746 10.9805L85.3492 12.2262C85.3603 12.3312 85.3572 12.5348 85.1963 12.6657C85.1116 12.734 84.8951 12.7516 84.7484 12.7443L82.8826 11.6644C82.7704 11.5996 82.6271 11.6378 82.5624 11.7498C82.4976 11.8619 82.5358 12.0053 82.648 12.07L84.4386 13.1065C84.4244 13.2327 84.3823 13.4099 84.269 13.4841C84.172 13.548 83.9449 13.5468 83.8156 13.5258C83.8074 13.5244 83.7993 13.5262 83.7911 13.5256L82.233 12.7731C82.1163 12.7166 81.976 12.7659 81.9199 12.8822C81.8635 12.9988 81.9124 13.139 82.029 13.1952L83.4203 13.8672C83.3459 13.958 83.246 14.0573 83.1267 14.1215C82.9079 14.2393 82.5089 14.1767 82.3742 14.1428C82.3673 14.1411 82.3605 14.1398 82.3536 14.1385C82.3492 14.1378 82.1055 14.0963 81.6794 13.9565L81.7538 13.8556C82.0024 13.5175 81.9156 13.005 81.5605 12.713C81.4332 12.6084 81.2833 12.5421 81.1292 12.5196C81.1872 12.2226 81.0719 11.8861 80.8092 11.6697C80.6711 11.556 80.5064 11.4869 80.3383 11.4708C80.3547 11.2014 80.2382 10.9161 80.0056 10.7253C79.8471 10.5944 79.6529 10.5223 79.4588 10.5223C79.2234 10.5223 79.0107 10.6273 78.875 10.8107L78.7428 10.9901C78.6867 10.8803 78.6081 10.7791 78.5069 10.696C78.3481 10.5653 78.1539 10.4934 77.9601 10.4934C77.7424 10.4934 77.5448 10.5843 77.4089 10.7431C77.2065 10.4904 77.068 10.318 77.0646 10.3138C77.0619 10.3105 77.059 10.3073 77.0561 10.3041L76.7712 9.98723L78.3977 7.09855C78.5913 7.21949 78.7815 7.33645 78.8908 7.39832C79.0951 7.5141 79.4619 7.56836 79.8166 7.62074C79.8228 7.62168 79.8291 7.62262 79.8353 7.62355C79.5699 7.99352 79.2869 8.40484 79.1397 8.70145C79.1335 8.71387 79.1285 8.72676 79.1246 8.74012C79.0673 8.93746 79.0088 9.22375 79.1635 9.42977C79.2637 9.56313 79.4285 9.63074 79.6532 9.63074C79.7 9.63074 79.7507 9.62793 79.7997 9.62301C80.676 9.55527 81.2664 8.79016 81.4373 8.53984L81.8791 8.39934C82.1394 8.53199 82.9511 8.95223 83.608 9.36426C83.6288 9.3775 83.8877 9.54578 83.9062 9.55844C84.4703 9.94293 84.8992 10.2521 85.2062 10.4807C85.4129 10.6383 85.6273 10.8041 85.8005 10.9408C85.8058 10.9451 85.809 10.9477 85.8094 10.948L86.1447 11.2245C86.3707 11.4433 86.3162 11.6198 86.2539 11.734Z" fill="#B4B4FA"/>
<circle cx="105.5" cy="9.5" r="9.25" stroke="#B4B4FA" stroke-width="0.5"/>
<path d="M110.579 15.8501H100.642C100.563 15.8501 100.5 15.7866 100.5 15.7081V2.92548C100.5 2.84693 100.563 2.78345 100.642 2.78345H110.579C110.658 2.78345 110.721 2.84693 110.721 2.92548V15.7081C110.721 15.7866 110.658 15.8501 110.579 15.8501ZM100.784 15.5661H110.437V3.06751H100.784V15.5661Z" fill="#B4B4FA"/>
<path d="M101.537 9.29393H100.147C100.084 9.29393 100.033 9.24403 100.033 9.18237C100.033 9.1207 100.084 9.0708 100.147 9.0708H101.537C101.6 9.0708 101.651 9.1207 101.651 9.18237C101.651 9.24403 101.6 9.29393 101.537 9.29393Z" fill="#B4B4FA"/>
<path d="M101.537 10.6614H100.147C100.084 10.6614 100.033 10.6115 100.033 10.5498C100.033 10.4881 100.084 10.4382 100.147 10.4382H101.537C101.6 10.4382 101.651 10.4881 101.651 10.5498C101.651 10.6115 101.6 10.6614 101.537 10.6614Z" fill="#B4B4FA"/>
<path d="M101.537 12.0283H100.147C100.084 12.0283 100.033 11.9784 100.033 11.9167C100.033 11.8551 100.084 11.8052 100.147 11.8052H101.537C101.6 11.8052 101.651 11.8551 101.651 11.9167C101.651 11.9784 101.6 12.0283 101.537 12.0283Z" fill="#B4B4FA"/>
<path d="M101.537 13.3957H100.147C100.084 13.3957 100.033 13.3458 100.033 13.2842C100.033 13.2225 100.084 13.1726 100.147 13.1726H101.537C101.6 13.1726 101.651 13.2225 101.651 13.2842C101.651 13.3458 101.6 13.3957 101.537 13.3957Z" fill="#B4B4FA"/>
<path d="M101.537 14.7627H100.147C100.084 14.7627 100.033 14.7128 100.033 14.6511C100.033 14.5895 100.084 14.5396 100.147 14.5396H101.537C101.6 14.5396 101.651 14.5895 101.651 14.6511C101.651 14.7128 101.6 14.7627 101.537 14.7627Z" fill="#B4B4FA"/>
<path d="M101.537 6.55956H100.147C100.084 6.55956 100.033 6.50965 100.033 6.44799C100.033 6.38633 100.084 6.33643 100.147 6.33643H101.537C101.6 6.33643 101.651 6.38633 101.651 6.44799C101.651 6.50965 101.6 6.55956 101.537 6.55956Z" fill="#B4B4FA"/>
<path d="M101.537 7.9265H100.147C100.084 7.9265 100.033 7.8766 100.033 7.81493C100.033 7.75327 100.084 7.70337 100.147 7.70337H101.537C101.6 7.70337 101.651 7.75327 101.651 7.81493C101.651 7.8766 101.6 7.9265 101.537 7.9265Z" fill="#B4B4FA"/>
<path d="M101.537 3.82518H100.147C100.084 3.82518 100.033 3.77528 100.033 3.71362C100.033 3.65195 100.084 3.60205 100.147 3.60205H101.537C101.6 3.60205 101.651 3.65195 101.651 3.71362C101.651 3.77528 101.6 3.82518 101.537 3.82518Z" fill="#B4B4FA"/>
<path d="M101.537 5.19237H100.147C100.084 5.19237 100.033 5.14247 100.033 5.0808C100.033 5.01914 100.084 4.96924 100.147 4.96924H101.537C101.6 4.96924 101.651 5.01914 101.651 5.0808C101.651 5.14247 101.6 5.19237 101.537 5.19237Z" fill="#B4B4FA"/>
<path d="M108.137 7.88372H103.384C102.94 7.88372 102.58 7.52934 102.58 7.09374V5.80281C102.58 5.36708 102.941 5.0127 103.384 5.0127H108.137C108.581 5.0127 108.941 5.36722 108.941 5.80281V7.09374C108.941 7.52934 108.581 7.88372 108.137 7.88372ZM103.384 5.14928C103.017 5.14928 102.719 5.44241 102.719 5.80268V7.0936C102.719 7.45387 103.017 7.74686 103.384 7.74686H108.137C108.504 7.74686 108.802 7.45373 108.802 7.0936V5.80268C108.802 5.44228 108.504 5.14928 108.137 5.14928H103.384Z" fill="#B4B4FA"/>
<path d="M107.742 5.98258H103.571C103.534 5.98258 103.505 5.95373 103.505 5.91805C103.505 5.88236 103.534 5.85352 103.571 5.85352H107.742C107.778 5.85352 107.807 5.88236 107.807 5.91805C107.807 5.95373 107.778 5.98258 107.742 5.98258Z" fill="#B4B4FA"/>
<path d="M107.742 6.52994H103.571C103.534 6.52994 103.505 6.5011 103.505 6.46541C103.505 6.42973 103.534 6.40088 103.571 6.40088H107.742C107.778 6.40088 107.807 6.42973 107.807 6.46541C107.807 6.5011 107.778 6.52994 107.742 6.52994Z" fill="#B4B4FA"/>
<path d="M107.742 7.07658H103.571C103.534 7.07658 103.505 7.04773 103.505 7.01204C103.505 6.97636 103.534 6.94751 103.571 6.94751H107.742C107.778 6.94751 107.807 6.97636 107.807 7.01204C107.807 7.04773 107.778 7.07658 107.742 7.07658Z" fill="#B4B4FA"/>
</svg>
