<svg width="244" height="16" viewBox="0 0 244 16" fill="none" xmlns="http://www.w3.org/2000/svg">
<path d="M7.38493 1.13611L7.14908 2.44928H4.42212L2.84489 11.3906H1.16449L2.74171 2.44928H0L0.235845 1.13611H7.38493ZM17.2676 1.13611L15.4546 11.3906H13.7742L14.5701 6.86093H9.75002L8.95405 11.3906H7.27364L9.08671 1.13611H10.7671L9.98587 5.56252H14.806L15.5872 1.13611H17.2676ZM22.6196 3.128C23.6318 3.128 24.4376 3.41325 25.037 3.98377C25.6463 4.55428 25.9509 5.32153 25.9509 6.2855C25.9509 6.51174 25.9264 6.78224 25.8772 7.09701C25.8379 7.31341 25.7691 7.579 25.6709 7.89376H19.4652C19.4553 7.96262 19.4504 8.0659 19.4504 8.20361C19.4504 8.78396 19.6273 9.24628 19.9811 9.59055C20.3447 9.93483 20.8164 10.107 21.3962 10.107C22.3101 10.107 23.0127 9.72826 23.504 8.97086H25.3171C24.9437 9.71843 24.3934 10.3332 23.6662 10.8152C22.939 11.2873 22.0988 11.5234 21.1456 11.5234C20.4675 11.5234 19.873 11.3906 19.362 11.125C18.851 10.8595 18.453 10.4808 18.168 9.98893C17.883 9.48727 17.7405 8.902 17.7405 8.23312C17.7405 7.94786 17.77 7.64293 17.829 7.31833C17.9764 6.48223 18.2761 5.74941 18.7281 5.11988C19.1802 4.48051 19.7403 3.98869 20.4085 3.64441C21.0866 3.30014 21.8236 3.128 22.6196 3.128ZM24.1968 6.68388C24.2165 6.50682 24.2263 6.37895 24.2263 6.30026C24.2263 5.75925 24.0445 5.33136 23.6809 5.0166C23.3271 4.70183 22.8653 4.54445 22.2953 4.54445C21.6959 4.54445 21.1554 4.73626 20.6739 5.11988C20.1924 5.5035 19.8632 6.02484 19.6863 6.68388H24.1968ZM34.4413 2.43452L33.8959 5.54777H37.4336L37.2125 6.84618H33.6748L33.0999 10.0775H37.0798L36.844 11.3906H31.1836L32.9967 1.12136H38.657L38.4212 2.43452H34.4413ZM39.0759 7.28882C39.2233 6.47239 39.5181 5.74941 39.9603 5.11988C40.4124 4.49035 40.9627 4.00344 41.6112 3.65916C42.2598 3.30505 42.9428 3.128 43.6601 3.128C44.2891 3.128 44.8246 3.25587 45.2669 3.51162C45.7091 3.76736 46.0284 4.07721 46.225 4.44116L46.4313 3.26079H48.1265L46.0185 15.2564H44.3235L45.2079 10.2103C44.8836 10.5644 44.4463 10.8742 43.896 11.1398C43.3555 11.3955 42.7659 11.5234 42.1272 11.5234C41.5179 11.5234 40.9774 11.3857 40.5057 11.1103C40.034 10.8349 39.6606 10.4463 39.3854 9.94467C39.1201 9.43317 38.9874 8.8479 38.9874 8.18886C38.9874 7.89376 39.0169 7.59375 39.0759 7.28882ZM45.7238 7.31833C45.7631 7.13144 45.7828 6.92979 45.7828 6.71339C45.7828 6.05434 45.5862 5.53793 45.1931 5.16415C44.8099 4.78052 44.3284 4.58871 43.7486 4.58871C43.3162 4.58871 42.8936 4.69691 42.4809 4.91331C42.0682 5.11988 41.7095 5.42973 41.4049 5.84286C41.1002 6.24616 40.8988 6.72814 40.8005 7.28882C40.7612 7.47571 40.7414 7.67736 40.7414 7.89376C40.7414 8.56264 40.9332 9.09381 41.3164 9.48727C41.7095 9.87089 42.1959 10.0627 42.7757 10.0627C43.2081 10.0627 43.6307 9.9545 44.0434 9.7381C44.4561 9.5217 44.8148 9.20693 45.1195 8.7938C45.4241 8.37083 45.6255 7.87901 45.7238 7.31833ZM57.6891 3.26079L56.2593 11.3906H54.5788L54.741 10.4316C54.4167 10.766 54.0236 11.0316 53.5618 11.2283C53.1097 11.4152 52.6429 11.5087 52.1614 11.5087C51.3065 11.5087 50.6235 11.2775 50.1125 10.8152C49.6015 10.3529 49.346 9.69876 49.346 8.85282C49.346 8.62658 49.3706 8.35608 49.4197 8.04131L50.2599 3.26079H51.9256L51.1296 7.79048C51.0903 8.0659 51.0706 8.26263 51.0706 8.38067C51.0706 8.92167 51.218 9.33481 51.5128 9.62006C51.8175 9.90532 52.2351 10.048 52.7658 10.048C53.3849 10.048 53.9106 9.86598 54.343 9.50203C54.7754 9.12824 55.0604 8.59215 55.1979 7.89376L56.0087 3.26079H57.6891ZM60.9527 2.18369C60.6874 2.18369 60.4712 2.10009 60.3041 1.93287C60.1371 1.76565 60.0535 1.55416 60.0535 1.29841C60.0535 0.954137 60.1813 0.659043 60.4368 0.413131C60.7021 0.157383 61.0018 0.0295096 61.336 0.0295096C61.6013 0.0295096 61.8126 0.113119 61.9698 0.280339C62.1369 0.447559 62.2204 0.659043 62.2204 0.914791C62.2204 1.25907 62.0926 1.55908 61.8371 1.81483C61.5816 2.06074 61.2868 2.18369 60.9527 2.18369ZM61.5865 3.26079L60.1567 11.3906H58.4763L59.9061 3.26079H61.5865ZM65.9744 0.47215L64.0434 11.3906H62.363L64.294 0.47215H65.9744ZM68.7261 2.18369C68.4607 2.18369 68.2445 2.10009 68.0775 1.93287C67.9104 1.76565 67.8269 1.55416 67.8269 1.29841C67.8269 0.954137 67.9546 0.659043 68.2101 0.413131C68.4755 0.157383 68.7752 0.0295096 69.1093 0.0295096C69.3746 0.0295096 69.5859 0.113119 69.7431 0.280339C69.9102 0.447559 69.9937 0.659043 69.9937 0.914791C69.9937 1.25907 69.866 1.55908 69.6105 1.81483C69.355 2.06074 69.0602 2.18369 68.7261 2.18369ZM69.3599 3.26079L67.9301 11.3906H66.2497L67.6795 3.26079H69.3599ZM73.0401 4.47067C73.3938 4.07721 73.841 3.75753 74.3814 3.51162C74.9219 3.25587 75.4968 3.128 76.1061 3.128C76.735 3.128 77.2853 3.26079 77.757 3.52637C78.2385 3.79196 78.6119 4.17066 78.8773 4.66248C79.1426 5.14447 79.2753 5.71499 79.2753 6.37403C79.2753 6.65929 79.2458 6.96422 79.1868 7.28882C79.0394 8.10525 78.7397 8.83806 78.2876 9.48727C77.8454 10.1266 77.3 10.6283 76.6515 10.9923C76.0127 11.3464 75.3396 11.5234 74.632 11.5234C74.0031 11.5234 73.4675 11.4005 73.0253 11.1546C72.5831 10.9086 72.249 10.5939 72.023 10.2103L71.8166 11.3906H70.1362L72.0672 0.47215H73.7476L73.0401 4.47067ZM77.4769 7.28882C77.5162 7.10193 77.5359 6.90028 77.5359 6.68388C77.5359 6.02484 77.3394 5.51334 76.9463 5.14939C76.563 4.7756 76.0766 4.58871 75.487 4.58871C75.0644 4.58871 74.6419 4.69691 74.2193 4.91331C73.8066 5.12972 73.4479 5.44448 73.1433 5.85762C72.8386 6.27075 72.6372 6.75765 72.5389 7.31833C72.4996 7.50522 72.4799 7.70687 72.4799 7.92327C72.4799 8.58232 72.6716 9.10365 73.0548 9.48727C73.4479 9.87089 73.9343 10.0627 74.5141 10.0627C74.9465 10.0627 75.369 9.9545 75.7818 9.7381C76.2043 9.51186 76.5679 9.18726 76.8726 8.76429C77.1772 8.34132 77.3787 7.8495 77.4769 7.28882ZM82.9859 4.69199C83.32 4.20017 83.7131 3.81655 84.1651 3.54113C84.627 3.26571 85.138 3.128 85.6981 3.128L85.3886 4.86905H84.9611C84.3125 4.86905 83.7917 5.03135 83.3986 5.35595C83.0056 5.68056 82.7304 6.24124 82.5732 7.03799L81.8067 11.3906H80.1263L81.5561 3.26079H83.2365L82.9859 4.69199ZM88.2599 2.18369C87.9946 2.18369 87.7784 2.10009 87.6113 1.93287C87.4442 1.76565 87.3607 1.55416 87.3607 1.29841C87.3607 0.954137 87.4885 0.659043 87.744 0.413131C88.0093 0.157383 88.309 0.0295096 88.6431 0.0295096C88.9085 0.0295096 89.1197 0.113119 89.277 0.280339C89.444 0.447559 89.5276 0.659043 89.5276 0.914791C89.5276 1.25907 89.3998 1.55908 89.1443 1.81483C88.8888 2.06074 88.594 2.18369 88.2599 2.18369ZM88.8937 3.26079L87.4639 11.3906H85.7835L87.2133 3.26079H88.8937ZM89.8323 7.28882C89.9797 6.47239 90.2745 5.74941 90.7167 5.11988C91.1688 4.49035 91.7191 4.00344 92.3677 3.65916C93.0162 3.30505 93.6943 3.128 94.4018 3.128C95.0406 3.128 95.5761 3.25587 96.0085 3.51162C96.4409 3.75753 96.7652 4.06738 96.9814 4.44116L97.1878 3.26079H98.8829L97.4531 11.3906H95.7579L95.9791 10.1807C95.6253 10.5644 95.1782 10.884 94.6377 11.1398C94.107 11.3955 93.5272 11.5234 92.8983 11.5234C92.289 11.5234 91.7436 11.3857 91.2621 11.1103C90.7904 10.8349 90.417 10.4463 90.1419 9.94467C89.8765 9.43317 89.7439 8.8479 89.7439 8.18886C89.7439 7.89376 89.7733 7.59375 89.8323 7.28882ZM96.4802 7.31833C96.5195 7.13144 96.5392 6.92979 96.5392 6.71339C96.5392 6.05434 96.3426 5.53793 95.9496 5.16415C95.5663 4.78052 95.0848 4.58871 94.505 4.58871C94.0726 4.58871 93.6501 4.69691 93.2373 4.91331C92.8246 5.11988 92.4659 5.42973 92.1613 5.84286C91.8567 6.24616 91.6552 6.72814 91.5569 7.28882C91.5176 7.47571 91.498 7.67736 91.498 7.89376C91.498 8.56264 91.6896 9.09381 92.0729 9.48727C92.4659 9.87089 92.9524 10.0627 93.5321 10.0627C93.9645 10.0627 94.3871 9.9545 94.7998 9.7381C95.2125 9.5217 95.5712 9.20693 95.8759 8.7938C96.1805 8.37083 96.382 7.87901 96.4802 7.31833ZM107.632 11.5234C106.944 11.5234 106.34 11.3808 105.819 11.0955C105.298 10.8103 104.89 10.407 104.595 9.88565C104.31 9.36431 104.168 8.76921 104.168 8.10033C104.168 7.18554 104.379 6.34944 104.802 5.59203C105.234 4.83462 105.824 4.2346 106.571 3.79196C107.327 3.34932 108.167 3.128 109.091 3.128C109.779 3.128 110.388 3.27554 110.919 3.57064C111.45 3.85589 111.862 4.25919 112.157 4.78052C112.462 5.29202 112.614 5.88712 112.614 6.56584C112.614 7.48063 112.393 8.31673 111.951 9.07414C111.509 9.83155 110.909 10.4316 110.152 10.8742C109.396 11.307 108.556 11.5234 107.632 11.5234ZM107.838 10.107C108.398 10.107 108.909 9.94959 109.371 9.63482C109.843 9.31022 110.211 8.88725 110.477 8.36592C110.742 7.83475 110.875 7.26915 110.875 6.66912C110.875 5.99041 110.683 5.46908 110.3 5.10513C109.917 4.73134 109.435 4.54445 108.855 4.54445C108.285 4.54445 107.774 4.70675 107.322 5.03135C106.88 5.34612 106.531 5.77401 106.276 6.31501C106.03 6.84618 105.907 7.41669 105.907 8.02656C105.907 8.6856 106.084 9.19709 106.438 9.56104C106.801 9.92499 107.268 10.107 107.838 10.107ZM118.535 1.4017C118.024 1.4017 117.645 1.50006 117.4 1.69679C117.154 1.89352 116.992 2.22304 116.913 2.68536L116.81 3.26079H118.314L118.078 4.63297H116.574L115.38 11.3906H113.685L114.879 4.63297H113.921L114.157 3.26079H115.115L115.218 2.68536C115.385 1.75089 115.754 1.07217 116.324 0.649207C116.894 0.216402 117.709 0 118.771 0L118.535 1.4017ZM125.269 2.18369C125.003 2.18369 124.787 2.10009 124.62 1.93287C124.453 1.76565 124.37 1.55416 124.37 1.29841C124.37 0.954137 124.497 0.659043 124.753 0.413131C125.018 0.157383 125.318 0.0295096 125.652 0.0295096C125.917 0.0295096 126.129 0.113119 126.286 0.280339C126.453 0.447559 126.536 0.659043 126.536 0.914791C126.536 1.25907 126.409 1.55908 126.153 1.81483C125.898 2.06074 125.603 2.18369 125.269 2.18369ZM125.903 3.26079L124.473 11.3906H122.792L124.222 3.26079H125.903ZM129.671 11.5234C129.111 11.5234 128.6 11.43 128.138 11.2431C127.676 11.0464 127.313 10.7758 127.047 10.4316C126.782 10.0775 126.649 9.67416 126.649 9.22169C126.649 9.14299 126.659 9.03479 126.679 8.89708H128.315C128.276 9.27087 128.389 9.58072 128.654 9.82663C128.919 10.0725 129.293 10.1955 129.774 10.1955C130.246 10.1955 130.634 10.1119 130.939 9.94467C131.243 9.77745 131.396 9.53154 131.396 9.20693C131.396 8.93151 131.268 8.71019 131.013 8.54297C130.767 8.37575 130.369 8.18886 129.819 7.98229C129.298 7.77573 128.875 7.58392 128.551 7.40686C128.227 7.2298 127.947 6.98881 127.711 6.68388C127.475 6.36911 127.357 5.98057 127.357 5.51826C127.357 5.04611 127.49 4.63297 127.755 4.27886C128.03 3.91491 128.408 3.63457 128.89 3.43784C129.381 3.23128 129.941 3.128 130.57 3.128C131.14 3.128 131.646 3.22636 132.089 3.42309C132.541 3.60998 132.889 3.88049 133.135 4.2346C133.391 4.57887 133.518 4.97725 133.518 5.42973C133.518 5.56744 133.513 5.67072 133.504 5.73958H131.912C131.951 5.35595 131.838 5.04611 131.573 4.81003C131.317 4.57396 130.949 4.45592 130.467 4.45592C130.045 4.45592 129.701 4.54445 129.435 4.7215C129.18 4.89856 129.052 5.13955 129.052 5.44448C129.052 5.74941 129.185 5.99533 129.45 6.18222C129.715 6.35927 130.123 6.556 130.673 6.77241C131.175 6.96913 131.582 7.15603 131.897 7.33309C132.211 7.51014 132.482 7.74622 132.708 8.04131C132.934 8.3364 133.047 8.70527 133.047 9.14791C133.047 9.6299 132.899 10.0529 132.604 10.4168C132.32 10.7709 131.922 11.0464 131.411 11.2431C130.9 11.43 130.32 11.5234 129.671 11.5234ZM138.106 11.5234C137.418 11.5234 136.814 11.3808 136.293 11.0955C135.772 10.8103 135.365 10.407 135.07 9.88565C134.785 9.36431 134.642 8.76921 134.642 8.10033C134.642 7.18554 134.854 6.34944 135.276 5.59203C135.709 4.83462 136.298 4.2346 137.045 3.79196C137.802 3.34932 138.642 3.128 139.566 3.128C140.254 3.128 140.863 3.27554 141.393 3.57064C141.924 3.85589 142.337 4.25919 142.632 4.78052C142.936 5.29202 143.089 5.88712 143.089 6.56584C143.089 7.48063 142.867 8.31673 142.425 9.07414C141.983 9.83155 141.384 10.4316 140.627 10.8742C139.87 11.307 139.03 11.5234 138.106 11.5234ZM138.313 10.107C138.873 10.107 139.384 9.94959 139.846 9.63482C140.317 9.31022 140.686 8.88725 140.951 8.36592C141.217 7.83475 141.349 7.26915 141.349 6.66912C141.349 5.99041 141.158 5.46908 140.774 5.10513C140.391 4.73134 139.91 4.54445 139.33 4.54445C138.76 4.54445 138.249 4.70675 137.797 5.03135C137.355 5.34612 137.006 5.77401 136.75 6.31501C136.505 6.84618 136.382 7.41669 136.382 8.02656C136.382 8.6856 136.559 9.19709 136.912 9.56104C137.276 9.92499 137.743 10.107 138.313 10.107ZM155.244 3.128C156.099 3.128 156.782 3.35915 157.293 3.82147C157.804 4.28378 158.06 4.93791 158.06 5.78384C158.06 6.01008 158.035 6.28058 157.986 6.59535L157.131 11.3906H155.466L156.276 6.84618C156.316 6.57076 156.335 6.37403 156.335 6.25599C156.335 5.71499 156.183 5.30185 155.878 5.0166C155.583 4.73134 155.171 4.58871 154.64 4.58871C154.001 4.58871 153.461 4.78544 153.019 5.1789C152.586 5.56252 152.311 6.11828 152.193 6.84618L151.383 11.3906H149.717L150.528 6.84618C150.567 6.57076 150.587 6.37403 150.587 6.25599C150.587 5.71499 150.434 5.30185 150.13 5.0166C149.835 4.73134 149.422 4.58871 148.891 4.58871C148.253 4.58871 147.712 4.78544 147.27 5.1789C146.838 5.56252 146.562 6.11828 146.444 6.84618V6.80192L145.634 11.3906H143.953L145.383 3.26079H147.064L146.901 4.20509C147.226 3.87065 147.614 3.60998 148.066 3.42309C148.528 3.22636 149.004 3.128 149.496 3.128C150.144 3.128 150.7 3.26571 151.161 3.54113C151.633 3.81655 151.962 4.21492 152.149 4.73626C152.473 4.24443 152.92 3.85589 153.49 3.57064C154.06 3.27554 154.645 3.128 155.244 3.128ZM164.223 3.128C165.235 3.128 166.041 3.41325 166.64 3.98377C167.249 4.55428 167.554 5.32153 167.554 6.2855C167.554 6.51174 167.529 6.78224 167.48 7.09701C167.441 7.31341 167.372 7.579 167.274 7.89376H161.068C161.058 7.96262 161.053 8.0659 161.053 8.20361C161.053 8.78396 161.23 9.24628 161.584 9.59055C161.948 9.93483 162.419 10.107 162.999 10.107C163.913 10.107 164.616 9.72826 165.107 8.97086H166.92C166.547 9.71843 165.996 10.3332 165.269 10.8152C164.542 11.2873 163.702 11.5234 162.749 11.5234C162.07 11.5234 161.476 11.3906 160.965 11.125C160.454 10.8595 160.056 10.4808 159.771 9.98893C159.486 9.48727 159.344 8.902 159.344 8.23312C159.344 7.94786 159.373 7.64293 159.432 7.31833C159.579 6.48223 159.879 5.74941 160.331 5.11988C160.783 4.48051 161.343 3.98869 162.012 3.64441C162.69 3.30014 163.427 3.128 164.223 3.128ZM165.8 6.68388C165.819 6.50682 165.829 6.37895 165.829 6.30026C165.829 5.75925 165.648 5.33136 165.284 5.0166C164.93 4.70183 164.468 4.54445 163.898 4.54445C163.299 4.54445 162.758 4.73626 162.277 5.11988C161.795 5.5035 161.466 6.02484 161.289 6.68388H165.8ZM171.227 4.69199C171.561 4.20017 171.954 3.81655 172.406 3.54113C172.868 3.26571 173.379 3.128 173.939 3.128L173.629 4.86905H173.202C172.553 4.86905 172.033 5.03135 171.639 5.35595C171.246 5.68056 170.971 6.24124 170.814 7.03799L170.047 11.3906H168.367L169.797 3.26079H171.477L171.227 4.69199ZM174.186 7.28882C174.333 6.47239 174.628 5.74941 175.07 5.11988C175.522 4.49035 176.073 4.00344 176.721 3.65916C177.37 3.30505 178.048 3.128 178.755 3.128C179.394 3.128 179.93 3.25587 180.362 3.51162C180.794 3.75753 181.119 4.06738 181.335 4.44116L181.541 3.26079H183.236L181.807 11.3906H180.111L180.333 10.1807C179.979 10.5644 179.532 10.884 178.991 11.1398C178.461 11.3955 177.881 11.5234 177.252 11.5234C176.643 11.5234 176.097 11.3857 175.616 11.1103C175.144 10.8349 174.771 10.4463 174.495 9.94467C174.23 9.43317 174.097 8.8479 174.097 8.18886C174.097 7.89376 174.127 7.59375 174.186 7.28882ZM180.834 7.31833C180.873 7.13144 180.893 6.92979 180.893 6.71339C180.893 6.05434 180.696 5.53793 180.303 5.16415C179.92 4.78052 179.438 4.58871 178.859 4.58871C178.426 4.58871 178.004 4.69691 177.591 4.91331C177.178 5.11988 176.819 5.42973 176.515 5.84286C176.21 6.24616 176.009 6.72814 175.91 7.28882C175.871 7.47571 175.852 7.67736 175.852 7.89376C175.852 8.56264 176.043 9.09381 176.426 9.48727C176.819 9.87089 177.306 10.0627 177.886 10.0627C178.318 10.0627 178.741 9.9545 179.153 9.7381C179.566 9.5217 179.925 9.20693 180.229 8.7938C180.534 8.37083 180.736 7.87901 180.834 7.31833ZM187.006 11.5234C186.446 11.5234 185.935 11.43 185.473 11.2431C185.011 11.0464 184.648 10.7758 184.383 10.4316C184.117 10.0775 183.985 9.67416 183.985 9.22169C183.985 9.14299 183.994 9.03479 184.014 8.89708H185.65C185.611 9.27087 185.724 9.58072 185.989 9.82663C186.255 10.0725 186.628 10.1955 187.109 10.1955C187.581 10.1955 187.969 10.1119 188.274 9.94467C188.579 9.77745 188.731 9.53154 188.731 9.20693C188.731 8.93151 188.603 8.71019 188.348 8.54297C188.102 8.37575 187.704 8.18886 187.154 7.98229C186.633 7.77573 186.21 7.58392 185.886 7.40686C185.562 7.2298 185.282 6.98881 185.046 6.68388C184.81 6.36911 184.692 5.98057 184.692 5.51826C184.692 5.04611 184.825 4.63297 185.09 4.27886C185.365 3.91491 185.744 3.63457 186.225 3.43784C186.716 3.23128 187.277 3.128 187.905 3.128C188.475 3.128 188.982 3.22636 189.424 3.42309C189.876 3.60998 190.225 3.88049 190.47 4.2346C190.726 4.57887 190.854 4.97725 190.854 5.42973C190.854 5.56744 190.849 5.67072 190.839 5.73958H189.247C189.286 5.35595 189.173 5.04611 188.908 4.81003C188.652 4.57396 188.284 4.45592 187.802 4.45592C187.38 4.45592 187.036 4.54445 186.77 4.7215C186.515 4.89856 186.387 5.13955 186.387 5.44448C186.387 5.74941 186.52 5.99533 186.785 6.18222C187.051 6.35927 187.458 6.556 188.009 6.77241C188.51 6.96913 188.918 7.15603 189.232 7.33309C189.547 7.51014 189.817 7.74622 190.043 8.04131C190.269 8.3364 190.382 8.70527 190.382 9.14791C190.382 9.6299 190.234 10.0529 189.94 10.4168C189.655 10.7709 189.257 11.0464 188.746 11.2431C188.235 11.43 187.655 11.5234 187.006 11.5234ZM196.841 3.128C197.853 3.128 198.659 3.41325 199.258 3.98377C199.867 4.55428 200.172 5.32153 200.172 6.2855C200.172 6.51174 200.147 6.78224 200.098 7.09701C200.059 7.31341 199.99 7.579 199.892 7.89376H193.686C193.676 7.96262 193.671 8.0659 193.671 8.20361C193.671 8.78396 193.848 9.24628 194.202 9.59055C194.566 9.93483 195.037 10.107 195.617 10.107C196.531 10.107 197.234 9.72826 197.725 8.97086H199.538C199.165 9.71843 198.614 10.3332 197.887 10.8152C197.16 11.2873 196.32 11.5234 195.367 11.5234C194.688 11.5234 194.094 11.3906 193.583 11.125C193.072 10.8595 192.674 10.4808 192.389 9.98893C192.104 9.48727 191.962 8.902 191.962 8.23312C191.962 7.94786 191.991 7.64293 192.05 7.31833C192.197 6.48223 192.497 5.74941 192.949 5.11988C193.401 4.48051 193.961 3.98869 194.63 3.64441C195.308 3.30014 196.045 3.128 196.841 3.128ZM198.418 6.68388C198.437 6.50682 198.447 6.37895 198.447 6.30026C198.447 5.75925 198.266 5.33136 197.902 5.0166C197.548 4.70183 197.086 4.54445 196.516 4.54445C195.917 4.54445 195.376 4.73626 194.895 5.11988C194.413 5.5035 194.084 6.02484 193.907 6.68388H198.418ZM205.567 7.28882C205.714 6.47239 206.009 5.74941 206.451 5.11988C206.903 4.49035 207.454 4.00344 208.102 3.65916C208.751 3.30505 209.429 3.128 210.136 3.128C210.775 3.128 211.311 3.25587 211.743 3.51162C212.176 3.75753 212.5 4.06738 212.716 4.44116L212.922 3.26079H214.617L213.188 11.3906H211.493L211.714 10.1807C211.36 10.5644 210.913 10.884 210.372 11.1398C209.842 11.3955 209.262 11.5234 208.633 11.5234C208.024 11.5234 207.478 11.3857 206.997 11.1103C206.525 10.8349 206.152 10.4463 205.876 9.94467C205.611 9.43317 205.478 8.8479 205.478 8.18886C205.478 7.89376 205.508 7.59375 205.567 7.28882ZM212.215 7.31833C212.254 7.13144 212.274 6.92979 212.274 6.71339C212.274 6.05434 212.077 5.53793 211.684 5.16415C211.301 4.78052 210.819 4.58871 210.24 4.58871C209.807 4.58871 209.385 4.69691 208.972 4.91331C208.559 5.11988 208.201 5.42973 207.896 5.84286C207.591 6.24616 207.39 6.72814 207.292 7.28882C207.252 7.47571 207.233 7.67736 207.233 7.89376C207.233 8.56264 207.424 9.09381 207.807 9.48727C208.201 9.87089 208.687 10.0627 209.267 10.0627C209.699 10.0627 210.122 9.9545 210.534 9.7381C210.947 9.5217 211.306 9.20693 211.61 8.7938C211.915 8.37083 212.117 7.87901 212.215 7.31833ZM220.952 3.128C221.807 3.128 222.485 3.35915 222.986 3.82147C223.497 4.27394 223.753 4.92807 223.753 5.78384C223.753 6.00024 223.728 6.27075 223.679 6.59535L222.824 11.3906H221.159L221.969 6.84618C222.009 6.57076 222.028 6.37403 222.028 6.25599C222.028 5.71499 221.876 5.30185 221.571 5.0166C221.276 4.73134 220.864 4.58871 220.333 4.58871C219.694 4.58871 219.154 4.78544 218.712 5.1789C218.279 5.56252 218.004 6.11828 217.886 6.84618V6.80192L217.075 11.3906H215.395L216.825 3.26079H218.505L218.343 4.20509C218.677 3.87065 219.07 3.60998 219.522 3.42309C219.984 3.22636 220.461 3.128 220.952 3.128ZM225.13 7.28882C225.277 6.47239 225.572 5.74941 226.014 5.11988C226.466 4.49035 227.017 4.00344 227.665 3.65916C228.314 3.30505 228.997 3.128 229.714 3.128C230.245 3.128 230.746 3.24603 231.218 3.48211C231.689 3.70835 232.048 4.01328 232.294 4.3969L232.986 0.47215H234.682L232.751 11.3906H231.055L231.277 10.166C230.923 10.5693 230.481 10.8988 229.95 11.1546C229.429 11.4005 228.854 11.5234 228.225 11.5234C227.606 11.5234 227.056 11.3857 226.574 11.1103C226.093 10.8349 225.715 10.4463 225.439 9.94467C225.174 9.43317 225.041 8.8479 225.041 8.18886C225.041 7.89376 225.071 7.59375 225.13 7.28882ZM231.778 7.31833C231.817 7.13144 231.837 6.92979 231.837 6.71339C231.837 6.05434 231.64 5.53793 231.247 5.16415C230.864 4.78052 230.382 4.58871 229.803 4.58871C229.37 4.58871 228.948 4.69691 228.535 4.91331C228.122 5.11988 227.763 5.42973 227.459 5.84286C227.154 6.24616 226.953 6.72814 226.854 7.28882C226.815 7.47571 226.796 7.67736 226.796 7.89376C226.796 8.56264 226.987 9.09381 227.37 9.48727C227.763 9.87089 228.25 10.0627 228.83 10.0627C229.262 10.0627 229.685 9.9545 230.097 9.7381C230.51 9.5217 230.869 9.20693 231.173 8.7938C231.478 8.37083 231.679 7.87901 231.778 7.31833ZM235.621 11.4939C235.356 11.4939 235.14 11.4103 234.973 11.2431C234.806 11.0759 234.722 10.8644 234.722 10.6086C234.722 10.2644 234.85 9.96926 235.105 9.72335C235.371 9.4676 235.67 9.33972 236.005 9.33972C236.27 9.33972 236.481 9.42333 236.638 9.59055C236.805 9.75777 236.889 9.96926 236.889 10.225C236.889 10.5693 236.761 10.8693 236.506 11.125C236.25 11.371 235.955 11.4939 235.621 11.4939ZM239.176 11.4939C238.911 11.4939 238.695 11.4103 238.528 11.2431C238.361 11.0759 238.277 10.8644 238.277 10.6086C238.277 10.2644 238.405 9.96926 238.66 9.72335C238.926 9.4676 239.225 9.33972 239.559 9.33972C239.825 9.33972 240.036 9.42333 240.193 9.59055C240.36 9.75777 240.444 9.96926 240.444 10.225C240.444 10.5693 240.316 10.8693 240.061 11.125C239.805 11.371 239.51 11.4939 239.176 11.4939ZM242.732 11.4939C242.467 11.4939 242.251 11.4103 242.084 11.2431C241.917 11.0759 241.833 10.8644 241.833 10.6086C241.833 10.2644 241.961 9.96926 242.216 9.72335C242.482 9.4676 242.781 9.33972 243.116 9.33972C243.381 9.33972 243.592 9.42333 243.749 9.59055C243.916 9.75777 244 9.96926 244 10.225C244 10.5693 243.872 10.8693 243.617 11.125C243.361 11.371 243.066 11.4939 242.732 11.4939Z" fill="#F2F4FA"/>
</svg>
