<svg width="14" height="14" viewBox="0 0 14 14" fill="none" xmlns="http://www.w3.org/2000/svg">
<g clip-path="url(#clip0_8_14427)">
<g clip-path="url(#clip1_8_14427)">
<path d="M7 14C3.6916 14 1 11.3084 1 8C1 4.6916 3.6916 2 7 2C10.3084 2 13 4.6916 13 8C13 11.3084 10.3084 14 7 14ZM7 2.4C3.9122 2.4 1.4 4.9122 1.4 8C1.4 11.0878 3.9122 13.6 7 13.6C10.0878 13.6 12.6 11.0878 12.6 8C12.6 4.9122 10.0878 2.4 7 2.4Z" fill="#505083"/>
</g>
<g clip-path="url(#clip2_8_14427)">
<path d="M3.45739 14C3.41359 14 3.37039 13.9858 3.33459 13.958C2.02419 12.94 1.18659 11.4128 1.03699 9.768C1.02899 9.6816 1.07779 9.6002 1.15739 9.566L1.36679 9.4762C1.78579 9.2966 2.26479 9.38899 2.58719 9.71139L2.95779 10.082C3.05699 10.1812 3.18219 10.2482 3.31979 10.2758C3.83619 10.3792 4.21079 10.8362 4.21079 11.3628V11.4182C4.21079 11.7196 4.12259 12.0112 3.95539 12.2616C3.85639 12.41 3.79379 12.5824 3.77399 12.7594L3.65599 13.8222C3.64799 13.894 3.60179 13.9562 3.53519 13.9844C3.51019 13.9948 3.48379 14 3.45739 14ZM1.45039 9.8756C1.61039 11.2354 2.27379 12.499 3.29959 13.4092L3.37659 12.715C3.40339 12.4746 3.48839 12.241 3.62259 12.0394C3.74579 11.8548 3.81079 11.64 3.81079 11.418V11.3626C3.81079 11.026 3.57139 10.7338 3.24119 10.6678C3.02579 10.6248 2.82979 10.52 2.67479 10.3646L2.30419 9.994C2.09799 9.7882 1.79199 9.729 1.52419 9.8436L1.45039 9.8756Z" fill="#505083"/>
<path d="M1.72904 8.81779H1.24184C1.18524 8.81779 1.13124 8.79379 1.09344 8.75179C1.05564 8.70979 1.03724 8.65379 1.04304 8.59739C1.15864 7.47319 1.59064 6.40699 2.29284 5.51379C2.35144 5.43919 2.45444 5.41599 2.53944 5.45859L3.29024 5.83399C3.60404 5.99099 3.82604 6.29139 3.88364 6.63759L3.89904 6.72899C3.97884 7.20859 3.74044 7.67699 3.30564 7.89439L2.91444 8.08999C2.80564 8.14439 2.71244 8.22679 2.64484 8.32799C2.44024 8.63459 2.09804 8.81779 1.72904 8.81779ZM1.46784 8.41779H1.72904C1.96384 8.41779 2.18184 8.30119 2.31204 8.10579C2.41804 7.94659 2.56464 7.81739 2.73564 7.73179L3.12684 7.53619C3.40364 7.39799 3.55544 7.09959 3.50464 6.79439L3.48924 6.70299V6.70279C3.45244 6.48239 3.31124 6.29139 3.11144 6.19139L2.50864 5.88999C1.95564 6.63679 1.59884 7.50359 1.46784 8.41779Z" fill="#505083"/>
<path d="M7.69009 13.499C7.41829 13.499 7.16249 13.3354 7.05649 13.0702L6.83729 12.5222C6.82589 12.494 6.81649 12.4646 6.80889 12.4346L6.42969 10.9176C6.42469 10.8976 6.41749 10.8784 6.40829 10.86L6.20469 10.453C6.14529 10.334 6.01389 10.2744 5.88449 10.3056L5.69089 10.354C5.48549 10.4052 5.26449 10.3572 5.09949 10.225L4.46649 9.71879C4.30389 9.58839 4.21069 9.39439 4.21069 9.18639V8.97219C4.21069 8.82919 4.25469 8.69239 4.33769 8.57619L5.10389 7.50359C5.23169 7.32459 5.43909 7.21799 5.65869 7.21799H6.07729C6.20129 7.21799 6.32269 7.25179 6.42829 7.31539L7.15369 7.75059C7.21389 7.78699 7.28509 7.79939 7.35389 7.78539L7.78769 7.69839C8.10229 7.63539 8.42189 7.80379 8.54809 8.09859L8.93269 8.99599C8.95589 9.04999 8.99629 9.09639 9.04649 9.12619L9.44049 9.36279C9.60909 9.46399 9.72589 9.63319 9.76069 9.82659C9.79549 10.0204 9.74489 10.2196 9.62209 10.3732L9.27209 10.8108C9.23229 10.8606 9.21029 10.9232 9.21029 10.9868V11.6182C9.21029 11.7978 9.13749 11.9736 9.01049 12.1004L8.79369 12.3172C8.77729 12.3336 8.76309 12.3518 8.75129 12.3714L8.27349 13.1678C8.18989 13.307 8.05889 13.4122 7.90469 13.4636C7.83409 13.4878 7.76149 13.499 7.69009 13.499ZM5.95569 9.89679C6.20889 9.89679 6.44449 10.0378 6.56269 10.2742L6.76629 10.6812C6.78849 10.7256 6.80589 10.7726 6.81789 10.8208L7.19709 12.3378C7.20009 12.35 7.20409 12.3618 7.20869 12.3734L7.42809 12.922C7.48349 13.06 7.63709 13.1314 7.77889 13.0846C7.84249 13.0632 7.89669 13.0198 7.93149 12.962L8.40909 12.1658C8.43769 12.1184 8.47209 12.0742 8.51149 12.0348L8.72849 11.8176C8.78109 11.7652 8.81109 11.6926 8.81109 11.6184V10.987C8.81109 10.8328 8.86409 10.6818 8.96049 10.5612L9.31069 10.1236C9.36229 10.0592 9.38249 9.97899 9.36809 9.89779C9.35349 9.81659 9.30649 9.74839 9.23569 9.70599L8.84189 9.46959C8.71849 9.39579 8.62309 9.28659 8.56609 9.15379L8.18129 8.25619C8.12909 8.13439 7.99709 8.06519 7.86709 8.09079L7.43309 8.17779C7.26629 8.21159 7.09429 8.18119 6.94849 8.09379L6.22269 7.65839C6.17889 7.63199 6.12889 7.61819 6.07769 7.61819H5.65909C5.56829 7.61819 5.48269 7.66239 5.42989 7.73619L4.66369 8.80879C4.62929 8.85679 4.61109 8.91339 4.61109 8.97239V9.18659C4.61109 9.27259 4.64969 9.35279 4.71689 9.40679L5.34969 9.91279C5.41789 9.96739 5.50949 9.98779 5.59429 9.96619L5.78769 9.91799C5.84369 9.90359 5.90009 9.89679 5.95569 9.89679Z" fill="#505083"/>
<path d="M10.0111 13.2178C9.95825 13.2178 9.90745 13.197 9.86965 13.1592L9.46965 12.7592C9.42245 12.712 9.40185 12.6442 9.41505 12.5786L9.61505 11.5786C9.62285 11.54 9.64185 11.5044 9.66965 11.4764L10.2697 10.8764C10.3219 10.8242 10.3987 10.8048 10.4691 10.8264C10.5397 10.8476 10.5927 10.9062 10.6071 10.9786L10.8071 11.9786C10.8169 12.0274 10.8081 12.078 10.7825 12.1208L10.1825 13.1208C10.1509 13.1736 10.0965 13.2088 10.0355 13.2164C10.0273 13.2172 10.0191 13.2178 10.0111 13.2178ZM9.82805 12.552L9.97125 12.6954L10.3997 11.9814L10.2881 11.4236L9.99505 11.7166L9.82805 12.552Z" fill="#505083"/>
<path d="M12.2101 8.77419C11.8959 8.77419 11.6147 8.55859 11.5351 8.24319C11.4881 8.05679 11.4293 7.89699 11.3607 7.76779C11.3171 7.68579 11.2387 7.63339 11.1453 7.62379C11.0431 7.61359 10.9435 7.65519 10.8773 7.73519C10.4747 8.22179 10.0825 8.44679 9.71049 8.40479C9.25969 8.35319 9.04089 7.92559 9.03169 7.90739C8.10489 6.05359 6.44909 6.21379 6.43269 6.21679C6.42529 6.21759 6.41809 6.21799 6.41069 6.21799C6.29949 6.21799 6.17609 6.24479 6.04429 6.29739C5.60229 6.47419 5.11389 6.34159 4.82889 5.96759C4.54969 5.60079 4.55129 5.12399 4.83309 4.75319L4.85629 4.72299C4.99669 4.54259 5.21149 4.42779 5.44509 4.40879C6.19909 4.34759 6.75969 3.98479 7.11149 3.33039C7.14789 3.26259 7.22029 3.22119 7.29709 3.22539C10.2167 3.36259 12.5993 5.56659 12.9623 8.46599C12.9753 8.57039 12.9053 8.66719 12.8019 8.68699C12.6401 8.71839 12.4717 8.74579 12.3013 8.76839C12.2707 8.77219 12.2401 8.77419 12.2101 8.77419ZM11.1145 7.22219C11.1383 7.22219 11.1621 7.22359 11.1859 7.22599C11.4143 7.24919 11.6067 7.37839 11.7139 7.57999C11.7977 7.73759 11.8681 7.92779 11.9229 8.14519C11.9605 8.29399 12.1003 8.39159 12.2483 8.37179C12.3461 8.35879 12.4433 8.34399 12.5387 8.32799C12.1295 5.75499 10.0063 3.80999 7.40029 3.63179C7.09309 4.14459 6.51929 4.72259 5.47769 4.80739C5.35549 4.81739 5.24409 4.87619 5.17189 4.96899L5.15209 4.99459C4.94529 5.26659 5.01429 5.55019 5.14729 5.72519C5.28209 5.90219 5.55889 6.06119 5.89589 5.92599C6.07149 5.85579 6.24129 5.81959 6.40069 5.81799C6.48149 5.81059 6.93609 5.78239 7.50129 5.97919C8.06089 6.17399 8.84289 6.63539 9.38949 7.72859C9.39009 7.72999 9.52329 7.98259 9.75829 8.00779C9.98409 8.03599 10.2637 7.84979 10.5691 7.48039C10.7053 7.31579 10.9051 7.22219 11.1145 7.22219Z" fill="#505083"/>
</g>
</g>
<defs>
<clipPath id="clip0_8_14427">
<rect width="14" height="14" fill="white"/>
</clipPath>
<clipPath id="clip1_8_14427">
<rect width="14" height="14" fill="white"/>
</clipPath>
<clipPath id="clip2_8_14427">
<rect width="11.9277" height="10.7749" fill="white" transform="translate(1.03613 3.2251)"/>
</clipPath>
</defs>
</svg>
