<svg width="24" height="40" viewBox="0 0 24 40" fill="none" xmlns="http://www.w3.org/2000/svg">
<path d="M-8.96454e-05 20.0111C-8.96454e-05 20.9238 0.333801 21.6806 1.0461 22.3929L18.1858 39.1541C18.7645 39.7329 19.4546 40 20.2782 40C21.9476 40 23.3054 38.6867 23.3054 37.0173C23.3054 36.1937 22.9493 35.4368 22.3483 34.8358L7.12289 20.0334L22.3483 5.18642C22.9493 4.58542 23.3054 3.85086 23.3054 3.00501C23.3054 1.33556 21.9476 0 20.2782 0C19.4546 0 18.7645 0.289371 18.1858 0.868114L1.0461 17.6294C0.311541 18.3417 -8.96454e-05 19.0985 -8.96454e-05 20.0111Z" fill="white"/>
</svg>
