<svg width="12" height="16" viewBox="0 0 12 16" fill="none" xmlns="http://www.w3.org/2000/svg">
<path d="M11.9486 3.24583L8.62238 0.0458922C8.58805 0.0125161 8.54084 0.0041722 8.49363 0.00834422C8.48504 0.00834422 8.48075 0 8.47646 0H0.965672C0.43348 0 0 0.421373 0 0.938703V14.2975C0 14.8148 0.43348 15.2362 0.965672 15.2362H11.0344C11.5666 15.2362 12.0001 14.8148 12.0001 14.2975V3.36264C12.0001 3.35847 11.9958 3.3543 11.9958 3.35013C11.9872 3.31258 11.9743 3.2792 11.9486 3.24583C11.9486 3.25 11.9486 3.25 11.9486 3.24583ZM8.6653 0.542362L11.425 3.19993H8.87989C8.81552 3.19993 8.75543 3.1749 8.70822 3.12901C8.66101 3.08312 8.63955 3.02471 8.63955 2.96213L8.6653 0.542362ZM11.6653 14.2975C11.6653 14.6354 11.3821 14.9149 11.0301 14.9149H0.961381C0.609447 14.9149 0.326183 14.6396 0.326183 14.2975V0.938703C0.326183 0.596598 0.609447 0.321245 0.961381 0.321245H8.33912L8.31337 2.96213C8.31337 3.11232 8.36916 3.25417 8.48075 3.35847C8.58805 3.46277 8.73397 3.52118 8.88848 3.52118H11.6696V14.2975H11.6653Z" fill="#7474B8"/>
</svg>
