<svg width="3" height="3" viewBox="0 0 3 3" fill="none" xmlns="http://www.w3.org/2000/svg">
<path d="M2.57877 0.425984C2.44393 0.294912 2.28662 0.191147 2.10684 0.114689C1.92144 0.0382299 1.71918 0 1.50007 0C1.28096 0 1.0787 0.0382299 0.8933 0.114689C0.707898 0.191147 0.550587 0.294912 0.421368 0.425984C0.292148 0.557056 0.185402 0.715435 0.112365 0.895659C0.0393281 1.07588 0 1.26703 0 1.48002C0 1.68755 0.0393281 1.88416 0.112365 2.06438C0.185402 2.24461 0.292148 2.39753 0.421368 2.53406C0.550587 2.66513 0.713516 2.7689 0.8933 2.84536C1.0787 2.92181 1.28096 2.96004 1.50007 2.96004C1.71918 2.96004 1.92144 2.92181 2.10684 2.84536C2.29224 2.7689 2.44955 2.66513 2.57877 2.53406C2.70799 2.40299 2.81474 2.24461 2.88778 2.06438C2.96081 1.88416 3.00014 1.69301 3.00014 1.48002C3.00014 1.27249 2.96081 1.07588 2.88778 0.895659C2.81474 0.715435 2.71361 0.557056 2.57877 0.425984ZM2.51135 1.90601C2.46079 2.04254 2.38775 2.16269 2.29224 2.26099C2.19673 2.3593 2.08437 2.44122 1.94953 2.50129C1.81469 2.56137 1.66862 2.58867 1.50007 2.58867C1.33714 2.58867 1.18545 2.56137 1.05061 2.50129C0.915773 2.44122 0.803408 2.3593 0.707898 2.26099C0.612388 2.16269 0.539351 2.04254 0.488787 1.90601C0.438223 1.76947 0.410132 1.62748 0.410132 1.47456C0.410132 1.32164 0.438223 1.17965 0.488787 1.04312C0.539351 0.906582 0.612388 0.786432 0.707898 0.688128C0.803408 0.589824 0.915773 0.507905 1.05061 0.44783C1.18545 0.387756 1.33152 0.360448 1.50007 0.360448C1.66862 0.360448 1.81469 0.387756 1.94953 0.44783C2.08437 0.507905 2.19673 0.589824 2.29224 0.688128C2.38775 0.786432 2.46079 0.906582 2.51135 1.04312C2.56192 1.17965 2.59001 1.32164 2.59001 1.47456C2.58439 1.62748 2.56192 1.76947 2.51135 1.90601Z" fill="#7474B8"/>
</svg>
