<svg width="20" height="20" viewBox="0 0 20 20" fill="none" xmlns="http://www.w3.org/2000/svg">
<path d="M17.5 9.16667C17 9.16667 16.6667 9.5 16.6667 10V17.5C16.6667 18 16.3333 18.3333 15.8333 18.3333H2.5C2 18.3333 1.66667 18 1.66667 17.5V4.16667C1.66667 3.66667 2 3.33333 2.5 3.33333H10C10.5 3.33333 10.8333 3 10.8333 2.5C10.8333 2 10.5 1.66667 10 1.66667H2.5C1.08333 1.66667 0 2.75 0 4.16667V17.5C0 18.9167 1.08333 20 2.5 20H15.8333C17.25 20 18.3333 18.9167 18.3333 17.5V10C18.3333 9.5 18 9.16667 17.5 9.16667ZM15.9167 0C15.6667 0 15.4167 0.0833333 15.25 0.25L5.41667 10.0833C5.16667 10.3333 5 10.5833 5 10.9167L4.16667 14.8333C4.08333 15.0833 4.16667 15.4167 4.41667 15.5833C4.58333 15.75 4.75 15.8333 5 15.8333H5.16667L9.08333 15.0833C9.41667 15 9.66667 14.8333 9.91667 14.6667L19.75 4.75C19.9167 4.58333 20 4.33333 20 4.08333C19.75 1.91667 18.0833 0.25 15.9167 0ZM8.75 13.4167L6.08333 13.9167L6.58333 11.25L16.0833 1.75C17.1667 2 18 2.83333 18.25 3.91667L8.75 13.4167Z" fill="black"/>
</svg>
